<?xml version="1.0" encoding="UTF-8"?>
<!DOCTYPE svg PUBLIC "-//W3C//DTD SVG 1.1//EN" "http://www.w3.org/Graphics/SVG/1.1/DTD/svg11.dtd">
<svg xmlns="http://www.w3.org/2000/svg" version="1.1" width="5000px" height="5000px" style="shape-rendering:geometricPrecision; text-rendering:geometricPrecision; image-rendering:optimizeQuality; fill-rule:evenodd; clip-rule:evenodd" xmlns:xlink="http://www.w3.org/1999/xlink">
<g><path style="opacity:0.039" fill="#fefefe" d="M -0.5,-0.5 C 1666.17,-0.5 3332.83,-0.5 4999.5,-0.5C 4999.5,1666.17 4999.5,3332.83 4999.5,4999.5C 3332.83,4999.5 1666.17,4999.5 -0.5,4999.5C -0.5,3332.83 -0.5,1666.17 -0.5,-0.5 Z"/></g>
<g><path style="opacity:1" fill="#e6f6fe" d="M 4295.5,631.5 C 4413.71,626.35 4522.04,655.183 4620.5,718C 4624.63,722.139 4629.3,725.472 4634.5,728C 4639.86,732.031 4645.19,736.031 4650.5,740C 4670.81,756.24 4689.98,773.74 4708,792.5C 4709.88,794.527 4711.05,796.86 4711.5,799.5C 4712.82,799.33 4713.99,799.663 4715,800.5C 4720.52,808.201 4726.52,815.534 4733,822.5C 4816.63,932.973 4841.3,1055.97 4807,1191.5C 4795.1,1230.95 4778.43,1267.95 4757,1302.5C 4750.41,1312.1 4743.41,1321.43 4736,1330.5C 4735.45,1334.28 4733.45,1336.95 4730,1338.5C 4721.09,1351.24 4710.93,1362.91 4699.5,1373.5C 4698.94,1377.06 4696.94,1379.39 4693.5,1380.5C 4691.97,1382.19 4690.64,1384.03 4689.5,1386C 4683.48,1389.17 4678.48,1393.51 4674.5,1399C 4669.25,1402.24 4664.58,1406.24 4660.5,1411C 4654.79,1413.87 4649.79,1417.7 4645.5,1422.5C 4644.31,1423.43 4642.98,1423.76 4641.5,1423.5C 4641.67,1424.82 4641.34,1425.99 4640.5,1427C 4636.85,1428.97 4633.19,1430.97 4629.5,1433C 4588.64,1462.43 4543.98,1485.1 4495.5,1501C 4417.27,1525.54 4337.27,1533.2 4255.5,1524C 4130.72,1507.53 4025.56,1454.37 3940,1364.5C 3930.56,1354.07 3921.56,1343.41 3913,1332.5C 3907.27,1323.08 3900.94,1314.08 3894,1305.5C 3892.13,1299.06 3888.8,1293.72 3884,1289.5C 3874.17,1271.15 3865.01,1252.32 3856.5,1233C 3823.71,1147.93 3818.55,1061.1 3841,972.5C 3861.37,900.599 3897.37,837.932 3949,784.5C 4028.36,705.734 4123.52,656.901 4234.5,638C 4254.89,635.012 4275.22,632.846 4295.5,631.5 Z"/></g>
<g><path style="opacity:1" fill="#fca6b9" d="M 1043.5,759.5 C 1032.99,759.172 1022.65,759.506 1012.5,760.5C 1011.71,760.217 1011.04,759.717 1010.5,759C 1021.67,758.174 1032.67,758.341 1043.5,759.5 Z"/></g>
<g><path style="opacity:1" fill="#fe5b7e" d="M 1043.5,759.5 C 1245.17,760.369 1446.84,761.869 1648.5,764C 1603.43,800.852 1558.43,837.685 1513.5,874.5C 1347.9,836.183 1182.23,798.349 1016.5,761C 1169.47,815.211 1322.47,869.211 1475.5,923C 1456.43,938.519 1437.43,954.019 1418.5,969.5C 1381.54,998.62 1344.71,1027.95 1308,1057.5C 1209.66,958.326 1111.16,859.326 1012.5,760.5C 1022.65,759.506 1032.99,759.172 1043.5,759.5 Z"/></g>
<g><path style="opacity:1" fill="#c12f56" d="M 1513.5,874.5 C 1521.88,935.111 1529.72,995.777 1537,1056.5C 1497.34,1027.6 1457.84,998.601 1418.5,969.5C 1437.43,954.019 1456.43,938.519 1475.5,923C 1322.47,869.211 1169.47,815.211 1016.5,761C 1182.23,798.349 1347.9,836.183 1513.5,874.5 Z"/></g>
<g><path style="opacity:1" fill="#fe5b7e" d="M 4205.5,891.5 C 4254.17,889.081 4291.33,908.414 4317,949.5C 4319.83,954.5 4322.67,959.5 4325.5,964.5C 4335.52,946.328 4348.52,930.495 4364.5,917C 4394.89,894.726 4428.22,889.059 4464.5,900C 4495.32,910.497 4518.49,929.997 4534,958.5C 4563.46,1022.29 4559.46,1083.95 4522,1143.5C 4499.49,1175.36 4473.99,1204.86 4445.5,1232C 4406.57,1266.94 4365.9,1299.61 4323.5,1330C 4320.45,1330.86 4317.78,1330.19 4315.5,1328C 4265.05,1290.9 4218.22,1249.4 4175,1203.5C 4150.76,1177.93 4130.43,1149.6 4114,1118.5C 4094.87,1076.18 4091.21,1032.51 4103,987.5C 4118.44,935.214 4152.61,903.214 4205.5,891.5 Z"/></g>
<g><path style="opacity:1" fill="#fdb547" d="M 552.5,867.5 C 555.579,888.563 562.746,908.23 574,926.5C 582.689,938.93 594.523,946.43 609.5,949C 594.226,952.553 582.059,960.719 573,973.5C 562.057,990.586 555.39,1009.25 553,1029.5C 550.249,1007.01 542.249,986.681 529,968.5C 520.054,958.78 509.22,952.28 496.5,949C 512.694,945.828 525.194,937.328 534,923.5C 544.165,906.18 550.332,887.513 552.5,867.5 Z"/></g>
<g><path style="opacity:1" fill="#fdb649" d="M 1643.5,942.5 C 1660.3,944.855 1676.96,947.855 1693.5,951.5C 1692.66,956.532 1691.66,961.532 1690.5,966.5C 1674.7,962.675 1658.7,960.008 1642.5,958.5C 1643.19,953.195 1643.53,947.862 1643.5,942.5 Z"/></g>
<g><path style="opacity:1" fill="#fdb548" d="M 1783.5,992.5 C 1810.12,1008.94 1833.96,1028.94 1855,1052.5C 1856.6,1054.37 1857.6,1056.37 1858,1058.5C 1854.35,1061.31 1850.85,1064.31 1847.5,1067.5C 1827.2,1043.52 1803.87,1023.19 1777.5,1006.5C 1776.42,1005.64 1776.25,1004.64 1777,1003.5C 1779.42,999.929 1781.59,996.262 1783.5,992.5 Z"/></g>
<g><path style="opacity:1" fill="#fdb648" d="M 1943.5,1098.5 C 1960.25,1097.93 1976.92,1098.76 1993.5,1101C 2009.04,1104.24 2024.38,1108.24 2039.5,1113C 2040.43,1113.39 2041.09,1114.05 2041.5,1115C 2039.87,1118.73 2038.53,1122.57 2037.5,1126.5C 2036.67,1126.83 2035.83,1127.17 2035,1127.5C 2016.16,1121.67 1997,1117.17 1977.5,1114C 1966.17,1113.5 1954.84,1113.33 1943.5,1113.5C 1943.5,1108.5 1943.5,1103.5 1943.5,1098.5 Z"/></g>
<g><path style="opacity:1" fill="#fdb548" d="M 1845.5,1119.5 C 1849.03,1123.56 1851.2,1128.22 1852,1133.5C 1824.13,1147.53 1802.63,1168.2 1787.5,1195.5C 1782.94,1193.39 1778.61,1191.06 1774.5,1188.5C 1790.63,1157.7 1814.3,1134.7 1845.5,1119.5 Z"/></g>
<g><path style="opacity:1" fill="#fdb64b" d="M 1907.5,1142.5 C 1908.82,1142.33 1909.99,1142.66 1911,1143.5C 1923.48,1174.99 1926.48,1207.32 1920,1240.5C 1919.28,1241.06 1918.44,1241.39 1917.5,1241.5C 1913.6,1240.19 1909.6,1239.52 1905.5,1239.5C 1910.58,1208.49 1907.58,1178.32 1896.5,1149C 1896.64,1148.23 1896.98,1147.56 1897.5,1147C 1900.89,1145.38 1904.23,1143.88 1907.5,1142.5 Z"/></g>
<g><path style="opacity:1" fill="#fdb548" d="M 2132.5,1151.5 C 2159.94,1169.23 2185.94,1188.89 2210.5,1210.5C 2207.85,1214.48 2204.85,1218.15 2201.5,1221.5C 2176.54,1201.37 2150.87,1182.2 2124.5,1164C 2127.05,1159.72 2129.72,1155.55 2132.5,1151.5 Z"/></g>
<g><path style="opacity:1" fill="#0cccc0" d="M 251.5,1265.5 C 255.426,1289.69 264.593,1311.69 279,1331.5C 292.142,1347.3 308.976,1356.13 329.5,1358C 304.547,1361.22 285.381,1373.38 272,1394.5C 261.768,1411.86 255.101,1430.53 252,1450.5C 248.493,1426.17 239.493,1404.17 225,1384.5C 211.62,1369.23 194.787,1360.39 174.5,1358C 203.104,1354.11 223.937,1339.28 237,1313.5C 244.357,1298.26 249.19,1282.26 251.5,1265.5 Z"/></g>
<g><path style="opacity:1" fill="#fdb548" d="M 2279.5,1279.5 C 2280.55,1279.35 2281.55,1279.52 2282.5,1280C 2303.58,1304.32 2322.58,1330.16 2339.5,1357.5C 2335.42,1360.29 2331.25,1362.96 2327,1365.5C 2309.9,1338.48 2290.73,1312.98 2269.5,1289C 2273.1,1286.05 2276.43,1282.88 2279.5,1279.5 Z"/></g>
<g><path style="opacity:1" fill="#fdb548" d="M 1786.5,1282.5 C 1787.38,1282.37 1788.04,1282.7 1788.5,1283.5C 1803.14,1312 1825.98,1322 1857,1313.5C 1861,1317.19 1863.66,1321.52 1865,1326.5C 1825.46,1339.29 1795.46,1327.62 1775,1291.5C 1774.25,1290.36 1774.42,1289.36 1775.5,1288.5C 1779.39,1286.73 1783.06,1284.73 1786.5,1282.5 Z"/></g>
<g><path style="opacity:1" fill="#07085b" d="M 3599.5,1437.5 C 3598.96,1437.56 3598.62,1437.89 3598.5,1438.5C 3602.11,1439.49 3605.77,1439.82 3609.5,1439.5C 3633.14,1439.77 3655.47,1445.27 3676.5,1456C 3685.43,1461.6 3692.27,1469.1 3697,1478.5C 3698.86,1487.99 3695.03,1493.82 3685.5,1496C 3678.34,1498.24 3671.01,1499.4 3663.5,1499.5C 3656.83,1499.33 3650.16,1499.5 3643.5,1500C 3644.74,1500.79 3646.08,1501.29 3647.5,1501.5C 3662.83,1507 3676.83,1514.83 3689.5,1525C 3719.19,1549.71 3741.69,1579.87 3757,1615.5C 3780.11,1673.24 3789.44,1733.24 3785,1795.5C 3781.64,1842.11 3774.48,1888.11 3763.5,1933.5C 3763.72,1934.68 3763.39,1935.68 3762.5,1936.5C 3734.96,1930.85 3711.46,1938.18 3692,1958.5C 3682.87,1972.56 3676.87,1987.89 3674,2004.5C 3670.44,2026.92 3668.61,2049.42 3668.5,2072C 3626.35,2091.73 3592.85,2081.89 3568,2042.5C 3558.2,2025.42 3550.53,2007.42 3545,1988.5C 3533.53,1941.21 3527.2,1893.21 3526,1844.5C 3525.22,1800.48 3525.56,1756.48 3527,1712.5C 3481.41,1735.88 3434.58,1756.38 3386.5,1774C 3357.26,1784.48 3327.26,1791.81 3296.5,1796C 3281.54,1797.57 3266.87,1796.24 3252.5,1792C 3236.28,1783.92 3228.62,1770.76 3229.5,1752.5C 3229.78,1746.09 3230.28,1739.76 3231,1733.5C 3179.88,1765.15 3126.71,1793.32 3071.5,1818C 3037.23,1833.81 3001.56,1845.31 2964.5,1852.5C 2949.47,1901.41 2943.8,1951.41 2947.5,2002.5C 2947.5,2003.83 2947.5,2005.17 2947.5,2006.5C 2943.83,2006.5 2940.17,2006.5 2936.5,2006.5C 2928.66,1953.46 2920.5,1900.46 2912,1847.5C 2903.47,1842.46 2897.8,1835.12 2895,1825.5C 2892.6,1809.31 2893.43,1793.31 2897.5,1777.5C 2898.4,1776.79 2898.74,1775.79 2898.5,1774.5C 2893.17,1774.5 2887.83,1774.5 2882.5,1774.5C 2866.5,1773.91 2852.66,1768.24 2841,1757.5C 2831.71,1743.46 2830.04,1728.46 2836,1712.5C 2844.09,1691.65 2854.75,1672.32 2868,1654.5C 2878.79,1640.71 2889.96,1627.21 2901.5,1614C 2886.79,1613.98 2873.12,1610.31 2860.5,1603C 2853.5,1594.49 2852.67,1585.32 2858,1575.5C 2866.24,1561.24 2876.74,1548.74 2889.5,1538C 2925.76,1506.85 2965.76,1481.18 3009.5,1461C 3101.02,1417.37 3197.35,1391.37 3298.5,1383C 3370.4,1376.6 3440.07,1385.93 3507.5,1411C 3517.41,1414.95 3527.07,1419.45 3536.5,1424.5C 3546.93,1404.48 3560.6,1386.98 3577.5,1372C 3598.64,1355.41 3621.31,1353.07 3645.5,1365C 3652.87,1369.57 3655.37,1376.07 3653,1384.5C 3647.84,1396.33 3640.34,1406.5 3630.5,1415C 3620.85,1423.49 3610.51,1430.99 3599.5,1437.5 Z"/></g>
<g><path style="opacity:1" fill="#fe5b7e" d="M 1659.5,1467.5 C 1659.67,1630.83 1659.5,1794.17 1659,1957.5C 1652.62,1993.38 1631.45,2014.38 1595.5,2020.5C 1542.83,2020.5 1490.17,2020.5 1437.5,2020.5C 1437.22,2022.41 1437.55,2024.08 1438.5,2025.5C 1443.32,2062.75 1447.49,2100.08 1451,2137.5C 1451.97,2146.99 1451.64,2156.33 1450,2165.5C 1446.02,2161.59 1442.02,2157.59 1438,2153.5C 1404.54,2110.2 1372.04,2066.2 1340.5,2021.5C 1030.83,2020.67 721.167,2020.17 411.5,2020C 407.888,2018.85 404.222,2018.02 400.5,2017.5C 373.357,2005.57 357.524,1984.9 353,1955.5C 352.333,1790.83 352.333,1626.17 353,1461.5C 358.609,1426.89 378.442,1405.39 412.5,1397C 807.5,1396.33 1202.5,1396.33 1597.5,1397C 1628.99,1402.65 1649.16,1420.82 1658,1451.5C 1659.09,1456.78 1659.59,1462.11 1659.5,1467.5 Z"/></g>
<g><path style="opacity:1" fill="#8080ad" d="M 3599.5,1437.5 C 3602.83,1438.17 3606.17,1438.83 3609.5,1439.5C 3605.77,1439.82 3602.11,1439.49 3598.5,1438.5C 3598.62,1437.89 3598.96,1437.56 3599.5,1437.5 Z"/></g>
<g><path style="opacity:1" fill="#fdb649" d="M 2379.5,1446.5 C 2380.82,1446.33 2381.99,1446.66 2383,1447.5C 2392.21,1474.89 2398.88,1502.89 2403,1531.5C 2403.83,1535.21 2403.66,1538.88 2402.5,1542.5C 2397.9,1543.44 2393.23,1543.78 2388.5,1543.5C 2385.67,1512.33 2379,1482 2368.5,1452.5C 2368.83,1451.83 2369.17,1451.17 2369.5,1450.5C 2373.01,1449.34 2376.35,1448 2379.5,1446.5 Z"/></g>
<g><path style="opacity:1" fill="#7879a6" d="M 3663.5,1499.5 C 3658.17,1500.17 3652.83,1500.83 3647.5,1501.5C 3646.08,1501.29 3644.74,1500.79 3643.5,1500C 3650.16,1499.5 3656.83,1499.33 3663.5,1499.5 Z"/></g>
<g><path style="opacity:1" fill="#fefefe" d="M 449.5,1609.5 C 462.695,1614.59 476.362,1616.42 490.5,1615C 499.607,1613.08 508.607,1610.74 517.5,1608C 523.733,1606.36 530.066,1605.52 536.5,1605.5C 537.404,1606.21 537.737,1607.21 537.5,1608.5C 523.963,1615.88 514.463,1626.88 509,1641.5C 503.095,1662.21 501.928,1683.21 505.5,1704.5C 488.775,1700.4 479.775,1706.9 478.5,1724C 478.462,1739.6 485.795,1749.93 500.5,1755C 506.289,1756.02 511.622,1754.85 516.5,1751.5C 523.761,1786.75 544.094,1810.75 577.5,1823.5C 577.5,1825.17 577.5,1826.83 577.5,1828.5C 577.5,1837.17 577.5,1845.83 577.5,1854.5C 595.5,1854.5 613.5,1854.5 631.5,1854.5C 631.5,1847.17 631.5,1839.83 631.5,1832.5C 631.5,1828.83 631.5,1825.17 631.5,1821.5C 662.401,1808.09 681.234,1784.76 688,1751.5C 698.205,1757 707.705,1755.83 716.5,1748C 724.873,1738.56 727.706,1727.72 725,1715.5C 720.545,1705.85 713.045,1701.85 702.5,1703.5C 709.175,1662.37 696.842,1628.21 665.5,1601C 641.558,1585.18 615.558,1580.68 587.5,1587.5C 585.521,1585.83 583.188,1585.17 580.5,1585.5C 577.912,1563.97 567.912,1546.97 550.5,1534.5C 615.2,1516.79 673.2,1529.62 724.5,1573C 775.922,1622.95 794.089,1683.11 779,1753.5C 757.281,1826.22 709.447,1871.05 635.5,1888C 561.384,1898.64 501.218,1874.81 455,1816.5C 418.166,1762.5 410.499,1704.5 432,1642.5C 436.829,1630.84 442.662,1619.84 449.5,1609.5 Z"/></g>
<g><path style="opacity:1" fill="#f5f9fd" d="M 1659.5,1467.5 C 1660.5,1486.66 1660.83,1505.99 1660.5,1525.5C 1687.15,1535.75 1702.65,1555.08 1707,1583.5C 1707.99,1751.86 1707.66,1920.2 1706,2088.5C 1697.17,2120.66 1676.34,2139.5 1643.5,2145C 1591.17,2145.33 1538.83,2145.67 1486.5,2146C 1485.98,2146.56 1485.64,2147.23 1485.5,2148C 1491.03,2186.37 1495.53,2224.87 1499,2263.5C 1499.67,2271.5 1499.67,2279.5 1499,2287.5C 1498.69,2288.31 1498.19,2288.97 1497.5,2289.5C 1491.38,2283.91 1485.71,2277.91 1480.5,2271.5C 1449.09,2230.33 1418.42,2188.66 1388.5,2146.5C 1080.83,2145.67 773.167,2145.17 465.5,2145C 433.647,2139.96 412.813,2122.12 403,2091.5C 402.147,2087.53 401.481,2083.53 401,2079.5C 400.54,2058.69 400.373,2038.02 400.5,2017.5C 404.222,2018.02 407.888,2018.85 411.5,2020C 721.167,2020.17 1030.83,2020.67 1340.5,2021.5C 1372.04,2066.2 1404.54,2110.2 1438,2153.5C 1442.02,2157.59 1446.02,2161.59 1450,2165.5C 1451.64,2156.33 1451.97,2146.99 1451,2137.5C 1447.49,2100.08 1443.32,2062.75 1438.5,2025.5C 1438.5,2024.17 1438.5,2022.83 1438.5,2021.5C 1491,2021.83 1543.34,2021.5 1595.5,2020.5C 1631.45,2014.38 1652.62,1993.38 1659,1957.5C 1659.5,1794.17 1659.67,1630.83 1659.5,1467.5 Z"/></g>
<g><path style="opacity:1" fill="#e6f7fe" d="M 3947.5,1535.5 C 3971.43,1534.79 3991.43,1543.13 4007.5,1560.5C 4019.24,1577.45 4021.74,1595.79 4015,1615.5C 4005.44,1635.71 3989.61,1647.88 3967.5,1652C 3943.93,1655.92 3923.1,1650.09 3905,1634.5C 3888.64,1616.34 3884.64,1595.68 3893,1572.5C 3894.92,1569.66 3896.59,1566.66 3898,1563.5C 3899.26,1561.25 3901.09,1559.92 3903.5,1559.5C 3903.35,1558.45 3903.52,1557.45 3904,1556.5C 3915.91,1544.07 3930.41,1537.07 3947.5,1535.5 Z"/></g>
<g><path style="opacity:1" fill="#050844" d="M 550.5,1534.5 C 567.912,1546.97 577.912,1563.97 580.5,1585.5C 565.486,1587.56 551.486,1592.73 538.5,1601C 536.963,1602.11 536.297,1603.61 536.5,1605.5C 530.066,1605.52 523.733,1606.36 517.5,1608C 508.607,1610.74 499.607,1613.08 490.5,1615C 476.362,1616.42 462.695,1614.59 449.5,1609.5C 473.802,1571.86 507.469,1546.86 550.5,1534.5 Z"/></g>
<g><path style="opacity:1" fill="#fefefe" d="M 824.5,1551.5 C 902.834,1551.33 981.167,1551.5 1059.5,1552C 1061.33,1552.5 1062.5,1553.67 1063,1555.5C 1063.67,1563.5 1063.67,1571.5 1063,1579.5C 1062.5,1581.33 1061.33,1582.5 1059.5,1583C 980.833,1583.67 902.167,1583.67 823.5,1583C 821.951,1581.79 820.785,1580.29 820,1578.5C 819.333,1571.17 819.333,1563.83 820,1556.5C 821.025,1554.31 822.525,1552.65 824.5,1551.5 Z"/></g>
<g><path style="opacity:1" fill="#fefefe" d="M 1108.5,1551.5 C 1243.17,1551.33 1377.83,1551.5 1512.5,1552C 1514.29,1552.78 1515.79,1553.95 1517,1555.5C 1517.67,1563.5 1517.67,1571.5 1517,1579.5C 1516.17,1581 1515,1582.17 1513.5,1583C 1378.5,1583.67 1243.5,1583.67 1108.5,1583C 1106.67,1582.5 1105.5,1581.33 1105,1579.5C 1104.33,1571.5 1104.33,1563.5 1105,1555.5C 1106.1,1554.05 1107.27,1552.72 1108.5,1551.5 Z"/></g>
<g><path style="opacity:1" fill="#050844" d="M 702.5,1703.5 C 700.83,1703.75 699.33,1704.42 698,1705.5C 698.54,1679.28 689.707,1656.94 671.5,1638.5C 664.487,1650.35 655.487,1660.52 644.5,1669C 628.567,1681.3 611.234,1690.96 592.5,1698C 595.443,1693.18 597.609,1688.01 599,1682.5C 602.159,1671.53 604.825,1660.53 607,1649.5C 594.918,1662.24 581.085,1672.74 565.5,1681C 546.988,1690.73 527.822,1698.89 508,1705.5C 507.098,1705.26 506.265,1704.92 505.5,1704.5C 501.928,1683.21 503.095,1662.21 509,1641.5C 514.463,1626.88 523.963,1615.88 537.5,1608.5C 542.003,1607.85 546.003,1606.01 549.5,1603C 560.836,1597.22 572.836,1593.89 585.5,1593C 587.155,1591.56 587.822,1589.72 587.5,1587.5C 615.558,1580.68 641.558,1585.18 665.5,1601C 696.842,1628.21 709.175,1662.37 702.5,1703.5 Z"/></g>
<g><path style="opacity:1" fill="#f5af47" d="M 580.5,1585.5 C 583.188,1585.17 585.521,1585.83 587.5,1587.5C 587.822,1589.72 587.155,1591.56 585.5,1593C 572.836,1593.89 560.836,1597.22 549.5,1603C 546.003,1606.01 542.003,1607.85 537.5,1608.5C 537.737,1607.21 537.404,1606.21 536.5,1605.5C 536.297,1603.61 536.963,1602.11 538.5,1601C 551.486,1592.73 565.486,1587.56 580.5,1585.5 Z"/></g>
<g><path style="opacity:1" fill="#fefefe" d="M 823.5,1635.5 C 875.834,1635.33 928.168,1635.5 980.5,1636C 981.931,1636.47 983.097,1637.3 984,1638.5C 984.667,1646.83 984.667,1655.17 984,1663.5C 983.167,1664.33 982.333,1665.17 981.5,1666C 928.833,1666.67 876.167,1666.67 823.5,1666C 822,1665.17 820.833,1664 820,1662.5C 819.333,1654.83 819.333,1647.17 820,1639.5C 821.376,1638.29 822.542,1636.96 823.5,1635.5 Z"/></g>
<g><path style="opacity:1" fill="#fefefe" d="M 1016.5,1635.5 C 1081.83,1635.33 1147.17,1635.5 1212.5,1636C 1213.33,1636.83 1214.17,1637.67 1215,1638.5C 1215.67,1646.83 1215.67,1655.17 1215,1663.5C 1214.17,1664.33 1213.33,1665.17 1212.5,1666C 1147.17,1666.67 1081.83,1666.67 1016.5,1666C 1015.67,1665.17 1014.83,1664.33 1014,1663.5C 1013.33,1655.17 1013.33,1646.83 1014,1638.5C 1015.04,1637.63 1015.88,1636.63 1016.5,1635.5 Z"/></g>
<g><path style="opacity:1" fill="#febfbb" d="M 702.5,1703.5 C 713.045,1701.85 720.545,1705.85 725,1715.5C 727.706,1727.72 724.873,1738.56 716.5,1748C 707.705,1755.83 698.205,1757 688,1751.5C 681.234,1784.76 662.401,1808.09 631.5,1821.5C 613.74,1827.33 595.74,1828 577.5,1823.5C 544.094,1810.75 523.761,1786.75 516.5,1751.5C 511.622,1754.85 506.289,1756.02 500.5,1755C 485.795,1749.93 478.462,1739.6 478.5,1724C 479.775,1706.9 488.775,1700.4 505.5,1704.5C 506.265,1704.92 507.098,1705.26 508,1705.5C 527.822,1698.89 546.988,1690.73 565.5,1681C 581.085,1672.74 594.918,1662.24 607,1649.5C 604.825,1660.53 602.159,1671.53 599,1682.5C 597.609,1688.01 595.443,1693.18 592.5,1698C 611.234,1690.96 628.567,1681.3 644.5,1669C 655.487,1660.52 664.487,1650.35 671.5,1638.5C 689.707,1656.94 698.54,1679.28 698,1705.5C 699.33,1704.42 700.83,1703.75 702.5,1703.5 Z"/></g>
<g><path style="opacity:1" fill="#fdb649" d="M 2389.5,1639.5 C 2394.48,1640.05 2399.48,1640.39 2404.5,1640.5C 2402.18,1672.08 2396.68,1703.08 2388,1733.5C 2387.48,1735.22 2386.48,1736.56 2385,1737.5C 2380.4,1736.42 2376.23,1734.59 2372.5,1732C 2381.19,1701.73 2386.85,1670.9 2389.5,1639.5 Z"/></g>
<g><path style="opacity:1" fill="#fffdfd" d="M 824.5,1718.5 C 941.5,1718.33 1058.5,1718.5 1175.5,1719C 1177.29,1719.78 1178.79,1720.95 1180,1722.5C 1180.67,1730.17 1180.67,1737.83 1180,1745.5C 1179.17,1747.67 1177.67,1749.17 1175.5,1750C 1058.17,1750.67 940.833,1750.67 823.5,1750C 821.951,1748.79 820.785,1747.29 820,1745.5C 819.333,1738.17 819.333,1730.83 820,1723.5C 821.025,1721.31 822.525,1719.65 824.5,1718.5 Z"/></g>
<g><path style="opacity:1" fill="#fffdfd" d="M 1237.5,1718.5 C 1329.5,1718.33 1421.5,1718.5 1513.5,1719C 1514.67,1720.17 1515.83,1721.33 1517,1722.5C 1517.67,1730.5 1517.67,1738.5 1517,1746.5C 1516.5,1748.33 1515.33,1749.5 1513.5,1750C 1421.5,1750.67 1329.5,1750.67 1237.5,1750C 1235.67,1749.5 1234.5,1748.33 1234,1746.5C 1233.33,1738.17 1233.33,1729.83 1234,1721.5C 1235.15,1720.36 1236.31,1719.36 1237.5,1718.5 Z"/></g>
<g><path style="opacity:1" fill="#febfba" d="M 3763.5,1933.5 C 3793.09,1940.92 3812.59,1959.26 3822,1988.5C 3833.64,2033.33 3825.31,2074 3797,2110.5C 3779.68,2131.74 3757.52,2144.57 3730.5,2149C 3711.73,2150.91 3694.73,2146.41 3679.5,2135.5C 3674.24,2234.49 3636.57,2318.66 3566.5,2388C 3556.94,2396.41 3547.27,2404.57 3537.5,2412.5C 3447.14,2478.28 3347.47,2497.28 3238.5,2469.5C 3175.32,2449.17 3121.15,2414.84 3076,2366.5C 3044.39,2328.47 3019.72,2286.14 3002,2239.5C 2994.5,2218.18 2987.34,2196.84 2980.5,2175.5C 2971.36,2132.92 2962.52,2090.25 2954,2047.5C 2951.08,2032.47 2948.92,2017.47 2947.5,2002.5C 2943.8,1951.41 2949.47,1901.41 2964.5,1852.5C 3001.56,1845.31 3037.23,1833.81 3071.5,1818C 3126.71,1793.32 3179.88,1765.15 3231,1733.5C 3230.28,1739.76 3229.78,1746.09 3229.5,1752.5C 3228.62,1770.76 3236.28,1783.92 3252.5,1792C 3266.87,1796.24 3281.54,1797.57 3296.5,1796C 3327.26,1791.81 3357.26,1784.48 3386.5,1774C 3434.58,1756.38 3481.41,1735.88 3527,1712.5C 3525.56,1756.48 3525.22,1800.48 3526,1844.5C 3527.2,1893.21 3533.53,1941.21 3545,1988.5C 3550.53,2007.42 3558.2,2025.42 3568,2042.5C 3592.85,2081.89 3626.35,2091.73 3668.5,2072C 3668.61,2049.42 3670.44,2026.92 3674,2004.5C 3676.87,1987.89 3682.87,1972.56 3692,1958.5C 3711.46,1938.18 3734.96,1930.85 3762.5,1936.5C 3763.39,1935.68 3763.72,1934.68 3763.5,1933.5 Z"/></g>
<g><path style="opacity:1" fill="#fefdfd" d="M 607.5,1767.5 C 617.167,1767.5 626.833,1767.5 636.5,1767.5C 633.583,1776.91 627.249,1782.75 617.5,1785C 602.749,1789.02 590.249,1785.52 580,1774.5C 579.167,1772.83 578.333,1771.17 577.5,1769.5C 587.659,1768.83 597.659,1768.17 607.5,1767.5 Z"/></g>
<g><path style="opacity:1" fill="#7779a7" d="M 2882.5,1774.5 C 2887.83,1774.5 2893.17,1774.5 2898.5,1774.5C 2898.74,1775.79 2898.4,1776.79 2897.5,1777.5C 2892.75,1775.86 2887.75,1774.86 2882.5,1774.5 Z"/></g>
<g><path style="opacity:1" fill="#fefdfd" d="M 824.5,1798.5 C 1053.83,1798.33 1283.17,1798.5 1512.5,1799C 1514.29,1799.78 1515.79,1800.95 1517,1802.5C 1517.67,1810.5 1517.67,1818.5 1517,1826.5C 1516.5,1828.33 1515.33,1829.5 1513.5,1830C 1283.5,1830.67 1053.5,1830.67 823.5,1830C 822.333,1828.83 821.167,1827.67 820,1826.5C 819.333,1818.83 819.333,1811.17 820,1803.5C 821.025,1801.31 822.525,1799.65 824.5,1798.5 Z"/></g>
<g><path style="opacity:1" fill="#f99993" d="M 631.5,1821.5 C 631.5,1825.17 631.5,1828.83 631.5,1832.5C 619.591,1834.47 607.591,1834.97 595.5,1834C 589.274,1832.78 583.274,1830.95 577.5,1828.5C 577.5,1826.83 577.5,1825.17 577.5,1823.5C 595.74,1828 613.74,1827.33 631.5,1821.5 Z"/></g>
<g><path style="opacity:1" fill="#fec1bc" d="M 577.5,1828.5 C 583.274,1830.95 589.274,1832.78 595.5,1834C 607.591,1834.97 619.591,1834.47 631.5,1832.5C 631.5,1839.83 631.5,1847.17 631.5,1854.5C 613.5,1854.5 595.5,1854.5 577.5,1854.5C 577.5,1845.83 577.5,1837.17 577.5,1828.5 Z"/></g>
<g><path style="opacity:1" fill="#fdb649" d="M 2328.5,1815.5 C 2333.29,1818.46 2337.12,1822.13 2340,1826.5C 2329.45,1838.05 2317.95,1848.55 2305.5,1858C 2304.24,1858.98 2302.91,1859.32 2301.5,1859C 2298.71,1855.25 2296.04,1851.42 2293.5,1847.5C 2307.03,1838.9 2318.69,1828.23 2328.5,1815.5 Z"/></g>
<g><path style="opacity:1" fill="#0b095b" d="M 3395.5,1887.5 C 3444.57,1884.69 3481.24,1904.36 3505.5,1946.5C 3505.17,1946.83 3504.83,1947.17 3504.5,1947.5C 3484.96,1935.56 3464.29,1926.06 3442.5,1919C 3414.98,1912.48 3387.32,1911.81 3359.5,1917C 3347.33,1919.71 3335.33,1922.71 3323.5,1926C 3342.57,1903.96 3366.57,1891.13 3395.5,1887.5 Z"/></g>
<g><path style="opacity:1" fill="#0a095b" d="M 3098.5,1918.5 C 3127.88,1916.59 3154.21,1924.42 3177.5,1942C 3121.46,1933 3071.13,1945.66 3026.5,1980C 3019,1986.17 3011.5,1992.33 3004,1998.5C 3013.74,1965.08 3034.58,1941.25 3066.5,1927C 3076.98,1922.95 3087.65,1920.11 3098.5,1918.5 Z"/></g>
<g><path style="opacity:1" fill="#343333" d="M 3391.5,1966.5 C 3419.33,1966.18 3432.16,1979.84 3430,2007.5C 3423.41,2026.21 3410.25,2034.38 3390.5,2032C 3372.01,2025.83 3363.51,2013 3365,1993.5C 3368.69,1979.31 3377.53,1970.31 3391.5,1966.5 Z"/></g>
<g><path style="opacity:1" fill="#f99893" d="M 3239.5,1973.5 C 3245.55,1986.82 3249.71,2000.82 3252,2015.5C 3257.53,2042.12 3256.53,2068.46 3249,2094.5C 3244.11,2103.07 3238.78,2111.4 3233,2119.5C 3229.54,2130.04 3231.54,2139.37 3239,2147.5C 3247.72,2156.12 3257.89,2162.62 3269.5,2167C 3277.16,2169.33 3284.82,2171.33 3292.5,2173C 3267.74,2179.45 3245.41,2174.78 3225.5,2159C 3209.43,2142.53 3206.6,2124.03 3217,2103.5C 3225.01,2094.16 3230.34,2083.5 3233,2071.5C 3237.53,2039 3239.7,2006.33 3239.5,1973.5 Z"/></g>
<g><path style="opacity:1" fill="#343333" d="M 3107.5,1998.5 C 3135.33,1996.83 3148.83,2009.83 3148,2037.5C 3142.46,2056.86 3129.63,2065.69 3109.5,2064C 3090,2058.14 3081.17,2044.97 3083,2024.5C 3086.95,2011.72 3095.12,2003.05 3107.5,1998.5 Z"/></g>
<g><path style="opacity:1" fill="#f89892" d="M 2947.5,2002.5 C 2948.92,2017.47 2951.08,2032.47 2954,2047.5C 2962.52,2090.25 2971.36,2132.92 2980.5,2175.5C 2958.11,2180.32 2937.78,2175.82 2919.5,2162C 2888.52,2136.52 2874.69,2103.69 2878,2063.5C 2882.33,2035.51 2897.83,2017.01 2924.5,2008C 2928.47,2007.17 2932.47,2006.67 2936.5,2006.5C 2940.17,2006.5 2943.83,2006.5 2947.5,2006.5C 2947.5,2005.17 2947.5,2003.83 2947.5,2002.5 Z"/></g>
<g><path style="opacity:1" fill="#fdb547" d="M 1907.5,1991.5 C 1910.58,2012.56 1917.75,2032.23 1929,2050.5C 1938.52,2063.68 1951.36,2071.51 1967.5,2074C 1952.11,2076.04 1939.61,2083.21 1930,2095.5C 1918.12,2113.48 1910.78,2133.15 1908,2154.5C 1905.62,2132.09 1897.95,2111.76 1885,2093.5C 1875.7,2082.43 1863.87,2075.93 1849.5,2074C 1866.34,2071.15 1879.51,2062.65 1889,2048.5C 1899.63,2030.97 1905.8,2011.97 1907.5,1991.5 Z"/></g>
<g><path style="opacity:1" fill="#f8abbf" d="M 1595.5,2020.5 C 1543.34,2021.5 1491,2021.83 1438.5,2021.5C 1438.5,2022.83 1438.5,2024.17 1438.5,2025.5C 1437.55,2024.08 1437.22,2022.41 1437.5,2020.5C 1490.17,2020.5 1542.83,2020.5 1595.5,2020.5 Z"/></g>
<g><path style="opacity:1" fill="#f99994" d="M 3418.5,2224.5 C 3419.53,2224.9 3419.69,2225.56 3419,2226.5C 3375.83,2273.56 3322.33,2294.73 3258.5,2290C 3225.95,2284.72 3197.29,2271.39 3172.5,2250C 3183.2,2255.85 3194.2,2261.52 3205.5,2267C 3253.39,2287.25 3301.39,2287.58 3349.5,2268C 3375.17,2257.51 3398.17,2243.01 3418.5,2224.5 Z"/></g>
<g><path style="opacity:1" fill="#0dccc0" d="M 2619.5,2313.5 C 2623.33,2337.16 2632.17,2358.83 2646,2378.5C 2659.44,2394.64 2676.61,2404.14 2697.5,2407C 2672.36,2409.82 2653.19,2421.98 2640,2443.5C 2629.76,2460.89 2623.09,2479.55 2620,2499.5C 2616.95,2476.02 2608.62,2454.68 2595,2435.5C 2581.61,2418.55 2564.11,2409.05 2542.5,2407C 2571.86,2402.64 2593.02,2387.14 2606,2360.5C 2613.04,2345.55 2617.54,2329.89 2619.5,2313.5 Z"/></g>
<g><path style="opacity:1" fill="#fdb546" d="M 2423.5,2909.5 C 2143.5,2909.33 1863.5,2909.5 1583.5,2910C 1557.18,2946.79 1530.02,2982.96 1502,3018.5C 1500.43,3020.92 1498.26,3022.26 1495.5,3022.5C 1495.38,3010.47 1495.88,2998.47 1497,2986.5C 1499.6,2960.8 1502.43,2935.13 1505.5,2909.5C 1467.5,2909.67 1429.5,2909.5 1391.5,2909C 1368,2903.85 1352.17,2890.02 1344,2867.5C 1342.32,2861.95 1341.49,2856.28 1341.5,2850.5C 1341.33,2706.17 1341.5,2561.83 1342,2417.5C 1347.83,2390.33 1364.33,2373.83 1391.5,2368C 1735.5,2367.33 2079.5,2367.33 2423.5,2368C 2450.36,2373.19 2467.19,2389.02 2474,2415.5C 2474.67,2563.83 2474.67,2712.17 2474,2860.5C 2467.44,2887.57 2450.6,2903.9 2423.5,2909.5 Z"/></g>
<g><path style="opacity:1" fill="#f99892" d="M 3537.5,2412.5 C 3539.02,2428.81 3540.35,2445.15 3541.5,2461.5C 3541.67,2464.85 3541.5,2468.18 3541,2471.5C 3481.67,2528.88 3410.5,2555.04 3327.5,2550C 3294.94,2547.02 3263.28,2540.19 3232.5,2529.5C 3232.5,2528.17 3232.5,2526.83 3232.5,2525.5C 3234.13,2506.79 3236.13,2488.13 3238.5,2469.5C 3347.47,2497.28 3447.14,2478.28 3537.5,2412.5 Z"/></g>
<g><path style="opacity:1" fill="#fec0bb" d="M 3541.5,2461.5 C 3545.21,2500.99 3548.54,2540.65 3551.5,2580.5C 3493.58,2613.53 3431.58,2635.36 3365.5,2646C 3324.68,2652.6 3285.01,2648.6 3246.5,2634C 3237.67,2630.14 3229.34,2625.64 3221.5,2620.5C 3224.91,2588.67 3228.57,2557 3232.5,2525.5C 3232.5,2526.83 3232.5,2528.17 3232.5,2529.5C 3263.28,2540.19 3294.94,2547.02 3327.5,2550C 3410.5,2555.04 3481.67,2528.88 3541,2471.5C 3541.5,2468.18 3541.67,2464.85 3541.5,2461.5 Z"/></g>
<g><path style="opacity:1" fill="#f4f9fd" d="M 1341.5,2850.5 C 1341.49,2856.28 1342.32,2861.95 1344,2867.5C 1352.17,2890.02 1368,2903.85 1391.5,2909C 1429.5,2909.5 1467.5,2909.67 1505.5,2909.5C 1502.43,2935.13 1499.6,2960.8 1497,2986.5C 1495.88,2998.47 1495.38,3010.47 1495.5,3022.5C 1498.26,3022.26 1500.43,3020.92 1502,3018.5C 1530.02,2982.96 1557.18,2946.79 1583.5,2910C 1863.5,2909.5 2143.5,2909.33 2423.5,2909.5C 2424.75,2909.58 2425.58,2910.24 2426,2911.5C 2426.67,2931.5 2426.67,2951.5 2426,2971.5C 2420.29,2998.21 2404.13,3014.71 2377.5,3021C 2096.83,3021.33 1816.17,3021.67 1535.5,3022C 1514.6,3049.61 1494.1,3077.44 1474,3105.5C 1466.08,3116.09 1457.41,3126.09 1448,3135.5C 1447.06,3132.24 1446.56,3128.9 1446.5,3125.5C 1449.08,3090.71 1452.74,3056.05 1457.5,3021.5C 1418.83,3021.67 1380.17,3021.5 1341.5,3021C 1316.74,3014.68 1300.91,2999.18 1294,2974.5C 1292.34,2827.53 1292.01,2680.53 1293,2533.5C 1297.57,2505.62 1313.23,2487.95 1340,2480.5C 1340.17,2604 1340.67,2727.33 1341.5,2850.5 Z"/></g>
<g><path style="opacity:1" fill="#fefefe" d="M 1741.5,2489.5 C 1937.83,2489.33 2134.17,2489.5 2330.5,2490C 2331.33,2490.83 2332.17,2491.67 2333,2492.5C 2333.67,2498.83 2333.67,2505.17 2333,2511.5C 2332.5,2513.33 2331.33,2514.5 2329.5,2515C 2133.83,2515.67 1938.17,2515.67 1742.5,2515C 1741.07,2514.53 1739.9,2513.7 1739,2512.5C 1738.33,2505.83 1738.33,2499.17 1739,2492.5C 1740.04,2491.63 1740.88,2490.63 1741.5,2489.5 Z"/></g>
<g><path style="opacity:1" fill="#fefefd" d="M 1522.5,2490.5 C 1586.82,2487.4 1635.65,2513.07 1669,2567.5C 1697.75,2626.3 1692.75,2681.96 1654,2734.5C 1612.78,2780.91 1561.61,2797.74 1500.5,2785C 1439.57,2766.4 1402.74,2725.9 1390,2663.5C 1382.78,2597.82 1406.61,2546.99 1461.5,2511C 1480.66,2500.23 1500.99,2493.39 1522.5,2490.5 Z"/></g>
<g><path style="opacity:1" fill="#08085b" d="M 1616.5,2636.5 C 1614.98,2636.49 1613.82,2635.82 1613,2634.5C 1602.4,2619.87 1593.4,2604.2 1586,2587.5C 1576.73,2598.37 1565.89,2607.2 1553.5,2614C 1543.72,2617.22 1539.89,2613.72 1542,2603.5C 1543.82,2598.87 1545.82,2594.54 1548,2590.5C 1525.39,2610.39 1499.89,2625.56 1471.5,2636C 1468.5,2636.5 1465.5,2637 1462.5,2637.5C 1461.27,2637.48 1460.27,2637.15 1459.5,2636.5C 1454.7,2619.83 1452.87,2602.83 1454,2585.5C 1454.91,2575.08 1459.08,2566.25 1466.5,2559C 1460.83,2558.67 1455.17,2558.33 1449.5,2558C 1446.97,2556.08 1446.97,2554.08 1449.5,2552C 1451.72,2550.72 1454.05,2549.72 1456.5,2549C 1462.2,2548.83 1467.86,2548.33 1473.5,2547.5C 1468.97,2539.71 1466.8,2531.37 1467,2522.5C 1467.74,2521.43 1468.74,2520.76 1470,2520.5C 1472.62,2522.11 1474.95,2524.11 1477,2526.5C 1479.48,2531.59 1482.14,2536.59 1485,2541.5C 1497.96,2533.29 1512.13,2528.46 1527.5,2527C 1541.53,2526.16 1555.53,2526.49 1569.5,2528C 1594.78,2531.54 1610.28,2545.71 1616,2570.5C 1617.94,2578.71 1618.77,2587.05 1618.5,2595.5C 1617.83,2609.17 1617.17,2622.84 1616.5,2636.5 Z"/></g>
<g><path style="opacity:1" fill="#02ccc0" d="M 3448.5,4218.5 C 3468.25,4213.01 3477.09,4200.01 3475,4179.5C 3470.47,4165.46 3460.97,4157.46 3446.5,4155.5C 3401,4154.5 3355.34,4154.17 3309.5,4154.5C 3273.31,4125.48 3236.64,4096.98 3199.5,4069C 3197.95,4067.79 3196.78,4066.29 3196,4064.5C 3184.86,4032.29 3179.7,3999.12 3180.5,3965C 3180.88,3925.56 3185.88,3886.72 3195.5,3848.5C 3352.95,3840.99 3508.95,3821.82 3663.5,3791C 3741.41,3775.11 3817.75,3753.77 3892.5,3727C 3892,3726.83 3891.5,3726.67 3891,3726.5C 3876.28,3730.72 3861.45,3734.39 3846.5,3737.5C 3800.01,3749.37 3753.01,3759.53 3705.5,3768C 3531.4,3798.51 3356.06,3818.68 3179.5,3828.5C 3175.69,3844.74 3172.36,3861.07 3169.5,3877.5C 3051.82,3881.62 2934.16,3886.12 2816.5,3891C 2782.92,3894.2 2749.58,3899.04 2716.5,3905.5C 2698.64,3863.27 2680.98,3820.94 2663.5,3778.5C 2684.53,3724.58 2702.7,3669.58 2718,3613.5C 2768.41,3426.1 2802.08,3235.77 2819,3042.5C 2792.14,3186.67 2762.81,3330.33 2731,3473.5C 2709.4,3568.25 2683.9,3661.92 2654.5,3754.5C 2592.83,3605.82 2531.67,3456.82 2471,3307.5C 2467.4,3300.62 2463.56,3293.95 2459.5,3287.5C 2521.42,3139.98 2586.92,2993.98 2656,2849.5C 2675.3,2810.23 2695.63,2771.57 2717,2733.5C 2727.18,2714.65 2739.68,2697.49 2754.5,2682C 2781.9,2663.47 2811.56,2649.47 2843.5,2640C 2898.33,2622.71 2953.99,2608.71 3010.5,2598C 3063.44,2587.82 3116.61,2578.98 3170,2571.5C 3179.99,2584.5 3191.16,2596.67 3203.5,2608C 3209.35,2612.42 3215.35,2616.59 3221.5,2620.5C 3229.34,2625.64 3237.67,2630.14 3246.5,2634C 3285.01,2648.6 3324.68,2652.6 3365.5,2646C 3431.58,2635.36 3493.58,2613.53 3551.5,2580.5C 3574.77,2568.87 3597.1,2555.7 3618.5,2541C 3746.78,2541.65 3869.78,2567.32 3987.5,2618C 4055.92,2648.43 4116.09,2690.6 4168,2744.5C 4193.99,2775.78 4215.99,2809.78 4234,2846.5C 4274.99,2934.17 4306.65,3025.17 4329,3119.5C 4377.15,3314.77 4395.15,3512.77 4383,3713.5C 4377.26,3795.26 4362.26,3875.26 4338,3953.5C 4317.17,4020.88 4284.5,4081.54 4240,4135.5C 4193.78,4185.37 4139.28,4223.54 4076.5,4250C 4010.48,4276.87 3941.81,4291.87 3870.5,4295C 3789.2,4298.3 3708.87,4290.96 3629.5,4273C 3567.67,4259.33 3507.34,4241.16 3448.5,4218.5 Z"/></g>
<g><path style="opacity:1" fill="#fffcf9" d="M 1742.5,2557.5 C 1786.83,2557.33 1831.17,2557.5 1875.5,2558C 1876.67,2559.17 1877.83,2560.33 1879,2561.5C 1879.67,2567.5 1879.67,2573.5 1879,2579.5C 1878.07,2582.1 1876.23,2583.6 1873.5,2584C 1830.17,2584.67 1786.83,2584.67 1743.5,2584C 1741.71,2583.22 1740.21,2582.05 1739,2580.5C 1738.33,2574.17 1738.33,2567.83 1739,2561.5C 1739.69,2559.65 1740.86,2558.32 1742.5,2557.5 Z"/></g>
<g><path style="opacity:1" fill="#fffcf9" d="M 1935.5,2557.5 C 2066.83,2557.33 2198.17,2557.5 2329.5,2558C 2333.03,2561.5 2334.37,2565.83 2333.5,2571C 2333.33,2574.17 2333.17,2577.33 2333,2580.5C 2331.68,2582.49 2329.85,2583.65 2327.5,2584C 2196.83,2584.67 2066.17,2584.67 1935.5,2584C 1931.97,2580.5 1930.63,2576.17 1931.5,2571C 1930.65,2565.68 1931.98,2561.18 1935.5,2557.5 Z"/></g>
<g><path style="opacity:1" fill="#febfbb" d="M 1616.5,2636.5 C 1623.8,2634.27 1630.3,2635.61 1636,2640.5C 1641.86,2653.21 1639.7,2664.38 1629.5,2674C 1623.96,2677.3 1617.96,2678.3 1611.5,2677C 1610.07,2676.53 1608.9,2675.7 1608,2674.5C 1602.89,2702.42 1587.39,2721.75 1561.5,2732.5C 1547.03,2736.98 1532.36,2737.65 1517.5,2734.5C 1490.25,2724.08 1473.58,2704.58 1467.5,2676C 1454.13,2680.43 1444.3,2676.26 1438,2663.5C 1435.68,2655.99 1436.01,2648.66 1439,2641.5C 1444.72,2635.59 1451.55,2633.92 1459.5,2636.5C 1460.27,2637.15 1461.27,2637.48 1462.5,2637.5C 1465.5,2637 1468.5,2636.5 1471.5,2636C 1499.89,2625.56 1525.39,2610.39 1548,2590.5C 1545.82,2594.54 1543.82,2598.87 1542,2603.5C 1539.89,2613.72 1543.72,2617.22 1553.5,2614C 1565.89,2607.2 1576.73,2598.37 1586,2587.5C 1593.4,2604.2 1602.4,2619.87 1613,2634.5C 1613.82,2635.82 1614.98,2636.49 1616.5,2636.5 Z"/></g>
<g><path style="opacity:1" fill="#fefefe" d="M 1741.5,2626.5 C 1842.17,2626.33 1942.83,2626.5 2043.5,2627C 2044,2627.5 2044.5,2628 2045,2628.5C 2045.67,2635.5 2045.67,2642.5 2045,2649.5C 2044.1,2650.7 2042.93,2651.53 2041.5,2652C 1941.83,2652.67 1842.17,2652.67 1742.5,2652C 1740.67,2651.5 1739.5,2650.33 1739,2648.5C 1738.33,2642.17 1738.33,2635.83 1739,2629.5C 1740.04,2628.63 1740.88,2627.63 1741.5,2626.5 Z"/></g>
<g><path style="opacity:1" fill="#fefefe" d="M 2093.5,2626.5 C 2172.5,2626.33 2251.5,2626.5 2330.5,2627C 2331.33,2627.83 2332.17,2628.67 2333,2629.5C 2333.67,2635.83 2333.67,2642.17 2333,2648.5C 2332.35,2650.72 2330.85,2651.89 2328.5,2652C 2250.5,2652.67 2172.5,2652.67 2094.5,2652C 2092.67,2651.5 2091.5,2650.33 2091,2648.5C 2090.33,2642.17 2090.33,2635.83 2091,2629.5C 2092.04,2628.63 2092.88,2627.63 2093.5,2626.5 Z"/></g>
<g><path style="opacity:1" fill="#fefcfb" d="M 1551.5,2687.5 C 1556.54,2687.17 1561.54,2687.51 1566.5,2688.5C 1561.43,2698.96 1552.93,2703.96 1541,2703.5C 1530.01,2703.99 1522.17,2699.32 1517.5,2689.5C 1528.99,2688.83 1540.33,2688.17 1551.5,2687.5 Z"/></g>
<g><path style="opacity:1" fill="#fffefd" d="M 1741.5,2694.5 C 1937.5,2694.33 2133.5,2694.5 2329.5,2695C 2331.33,2695.5 2332.5,2696.67 2333,2698.5C 2333.67,2704.5 2333.67,2710.5 2333,2716.5C 2332.53,2717.93 2331.7,2719.1 2330.5,2720C 2134.17,2720.67 1937.83,2720.67 1741.5,2720C 1740.67,2719.17 1739.83,2718.33 1739,2717.5C 1738.33,2711.17 1738.33,2704.83 1739,2698.5C 1739.66,2697.02 1740.5,2695.68 1741.5,2694.5 Z"/></g>
<g><path style="opacity:1" fill="#f99993" d="M 1561.5,2732.5 C 1561.5,2735.5 1561.5,2738.5 1561.5,2741.5C 1546.52,2744.76 1531.85,2743.76 1517.5,2738.5C 1517.5,2737.17 1517.5,2735.83 1517.5,2734.5C 1532.36,2737.65 1547.03,2736.98 1561.5,2732.5 Z"/></g>
<g><path style="opacity:1" fill="#febfba" d="M 1517.5,2738.5 C 1531.85,2743.76 1546.52,2744.76 1561.5,2741.5C 1561.5,2747.17 1561.5,2752.83 1561.5,2758.5C 1546.83,2758.5 1532.17,2758.5 1517.5,2758.5C 1517.5,2751.83 1517.5,2745.17 1517.5,2738.5 Z"/></g>
<g><path style="opacity:1" fill="#fcfefd" d="M 2663.5,3778.5 C 2660.49,3770.49 2657.49,3762.49 2654.5,3754.5C 2683.9,3661.92 2709.4,3568.25 2731,3473.5C 2762.81,3330.33 2792.14,3186.67 2819,3042.5C 2802.08,3235.77 2768.41,3426.1 2718,3613.5C 2702.7,3669.58 2684.53,3724.58 2663.5,3778.5 Z"/></g>
<g><path style="opacity:1" fill="#fcfefd" d="M 3846.5,3737.5 C 3827.42,3698.08 3813.58,3656.75 3805,3613.5C 3794.21,3560.71 3787.87,3507.37 3786,3453.5C 3780.46,3326.64 3790.12,3200.97 3815,3076.5C 3810.92,3154.1 3807.92,3231.77 3806,3309.5C 3803.22,3407.13 3807.22,3504.46 3818,3601.5C 3823.6,3647.67 3833.1,3693 3846.5,3737.5 Z"/></g>
<g><path style="opacity:1" fill="#fe5d7f" d="M 1000.5,3091.5 C 1002.84,3105.54 1008.01,3118.54 1016,3130.5C 1023.5,3140.33 1033.34,3146.49 1045.5,3149C 1025.87,3154.63 1012.7,3167.13 1006,3186.5C 1004.02,3192.42 1002.35,3198.42 1001,3204.5C 997.77,3184.52 988.27,3168.36 972.5,3156C 966.153,3152.48 959.486,3150.15 952.5,3149C 972.846,3146 986.679,3134.83 994,3115.5C 997.092,3107.73 999.259,3099.73 1000.5,3091.5 Z"/></g>
<g><path style="opacity:1" fill="#07085b" d="M 2459.5,3287.5 C 2463.56,3293.95 2467.4,3300.62 2471,3307.5C 2531.67,3456.82 2592.83,3605.82 2654.5,3754.5C 2657.49,3762.49 2660.49,3770.49 2663.5,3778.5C 2680.98,3820.94 2698.64,3863.27 2716.5,3905.5C 2718.6,3912.47 2721.26,3919.14 2724.5,3925.5C 2727.44,3933.99 2730.77,3942.32 2734.5,3950.5C 2736.83,3956.5 2739.17,3962.5 2741.5,3968.5C 2747.46,3983.4 2753.79,3998.07 2760.5,4012.5C 2763.37,4021.9 2767.04,4030.9 2771.5,4039.5C 2776.73,4054.88 2782.73,4069.88 2789.5,4084.5C 2791.93,4091.02 2794.6,4097.35 2797.5,4103.5C 2804.36,4120.75 2811.03,4138.09 2817.5,4155.5C 3027.17,4155.5 3236.83,4155.5 3446.5,4155.5C 3460.97,4157.46 3470.47,4165.46 3475,4179.5C 3477.09,4200.01 3468.25,4213.01 3448.5,4218.5C 2840.83,4218.67 2233.17,4218.5 1625.5,4218C 1593.82,4212.4 1571.32,4194.9 1558,4165.5C 1436.98,3895.47 1315.98,3625.47 1195,3355.5C 1181.92,3319.32 1190.75,3289.82 1221.5,3267C 1229.5,3262 1238.17,3258.67 1247.5,3257C 1633.5,3256.33 2019.5,3256.33 2405.5,3257C 2427.03,3261.05 2445.03,3271.22 2459.5,3287.5 Z"/></g>
<g><path style="opacity:1" fill="#fefefe" d="M 1872.5,3642.5 C 1898.79,3640.87 1920.29,3650.2 1937,3670.5C 1967.34,3710.95 1973.01,3754.62 1954,3801.5C 1932.88,3836.65 1904.05,3844.82 1867.5,3826C 1842.17,3806.63 1826.67,3781.13 1821,3749.5C 1815.39,3719.58 1820.72,3691.91 1837,3666.5C 1846.32,3654.66 1858.16,3646.66 1872.5,3642.5 Z"/></g>
<g><path style="opacity:1" fill="#fcfefd" d="M 3309.5,4154.5 C 3307.41,4153.96 3305.41,4153.12 3303.5,4152C 3265.17,4126.33 3226.83,4100.67 3188.5,4075C 3183.88,4066.59 3180.21,4057.75 3177.5,4048.5C 3166.07,4010.05 3161.57,3970.72 3164,3930.5C 3164.79,3912.71 3166.62,3895.05 3169.5,3877.5C 3172.36,3861.07 3175.69,3844.74 3179.5,3828.5C 3356.06,3818.68 3531.4,3798.51 3705.5,3768C 3753.01,3759.53 3800.01,3749.37 3846.5,3737.5C 3861.45,3734.39 3876.28,3730.72 3891,3726.5C 3891.5,3726.67 3892,3726.83 3892.5,3727C 3817.75,3753.77 3741.41,3775.11 3663.5,3791C 3508.95,3821.82 3352.95,3840.99 3195.5,3848.5C 3185.88,3886.72 3180.88,3925.56 3180.5,3965C 3179.7,3999.12 3184.86,4032.29 3196,4064.5C 3196.78,4066.29 3197.95,4067.79 3199.5,4069C 3236.64,4096.98 3273.31,4125.48 3309.5,4154.5 Z"/></g>
<g><path style="opacity:1" fill="#fec0bb" d="M 3169.5,3877.5 C 3166.62,3895.05 3164.79,3912.71 3164,3930.5C 3161.57,3970.72 3166.07,4010.05 3177.5,4048.5C 3113.17,4051.93 3048.83,4055.43 2984.5,4059C 2961.77,4060.29 2939.1,4062.29 2916.5,4065C 2903.98,4067.21 2891.64,4070.21 2879.5,4074C 2851.81,4083.02 2824.48,4092.85 2797.5,4103.5C 2794.6,4097.35 2791.93,4091.02 2789.5,4084.5C 2811.43,4075.06 2831.09,4062.23 2848.5,4046C 2853.41,4041.76 2857.58,4036.92 2861,4031.5C 2862.28,4026 2860.78,4021.5 2856.5,4018C 2827.93,4024.06 2799.6,4031.23 2771.5,4039.5C 2767.04,4030.9 2763.37,4021.9 2760.5,4012.5C 2783.64,4007.21 2806.31,4000.38 2828.5,3992C 2833.76,3989.46 2838.59,3986.29 2843,3982.5C 2844.59,3975.19 2842.42,3969.36 2836.5,3965C 2804.73,3963.65 2773.06,3964.82 2741.5,3968.5C 2739.17,3962.5 2736.83,3956.5 2734.5,3950.5C 2765.14,3945.31 2795.64,3939.64 2826,3933.5C 2828.57,3928.62 2827.74,3924.46 2823.5,3921C 2804.51,3919.11 2785.51,3919.11 2766.5,3921C 2752.52,3922.76 2738.52,3924.26 2724.5,3925.5C 2721.26,3919.14 2718.6,3912.47 2716.5,3905.5C 2749.58,3899.04 2782.92,3894.2 2816.5,3891C 2934.16,3886.12 3051.82,3881.62 3169.5,3877.5 Z"/></g>
<g><path style="opacity:1" fill="#17cbbf" d="M 2734.5,3950.5 C 2730.77,3942.32 2727.44,3933.99 2724.5,3925.5C 2738.52,3924.26 2752.52,3922.76 2766.5,3921C 2785.51,3919.11 2804.51,3919.11 2823.5,3921C 2827.74,3924.46 2828.57,3928.62 2826,3933.5C 2795.64,3939.64 2765.14,3945.31 2734.5,3950.5 Z"/></g>
<g><path style="opacity:1" fill="#0dcbbf" d="M 2760.5,4012.5 C 2753.79,3998.07 2747.46,3983.4 2741.5,3968.5C 2773.06,3964.82 2804.73,3963.65 2836.5,3965C 2842.42,3969.36 2844.59,3975.19 2843,3982.5C 2838.59,3986.29 2833.76,3989.46 2828.5,3992C 2806.31,4000.38 2783.64,4007.21 2760.5,4012.5 Z"/></g>
<g><path style="opacity:1" fill="#0fcbbf" d="M 2789.5,4084.5 C 2782.73,4069.88 2776.73,4054.88 2771.5,4039.5C 2799.6,4031.23 2827.93,4024.06 2856.5,4018C 2860.78,4021.5 2862.28,4026 2861,4031.5C 2857.58,4036.92 2853.41,4041.76 2848.5,4046C 2831.09,4062.23 2811.43,4075.06 2789.5,4084.5 Z"/></g>
<g><path style="opacity:1" fill="#06cabf" d="M 3177.5,4048.5 C 3180.21,4057.75 3183.88,4066.59 3188.5,4075C 3226.83,4100.67 3265.17,4126.33 3303.5,4152C 3305.41,4153.12 3307.41,4153.96 3309.5,4154.5C 3355.34,4154.17 3401,4154.5 3446.5,4155.5C 3236.83,4155.5 3027.17,4155.5 2817.5,4155.5C 2811.03,4138.09 2804.36,4120.75 2797.5,4103.5C 2824.48,4092.85 2851.81,4083.02 2879.5,4074C 2891.64,4070.21 2903.98,4067.21 2916.5,4065C 2939.1,4062.29 2961.77,4060.29 2984.5,4059C 3048.83,4055.43 3113.17,4051.93 3177.5,4048.5 Z"/></g>
</svg>
