<?xml version="1.0" encoding="UTF-8"?>
<!DOCTYPE svg PUBLIC "-//W3C//DTD SVG 1.1//EN" "http://www.w3.org/Graphics/SVG/1.1/DTD/svg11.dtd">
<svg xmlns="http://www.w3.org/2000/svg" version="1.1" width="8000px" height="4312px" style="shape-rendering:geometricPrecision; text-rendering:geometricPrecision; image-rendering:optimizeQuality; fill-rule:evenodd; clip-rule:evenodd" xmlns:xlink="http://www.w3.org/1999/xlink">
<g><path style="opacity:0.227" fill="#fefefe" d="M -0.5,-0.5 C 2666.17,-0.5 5332.83,-0.5 7999.5,-0.5C 7999.5,1436.83 7999.5,2874.17 7999.5,4311.5C 5332.83,4311.5 2666.17,4311.5 -0.5,4311.5C -0.5,2874.17 -0.5,1436.83 -0.5,-0.5 Z"/></g>
<g><path style="opacity:1" fill="#fae0b3" d="M 3279.5,353.5 C 3443.64,349.382 3606.31,362.549 3767.5,393C 3878.76,414.305 3986.1,447.639 4089.5,493C 4129.62,512.395 4168.29,534.395 4205.5,559C 4243.83,585.66 4277.33,617.493 4306,654.5C 4326.15,682.472 4339.48,713.472 4346,747.5C 4350.76,781.969 4346.76,815.302 4334,847.5C 4320.16,879.654 4301.16,908.321 4277,933.5C 4246.38,964.456 4212.55,991.29 4175.5,1014C 4106.59,1054.78 4033.92,1087.45 3957.5,1112C 3804.51,1159.26 3647.84,1187.26 3487.5,1196C 3390.11,1202.66 3292.78,1201.99 3195.5,1194C 3037.09,1180.37 2879.75,1159.2 2723.5,1130.5C 2625.19,1164.32 2527.19,1198.82 2429.5,1234C 2425.58,1235.65 2421.58,1236.65 2417.5,1237C 2462.63,1177.22 2507.63,1117.39 2552.5,1057.5C 2512.79,1039.28 2475.46,1017.11 2440.5,991C 2406.14,963.626 2378.64,930.459 2358,891.5C 2334.19,841.845 2326.85,789.845 2336,735.5C 2342.05,712.077 2351.38,690.077 2364,669.5C 2391.75,629.083 2425.58,594.583 2465.5,566C 2533.35,519.241 2606.35,482.241 2684.5,455C 2808.63,412.571 2935.97,383.904 3066.5,369C 3137.45,361.046 3208.45,355.88 3279.5,353.5 Z"/></g>
<g><path style="opacity:1" fill="#fae0b3" d="M 6545.5,423.5 C 6663.56,419.666 6777.56,438.833 6887.5,481C 6949.03,506.082 7004.37,540.749 7053.5,585C 7086.05,616.215 7111.55,652.382 7130,693.5C 7158.57,768.3 7153.9,840.966 7116,911.5C 7091.71,953.134 7060.88,989.301 7023.5,1020C 6962.37,1067.41 6894.7,1103.07 6820.5,1127C 6712.66,1161.1 6602.33,1173.44 6489.5,1164C 6409.24,1155.51 6330.24,1140.84 6252.5,1120C 6229.24,1113.27 6206.24,1105.77 6183.5,1097.5C 6130.03,1114.53 6076.7,1131.53 6023.5,1148.5C 6022.48,1148 6022.31,1147.33 6023,1146.5C 6051.38,1114.29 6079.55,1081.96 6107.5,1049.5C 6076.64,1030.48 6051.14,1005.81 6031,975.5C 5985.48,901.707 5972.15,822.374 5991,737.5C 6005.1,691.272 6028.43,650.606 6061,615.5C 6101.8,572.682 6148.3,537.515 6200.5,510C 6282.58,468.972 6369.25,442.639 6460.5,431C 6488.92,427.7 6517.25,425.2 6545.5,423.5 Z"/></g>
<g><path style="opacity:1" fill="#184655" d="M 5845.5,1973.5 C 5838.83,1947.84 5832.17,1922.17 5825.5,1896.5C 5827.5,1896.5 5829.5,1896.5 5831.5,1896.5C 5831.05,1882.49 5830.39,1868.49 5829.5,1854.5C 5829.27,1838.97 5828.27,1823.63 5826.5,1808.5C 5823.67,1747.57 5816.17,1687.23 5804,1627.5C 5794.32,1584.59 5770.82,1551.76 5733.5,1529C 5720.47,1521.6 5706.47,1517.77 5691.5,1517.5C 5657.16,1508.16 5622.16,1504.16 5586.5,1505.5C 5583.85,1501.54 5581.69,1497.2 5580,1492.5C 5568.41,1454.49 5558.58,1416.15 5550.5,1377.5C 5550.5,1376.83 5550.5,1376.17 5550.5,1375.5C 5550.35,1374.45 5550.52,1373.45 5551,1372.5C 5570.29,1351.91 5582.13,1327.58 5586.5,1299.5C 5596.73,1299.47 5604.56,1295.14 5610,1286.5C 5619.5,1270.1 5620.84,1253.1 5614,1235.5C 5607.15,1224.22 5597.99,1221.72 5586.5,1228C 5578.56,1228.47 5571.22,1226.47 5564.5,1222C 5553.79,1214.96 5543.96,1206.8 5535,1197.5C 5513.99,1173.99 5495.49,1148.66 5479.5,1121.5C 5418.27,1117.9 5384.44,1146.57 5378,1207.5C 5377.18,1221.74 5377.34,1235.91 5378.5,1250C 5373.29,1248.75 5367.96,1248.42 5362.5,1249C 5358.7,1251.09 5356.2,1254.25 5355,1258.5C 5353,1278.66 5359.5,1295.5 5374.5,1309C 5378.69,1311.85 5383.19,1314.01 5388,1315.5C 5396.13,1343.28 5410.97,1366.78 5432.5,1386C 5438.87,1391.19 5445.87,1395.35 5453.5,1398.5C 5457.29,1418.13 5460.96,1437.8 5464.5,1457.5C 5469.24,1479.4 5473.57,1501.4 5477.5,1523.5C 5463.85,1525.75 5450.52,1529.25 5437.5,1534C 5432.27,1536.11 5427.6,1538.94 5423.5,1542.5C 5412.72,1548.76 5403.22,1556.76 5395,1566.5C 5384.51,1578.82 5375.01,1591.82 5366.5,1605.5C 5353.74,1563.81 5341.57,1521.81 5330,1479.5C 5323.87,1452.07 5319.04,1424.4 5315.5,1396.5C 5315.56,1391.27 5314.89,1386.27 5313.5,1381.5C 5312.83,1369.17 5312.17,1356.83 5311.5,1344.5C 5311.4,1319.83 5311.73,1295.16 5312.5,1270.5C 5313.31,1211.95 5331.81,1159.95 5368,1114.5C 5420.5,1055.93 5483.66,1040.43 5557.5,1068C 5612.09,1093.59 5653.25,1133.09 5681,1186.5C 5693.88,1212.93 5706.21,1239.59 5718,1266.5C 5729.89,1293.31 5744.56,1318.31 5762,1341.5C 5779.32,1362.26 5801.15,1376.09 5827.5,1383C 5841.12,1386.82 5854.78,1390.49 5868.5,1394C 5892.04,1398.03 5915.37,1403.03 5938.5,1409C 5964.03,1414.94 5987.03,1425.94 6007.5,1442C 6066.41,1495.17 6095.41,1561.67 6094.5,1641.5C 6094.1,1737.21 6064.27,1822.21 6005,1896.5C 5992.4,1912.2 5977.23,1924.7 5959.5,1934C 5923.28,1952.39 5885.28,1965.55 5845.5,1973.5 Z"/></g>
<g><path style="opacity:1" fill="#f6a391" d="M 5550.5,1375.5 C 5549.88,1375.39 5549.38,1375.06 5549,1374.5C 5528.75,1395.88 5503.92,1406.04 5474.5,1405C 5467.09,1403.9 5460.09,1401.74 5453.5,1398.5C 5445.87,1395.35 5438.87,1391.19 5432.5,1386C 5410.97,1366.78 5396.13,1343.28 5388,1315.5C 5383.19,1314.01 5378.69,1311.85 5374.5,1309C 5359.5,1295.5 5353,1278.66 5355,1258.5C 5356.2,1254.25 5358.7,1251.09 5362.5,1249C 5367.96,1248.42 5373.29,1248.75 5378.5,1250C 5377.34,1235.91 5377.18,1221.74 5378,1207.5C 5384.44,1146.57 5418.27,1117.9 5479.5,1121.5C 5495.49,1148.66 5513.99,1173.99 5535,1197.5C 5543.96,1206.8 5553.79,1214.96 5564.5,1222C 5571.22,1226.47 5578.56,1228.47 5586.5,1228C 5597.99,1221.72 5607.15,1224.22 5614,1235.5C 5620.84,1253.1 5619.5,1270.1 5610,1286.5C 5604.56,1295.14 5596.73,1299.47 5586.5,1299.5C 5582.13,1327.58 5570.29,1351.91 5551,1372.5C 5550.52,1373.45 5550.35,1374.45 5550.5,1375.5 Z"/></g>
<g><path style="opacity:1" fill="#577883" d="M 5312.5,1270.5 C 5311.73,1295.16 5311.4,1319.83 5311.5,1344.5C 5310.83,1335.34 5310.5,1326.01 5310.5,1316.5C 5310.38,1300.97 5311.05,1285.64 5312.5,1270.5 Z"/></g>
<g><path style="opacity:1" fill="#f47457" d="M 5550.5,1375.5 C 5550.5,1376.17 5550.5,1376.83 5550.5,1377.5C 5538.12,1414.05 5514.12,1439.88 5478.5,1455C 5473.9,1456.29 5469.24,1457.12 5464.5,1457.5C 5460.96,1437.8 5457.29,1418.13 5453.5,1398.5C 5460.09,1401.74 5467.09,1403.9 5474.5,1405C 5503.92,1406.04 5528.75,1395.88 5549,1374.5C 5549.38,1375.06 5549.88,1375.39 5550.5,1375.5 Z"/></g>
<g><path style="opacity:1" fill="#f6a391" d="M 5550.5,1377.5 C 5558.58,1416.15 5568.41,1454.49 5580,1492.5C 5581.69,1497.2 5583.85,1501.54 5586.5,1505.5C 5588.89,1521.62 5585.72,1536.62 5577,1550.5C 5557.42,1584.76 5528.92,1607.92 5491.5,1620C 5481.2,1621.39 5470.87,1621.73 5460.5,1621C 5459.33,1619.17 5458.17,1617.33 5457,1615.5C 5456.34,1607.46 5456.67,1599.46 5458,1591.5C 5464.81,1568.91 5471.31,1546.24 5477.5,1523.5C 5473.57,1501.4 5469.24,1479.4 5464.5,1457.5C 5469.24,1457.12 5473.9,1456.29 5478.5,1455C 5514.12,1439.88 5538.12,1414.05 5550.5,1377.5 Z"/></g>
<g><path style="opacity:1" fill="#a3b5bb" d="M 5313.5,1381.5 C 5314.89,1386.27 5315.56,1391.27 5315.5,1396.5C 5314.11,1391.73 5313.44,1386.73 5313.5,1381.5 Z"/></g>
<g><path style="opacity:1" fill="#b75741" d="M 2247.5,1759.5 C 2246.05,1765.27 2245.39,1771.27 2245.5,1777.5C 2241.82,1811.58 2237.32,1845.58 2232,1879.5C 2229.6,1887.54 2227.1,1895.54 2224.5,1903.5C 2208.89,1899.61 2193.22,1895.78 2177.5,1892C 2162.76,1889.48 2148.09,1886.65 2133.5,1883.5C 2132.08,1882.55 2130.41,1882.22 2128.5,1882.5C 2131.47,1837.14 2134.8,1791.81 2138.5,1746.5C 2139.45,1745.08 2139.78,1743.41 2139.5,1741.5C 2165.57,1724.9 2182.74,1701.57 2191,1671.5C 2193.89,1660.01 2195.73,1648.34 2196.5,1636.5C 2208.6,1627.88 2216.1,1616.22 2219,1601.5C 2219.67,1595.5 2219.67,1589.5 2219,1583.5C 2213.77,1570.72 2205.27,1568.05 2193.5,1575.5C 2189.38,1552.65 2181.22,1531.32 2169,1511.5C 2153.35,1489.91 2132.18,1477.41 2105.5,1474C 2097.5,1473.33 2089.5,1473.33 2081.5,1474C 2064.43,1511.67 2042.93,1546.5 2017,1578.5C 2007.03,1590 1994.86,1598 1980.5,1602.5C 1980.83,1609.53 1980.5,1616.53 1979.5,1623.5C 1968.83,1621.26 1961.33,1625.26 1957,1635.5C 1953.2,1652.75 1956.87,1668.09 1968,1681.5C 1971.58,1684.37 1975.41,1686.87 1979.5,1689C 1982.83,1689.67 1986.17,1689.67 1989.5,1689C 1992.28,1687.47 1994.95,1686.14 1997.5,1685C 2006.83,1701.49 2018.83,1715.65 2033.5,1727.5C 2032.86,1736.21 2031.86,1744.88 2030.5,1753.5C 2026.2,1788.79 2022.03,1824.12 2018,1859.5C 2016.51,1865.45 2015.34,1871.45 2014.5,1877.5C 1982.84,1879.61 1951.17,1881.78 1919.5,1884C 1917.29,1884.19 1915.29,1884.69 1913.5,1885.5C 1903.1,1886.52 1892.77,1888.02 1882.5,1890C 1799.45,1914.81 1715.95,1937.98 1632,1959.5C 1631.62,1958.94 1631.12,1958.61 1630.5,1958.5C 1597.65,1850.2 1626.99,1763.04 1718.5,1697C 1728,1690.75 1737.67,1684.75 1747.5,1679C 1777.43,1665.04 1806.09,1649.04 1833.5,1631C 1862.17,1610.67 1885.67,1585.5 1904,1555.5C 1912.96,1537.95 1922.29,1520.62 1932,1503.5C 1948.02,1478.72 1969.85,1460.88 1997.5,1450C 2022.38,1439.11 2048.38,1433.28 2075.5,1432.5C 2141.81,1434.88 2190.98,1464.88 2223,1522.5C 2232.39,1542 2239.39,1562.34 2244,1583.5C 2246.34,1596.51 2248.67,1609.51 2251,1622.5C 2252.54,1641.47 2252.87,1660.47 2252,1679.5C 2250.98,1706.21 2249.48,1732.88 2247.5,1759.5 Z"/></g>
<g><path style="opacity:1" fill="#f6a491" d="M 2449.5,1993.5 C 2446.03,1956.21 2440.7,1919.21 2433.5,1882.5C 2468.56,1873.98 2503.56,1865.15 2538.5,1856C 2539.1,1854.94 2539.43,1853.77 2539.5,1852.5C 2532.37,1823.64 2523.53,1795.31 2513,1767.5C 2496.13,1723.09 2478.13,1679.09 2459,1635.5C 2453.74,1631.9 2448.24,1628.73 2442.5,1626C 2415.46,1614.31 2389.12,1601.31 2363.5,1587C 2362,1585.5 2360.5,1584 2359,1582.5C 2358.41,1581.1 2358.57,1579.77 2359.5,1578.5C 2363.12,1577.34 2366.79,1577.17 2370.5,1578C 2383.78,1582.54 2397.12,1586.87 2410.5,1591C 2414.04,1591.85 2417.38,1591.35 2420.5,1589.5C 2421.66,1584.2 2421.83,1578.86 2421,1573.5C 2411.46,1541.02 2401.46,1508.69 2391,1476.5C 2389.01,1469.64 2388.18,1462.64 2388.5,1455.5C 2390.65,1455.37 2392.65,1455.87 2394.5,1457C 2396.33,1459.5 2398.17,1462 2400,1464.5C 2407.92,1481.25 2415.25,1498.25 2422,1515.5C 2423.96,1519.79 2426.63,1523.46 2430,1526.5C 2430.95,1526.09 2431.61,1525.43 2432,1524.5C 2432.67,1521.17 2432.67,1517.83 2432,1514.5C 2426.97,1493 2422.81,1471.33 2419.5,1449.5C 2419.53,1447.24 2419.87,1445.07 2420.5,1443C 2421.83,1442.33 2423.17,1442.33 2424.5,1443C 2427.61,1446.06 2430.11,1449.56 2432,1453.5C 2437.84,1470.69 2443.17,1488.02 2448,1505.5C 2449.27,1509.64 2451.1,1513.48 2453.5,1517C 2455.11,1517.66 2456.27,1517.16 2457,1515.5C 2457.17,1512.17 2457.33,1508.83 2457.5,1505.5C 2456,1490.18 2454.67,1474.85 2453.5,1459.5C 2453.67,1455.5 2453.83,1451.5 2454,1447.5C 2456.39,1441.32 2459.39,1440.98 2463,1446.5C 2468.75,1466.65 2473.75,1486.98 2478,1507.5C 2478.98,1510.1 2480.14,1512.6 2481.5,1515C 2484.53,1516.14 2486.69,1515.31 2488,1512.5C 2491.46,1498.85 2494.8,1485.19 2498,1471.5C 2500.63,1468.81 2502.97,1469.14 2505,1472.5C 2503.48,1494.13 2502.82,1515.79 2503,1537.5C 2506.98,1555.37 2510.31,1573.37 2513,1591.5C 2515.29,1601.36 2518.95,1610.69 2524,1619.5C 2562.67,1674.82 2598.34,1732.15 2631,1791.5C 2644.12,1815.82 2655.12,1841.16 2664,1867.5C 2667.63,1879.26 2669.29,1891.26 2669,1903.5C 2667.71,1911.92 2663.55,1918.42 2656.5,1923C 2637.98,1933.59 2618.65,1942.59 2598.5,1950C 2549.5,1966.61 2499.83,1981.11 2449.5,1993.5 Z"/></g>
<g><path style="opacity:1" fill="#f6a391" d="M 2139.5,1741.5 C 2111.56,1754.9 2083.56,1754.73 2055.5,1741C 2048.26,1736.25 2040.93,1731.75 2033.5,1727.5C 2018.83,1715.65 2006.83,1701.49 1997.5,1685C 1994.95,1686.14 1992.28,1687.47 1989.5,1689C 1986.17,1689.67 1982.83,1689.67 1979.5,1689C 1975.41,1686.87 1971.58,1684.37 1968,1681.5C 1956.87,1668.09 1953.2,1652.75 1957,1635.5C 1961.33,1625.26 1968.83,1621.26 1979.5,1623.5C 1980.5,1616.53 1980.83,1609.53 1980.5,1602.5C 1994.86,1598 2007.03,1590 2017,1578.5C 2042.93,1546.5 2064.43,1511.67 2081.5,1474C 2089.5,1473.33 2097.5,1473.33 2105.5,1474C 2132.18,1477.41 2153.35,1489.91 2169,1511.5C 2181.22,1531.32 2189.38,1552.65 2193.5,1575.5C 2205.27,1568.05 2213.77,1570.72 2219,1583.5C 2219.67,1589.5 2219.67,1595.5 2219,1601.5C 2216.1,1616.22 2208.6,1627.88 2196.5,1636.5C 2195.73,1648.34 2193.89,1660.01 2191,1671.5C 2182.74,1701.57 2165.57,1724.9 2139.5,1741.5 Z"/></g>
<g><path style="opacity:1" fill="#f6cb7e" d="M 5586.5,1505.5 C 5622.16,1504.16 5657.16,1508.16 5691.5,1517.5C 5669.91,1519.74 5655.07,1531.07 5647,1551.5C 5642.99,1563.52 5640.66,1575.85 5640,1588.5C 5639.22,1634.99 5641.55,1681.32 5647,1727.5C 5654.02,1785.09 5662.52,1842.42 5672.5,1899.5C 5674.17,1899.5 5675.83,1899.5 5677.5,1899.5C 5669.37,1925.69 5661.7,1952.02 5654.5,1978.5C 5646.63,2000.96 5640.13,2023.96 5635,2047.5C 5634.33,2055.5 5634.33,2063.5 5635,2071.5C 5638.64,2093.7 5643.31,2115.7 5649,2137.5C 5655.18,2156.37 5661.18,2175.37 5667,2194.5C 5682.97,2239.09 5699.47,2283.42 5716.5,2327.5C 5712.05,2327.63 5707.71,2328.3 5703.5,2329.5C 5626.28,2341.76 5548.61,2349.92 5470.5,2354C 5433.38,2355.59 5396.38,2354.26 5359.5,2350C 5351.38,2348.47 5343.38,2346.64 5335.5,2344.5C 5331.18,2343.17 5326.84,2341.84 5322.5,2340.5C 5318.77,2338.8 5315.1,2336.8 5311.5,2334.5C 5311.17,2329.33 5310.83,2324.17 5310.5,2319C 5312.36,2272.18 5313.69,2225.35 5314.5,2178.5C 5317.47,2086.23 5320.47,1993.89 5323.5,1901.5C 5325.33,1862.95 5327.83,1824.28 5331,1785.5C 5351.71,1712.35 5377.38,1641.02 5408,1571.5C 5412.67,1561.49 5417.84,1551.82 5423.5,1542.5C 5427.6,1538.94 5432.27,1536.11 5437.5,1534C 5450.52,1529.25 5463.85,1525.75 5477.5,1523.5C 5471.31,1546.24 5464.81,1568.91 5458,1591.5C 5456.67,1599.46 5456.34,1607.46 5457,1615.5C 5458.17,1617.33 5459.33,1619.17 5460.5,1621C 5470.87,1621.73 5481.2,1621.39 5491.5,1620C 5528.92,1607.92 5557.42,1584.76 5577,1550.5C 5585.72,1536.62 5588.89,1521.62 5586.5,1505.5 Z"/></g>
<g><path style="opacity:1" fill="#fadfb2" d="M 5691.5,1517.5 C 5706.47,1517.77 5720.47,1521.6 5733.5,1529C 5770.82,1551.76 5794.32,1584.59 5804,1627.5C 5816.17,1687.23 5823.67,1747.57 5826.5,1808.5C 5826.67,1812.85 5826.5,1817.18 5826,1821.5C 5825.67,1820.5 5825.33,1819.5 5825,1818.5C 5824.49,1820.83 5825.16,1822.83 5827,1824.5C 5827.35,1834.69 5828.18,1844.69 5829.5,1854.5C 5830.39,1868.49 5831.05,1882.49 5831.5,1896.5C 5829.5,1896.5 5827.5,1896.5 5825.5,1896.5C 5779.99,1896.89 5734.66,1897.89 5689.5,1899.5C 5685.5,1899.5 5681.5,1899.5 5677.5,1899.5C 5675.83,1899.5 5674.17,1899.5 5672.5,1899.5C 5662.52,1842.42 5654.02,1785.09 5647,1727.5C 5641.55,1681.32 5639.22,1634.99 5640,1588.5C 5640.66,1575.85 5642.99,1563.52 5647,1551.5C 5655.07,1531.07 5669.91,1519.74 5691.5,1517.5 Z"/></g>
<g><path style="opacity:1" fill="#f47457" d="M 5423.5,1542.5 C 5417.84,1551.82 5412.67,1561.49 5408,1571.5C 5377.38,1641.02 5351.71,1712.35 5331,1785.5C 5327.83,1824.28 5325.33,1862.95 5323.5,1901.5C 5311.5,1898.04 5299.5,1894.7 5287.5,1891.5C 5283.89,1890.51 5280.22,1889.68 5276.5,1889C 5285.86,1811.22 5305.69,1736.05 5336,1663.5C 5344.89,1643.38 5355.06,1624.05 5366.5,1605.5C 5375.01,1591.82 5384.51,1578.82 5395,1566.5C 5403.22,1556.76 5412.72,1548.76 5423.5,1542.5 Z"/></g>
<g><path style="opacity:1" fill="#f47457" d="M 2033.5,1727.5 C 2040.93,1731.75 2048.26,1736.25 2055.5,1741C 2083.56,1754.73 2111.56,1754.9 2139.5,1741.5C 2139.78,1743.41 2139.45,1745.08 2138.5,1746.5C 2111.95,1768.44 2082.28,1773.61 2049.5,1762C 2042.9,1759.64 2036.57,1756.81 2030.5,1753.5C 2031.86,1744.88 2032.86,1736.21 2033.5,1727.5 Z"/></g>
<g><path style="opacity:1" fill="#f6a391" d="M 2138.5,1746.5 C 2134.8,1791.81 2131.47,1837.14 2128.5,1882.5C 2130.41,1882.22 2132.08,1882.55 2133.5,1883.5C 2131.83,1883.5 2130.17,1883.5 2128.5,1883.5C 2127.91,1886.13 2127.58,1888.79 2127.5,1891.5C 2126.08,1904.31 2125.41,1917.31 2125.5,1930.5C 2124.83,1955.71 2119.99,1980.04 2111,2003.5C 2100.27,2027.78 2082.1,2036.95 2056.5,2031C 2052.66,2028.58 2048.99,2025.91 2045.5,2023C 2036.88,2013.4 2030.38,2002.56 2026,1990.5C 2014.43,1958.2 2009.43,1924.86 2011,1890.5C 2011.46,1885.95 2012.63,1881.62 2014.5,1877.5C 2015.34,1871.45 2016.51,1865.45 2018,1859.5C 2022.03,1824.12 2026.2,1788.79 2030.5,1753.5C 2036.57,1756.81 2042.9,1759.64 2049.5,1762C 2082.28,1773.61 2111.95,1768.44 2138.5,1746.5 Z"/></g>
<g><path style="opacity:1" fill="#e4beb8" d="M 2247.5,1759.5 C 2247.48,1765.71 2246.81,1771.71 2245.5,1777.5C 2245.39,1771.27 2246.05,1765.27 2247.5,1759.5 Z"/></g>
<g><path style="opacity:1" fill="#c7be9d" d="M 5826.5,1808.5 C 5828.27,1823.63 5829.27,1838.97 5829.5,1854.5C 5828.18,1844.69 5827.35,1834.69 5827,1824.5C 5825.16,1822.83 5824.49,1820.83 5825,1818.5C 5825.33,1819.5 5825.67,1820.5 5826,1821.5C 5826.5,1817.18 5826.67,1812.85 5826.5,1808.5 Z"/></g>
<g><path style="opacity:1" fill="#fadfb2" d="M 2014.5,1877.5 C 2012.63,1881.62 2011.46,1885.95 2011,1890.5C 2009.43,1924.86 2014.43,1958.2 2026,1990.5C 2030.38,2002.56 2036.88,2013.4 2045.5,2023C 2048.99,2025.91 2052.66,2028.58 2056.5,2031C 2082.1,2036.95 2100.27,2027.78 2111,2003.5C 2119.99,1980.04 2124.83,1955.71 2125.5,1930.5C 2126.86,1917.69 2127.52,1904.69 2127.5,1891.5C 2127.58,1888.79 2127.91,1886.13 2128.5,1883.5C 2130.17,1883.5 2131.83,1883.5 2133.5,1883.5C 2148.09,1886.65 2162.76,1889.48 2177.5,1892C 2193.22,1895.78 2208.89,1899.61 2224.5,1903.5C 2229.98,1904.49 2235.64,1904.82 2241.5,1904.5C 2237.03,1905.49 2232.36,1905.82 2227.5,1905.5C 2228.75,1918.15 2229.92,1930.82 2231,1943.5C 2232.65,1976.48 2233.98,2009.48 2235,2042.5C 2244.5,2060.91 2250,2080.24 2251.5,2100.5C 2250.47,2101.55 2249.8,2102.89 2249.5,2104.5C 2248.69,2123.09 2243.19,2140.09 2233,2155.5C 2227.74,2212.81 2222.74,2270.14 2218,2327.5C 2215.58,2368.99 2218.91,2409.99 2228,2450.5C 2230.61,2460.37 2233.77,2470.04 2237.5,2479.5C 2222.85,2480.5 2208.18,2480.83 2193.5,2480.5C 2110.5,2479.87 2027.5,2479.54 1944.5,2479.5C 1941.15,2459.77 1937.32,2440.1 1933,2420.5C 1912.33,2338.15 1894.66,2255.15 1880,2171.5C 1871.92,2163.42 1864.58,2154.75 1858,2145.5C 1853.95,2138.42 1850.78,2131.08 1848.5,2123.5C 1847.37,2115.14 1847.37,2106.8 1848.5,2098.5C 1851.09,2079.33 1858.59,2062.33 1871,2047.5C 1879.04,2020.7 1887.71,1994.03 1897,1967.5C 1904.33,1940.51 1909.83,1913.18 1913.5,1885.5C 1915.29,1884.69 1917.29,1884.19 1919.5,1884C 1951.17,1881.78 1982.84,1879.61 2014.5,1877.5 Z"/></g>
<g><path style="opacity:1" fill="#f6cc7e" d="M 2433.5,1882.5 C 2440.7,1919.21 2446.03,1956.21 2449.5,1993.5C 2451.74,2011.49 2451.9,2029.49 2450,2047.5C 2433.72,2052.11 2417.55,2056.77 2401.5,2061.5C 2351.42,2074.19 2301.42,2087.19 2251.5,2100.5C 2250,2080.24 2244.5,2060.91 2235,2042.5C 2233.98,2009.48 2232.65,1976.48 2231,1943.5C 2229.92,1930.82 2228.75,1918.15 2227.5,1905.5C 2232.36,1905.82 2237.03,1905.49 2241.5,1904.5C 2304.55,1898.12 2367.22,1889.12 2429.5,1877.5C 2431.54,1878.66 2432.87,1880.33 2433.5,1882.5 Z"/></g>
<g><path style="opacity:1" fill="#f6cb7e" d="M 1913.5,1885.5 C 1909.83,1913.18 1904.33,1940.51 1897,1967.5C 1887.71,1994.03 1879.04,2020.7 1871,2047.5C 1858.59,2062.33 1851.09,2079.33 1848.5,2098.5C 1829.48,2100.3 1810.48,2102.3 1791.5,2104.5C 1760.37,2108.38 1729.2,2112.04 1698,2115.5C 1696.83,2115.17 1695.67,2114.83 1694.5,2114.5C 1694.06,2113.26 1693.39,2112.26 1692.5,2111.5C 1692.5,2111.17 1692.5,2110.83 1692.5,2110.5C 1672.73,2065.97 1652.73,2021.64 1632.5,1977.5C 1630.18,1972.19 1627.85,1966.85 1625.5,1961.5C 1627.54,1960.93 1629.21,1959.93 1630.5,1958.5C 1631.12,1958.61 1631.62,1958.94 1632,1959.5C 1715.95,1937.98 1799.45,1914.81 1882.5,1890C 1892.77,1888.02 1903.1,1886.52 1913.5,1885.5 Z"/></g>
<g><path style="opacity:1" fill="#f48c7f" d="M 5287.5,1891.5 C 5299.5,1894.7 5311.5,1898.04 5323.5,1901.5C 5320.47,1993.89 5317.47,2086.23 5314.5,2178.5C 5303.85,2207.13 5290.02,2234.13 5273,2259.5C 5248.23,2293.95 5221.56,2326.95 5193,2358.5C 5163.39,2390.11 5133.06,2421.11 5102,2451.5C 5086.45,2466.72 5074.45,2484.39 5066,2504.5C 5061.13,2522.98 5055.8,2541.31 5050,2559.5C 5039.51,2580.49 5027.51,2600.49 5014,2619.5C 5009.28,2625.09 5004.45,2630.59 4999.5,2636C 4997.63,2637.37 4995.63,2638.53 4993.5,2639.5C 4992.05,2638.83 4991.39,2637.66 4991.5,2636C 4992.8,2631.77 4994.3,2627.6 4996,2623.5C 5003.59,2609.32 5010.92,2594.99 5018,2580.5C 5018.98,2578.26 5019.48,2575.93 5019.5,2573.5C 5018.13,2573.34 5016.79,2573.51 5015.5,2574C 5011.88,2578.07 5008.38,2582.24 5005,2586.5C 4993.25,2605 4981.25,2623.34 4969,2641.5C 4967.09,2645.01 4964.26,2646.18 4960.5,2645C 4959.38,2641.93 4959.22,2638.76 4960,2635.5C 4968.25,2613.67 4977.58,2592.33 4988,2571.5C 4992.4,2559.64 4991.07,2558.31 4984,2567.5C 4974.97,2585.19 4965.97,2602.85 4957,2620.5C 4953.97,2625.02 4950.8,2629.35 4947.5,2633.5C 4946.08,2624.65 4944.75,2615.65 4943.5,2606.5C 4952.59,2587.98 4961.43,2569.31 4970,2550.5C 4970.5,2548.53 4970.66,2546.53 4970.5,2544.5C 4967.74,2544.74 4965.57,2546.08 4964,2548.5C 4956.49,2564.19 4948.99,2579.86 4941.5,2595.5C 4939.4,2585.65 4937.4,2575.65 4935.5,2565.5C 4945.38,2542.74 4955.54,2520.07 4966,2497.5C 4969.44,2489.53 4972.27,2481.36 4974.5,2473C 4974.57,2469.05 4972.57,2467.55 4968.5,2468.5C 4960.14,2469.47 4951.8,2470.64 4943.5,2472C 4938.83,2472.67 4934.17,2472.67 4929.5,2472C 4924.08,2470.93 4921.91,2467.76 4923,2462.5C 4928.36,2458.74 4934.19,2455.9 4940.5,2454C 4965.45,2447.85 4990.45,2441.85 5015.5,2436C 5019.79,2434.51 5024.12,2433.18 5028.5,2432C 5029.67,2430.83 5030.83,2429.67 5032,2428.5C 5078.9,2349.37 5123.23,2268.71 5165,2186.5C 5205.39,2088.16 5247.22,1990.49 5290.5,1893.5C 5289.4,1892.82 5288.4,1892.16 5287.5,1891.5 Z"/></g>
<g><path style="opacity:1" fill="#f79c8d" d="M 5825.5,1896.5 C 5832.17,1922.17 5838.83,1947.84 5845.5,1973.5C 5864.98,2043.06 5883.15,2113.06 5900,2183.5C 5930.68,2275.2 5964.35,2365.87 6001,2455.5C 6018.9,2469.72 6035.9,2485.06 6052,2501.5C 6058.18,2508.85 6063.34,2516.85 6067.5,2525.5C 6073.35,2536.51 6075.02,2548.18 6072.5,2560.5C 6063.03,2573.12 6050.36,2579.28 6034.5,2579C 6027.73,2583.55 6020.4,2586.72 6012.5,2588.5C 5999.99,2571.5 5986.99,2554.83 5973.5,2538.5C 5972.58,2539.13 5971.58,2539.46 5970.5,2539.5C 5961.93,2520.37 5951.76,2502.04 5940,2484.5C 5915.91,2450.66 5891.58,2416.99 5867,2383.5C 5832.77,2336.41 5803.11,2286.41 5778,2233.5C 5771.53,2217.88 5766.19,2201.88 5762,2185.5C 5745.27,2119.43 5728.44,2053.43 5711.5,1987.5C 5704.77,1957.98 5697.44,1928.65 5689.5,1899.5C 5734.66,1897.89 5779.99,1896.89 5825.5,1896.5 Z"/></g>
<g><path style="opacity:1" fill="#1b4755" d="M 5677.5,1899.5 C 5681.5,1899.5 5685.5,1899.5 5689.5,1899.5C 5697.44,1928.65 5704.77,1957.98 5711.5,1987.5C 5692.07,1986.89 5673.07,1983.89 5654.5,1978.5C 5661.7,1952.02 5669.37,1925.69 5677.5,1899.5 Z"/></g>
<g><path style="opacity:1" fill="#f8c1a0" d="M 2127.5,1891.5 C 2127.52,1904.69 2126.86,1917.69 2125.5,1930.5C 2125.41,1917.31 2126.08,1904.31 2127.5,1891.5 Z"/></g>
<g><path style="opacity:1" fill="#fefefe" d="M 5654.5,1978.5 C 5673.07,1983.89 5692.07,1986.89 5711.5,1987.5C 5728.44,2053.43 5745.27,2119.43 5762,2185.5C 5766.19,2201.88 5771.53,2217.88 5778,2233.5C 5803.11,2286.41 5832.77,2336.41 5867,2383.5C 5891.58,2416.99 5915.91,2450.66 5940,2484.5C 5951.76,2502.04 5961.93,2520.37 5970.5,2539.5C 5963.47,2542.45 5957.3,2546.78 5952,2552.5C 5950.08,2556.81 5950.08,2561.14 5952,2565.5C 6033.03,2677.35 6114.2,2789.02 6195.5,2900.5C 6189.73,2902.77 6184.06,2905.43 6178.5,2908.5C 6387.19,3186.85 6595.86,3465.19 6804.5,3743.5C 6776.05,3767.69 6766.55,3798.03 6776,3834.5C 6783.19,3856.18 6796.69,3872.51 6816.5,3883.5C 6584.67,3883.83 6353,3883.5 6121.5,3882.5C 6177.71,3834.79 6228.88,3782.13 6275,3724.5C 6290.91,3702.34 6306.58,3680.01 6322,3657.5C 6322.42,3655.21 6321.75,3653.21 6320,3651.5C 6299.33,3638.08 6277.83,3626.08 6255.5,3615.5C 6249.41,3611.92 6243.41,3608.09 6237.5,3604C 6219.53,3586.2 6202.53,3567.7 6186.5,3548.5C 6190.22,3544.46 6194.56,3541.13 6199.5,3538.5C 6200.52,3538 6200.69,3537.33 6200,3536.5C 6122.72,3431.55 6047.39,3325.22 5974,3217.5C 5956.53,3197.7 5938.03,3178.86 5918.5,3161C 5882.12,3130.95 5845.46,3101.29 5808.5,3072C 5799.7,3064.87 5791.2,3057.37 5783,3049.5C 5779.57,3032.92 5776.57,3016.25 5774,2999.5C 5768.03,2938.98 5765.19,2878.32 5765.5,2817.5C 5766.06,2761.5 5766.73,2705.5 5767.5,2649.5C 5768.17,2633.34 5768.5,2617 5768.5,2600.5C 5768.71,2577.65 5768.04,2554.98 5766.5,2532.5C 5765.95,2503.49 5761.45,2475.16 5753,2447.5C 5740.04,2406.6 5723.54,2367.27 5703.5,2329.5C 5707.71,2328.3 5712.05,2327.63 5716.5,2327.5C 5699.47,2283.42 5682.97,2239.09 5667,2194.5C 5661.18,2175.37 5655.18,2156.37 5649,2137.5C 5643.31,2115.7 5638.64,2093.7 5635,2071.5C 5634.33,2063.5 5634.33,2055.5 5635,2047.5C 5640.13,2023.96 5646.63,2000.96 5654.5,1978.5 Z"/></g>
<g><path style="opacity:1" fill="#f6a491" d="M 1632.5,1977.5 C 1652.73,2021.64 1672.73,2065.97 1692.5,2110.5C 1650.17,2110.5 1607.83,2110.5 1565.5,2110.5C 1565.22,2112.41 1565.55,2114.08 1566.5,2115.5C 1576.48,2185.74 1591.98,2254.74 1613,2322.5C 1615.7,2327.08 1619.2,2330.91 1623.5,2334C 1631.18,2338.84 1639.18,2343.18 1647.5,2347C 1667.79,2359.96 1686.29,2375.13 1703,2392.5C 1705.8,2396.09 1706.8,2400.09 1706,2404.5C 1705.04,2405.89 1703.71,2406.56 1702,2406.5C 1692.5,2402.33 1683.33,2397.5 1674.5,2392C 1670.7,2389.95 1666.7,2388.95 1662.5,2389C 1660.94,2391 1660.27,2393.33 1660.5,2396C 1666.86,2430.4 1683.53,2458.73 1710.5,2481C 1720.29,2486.98 1729.46,2493.81 1738,2501.5C 1738.49,2502.79 1738.66,2504.13 1738.5,2505.5C 1721.77,2505.2 1706.44,2500.37 1692.5,2491C 1677.99,2473.66 1663.32,2456.49 1648.5,2439.5C 1647.48,2440 1647.31,2440.67 1648,2441.5C 1657.71,2452.88 1667.05,2464.54 1676,2476.5C 1687.38,2487.38 1698.21,2498.71 1708.5,2510.5C 1706.58,2511.64 1704.58,2511.81 1702.5,2511C 1692.38,2506.2 1683.22,2500.03 1675,2492.5C 1675.13,2494.42 1675.3,2496.42 1675.5,2498.5C 1673.8,2498.66 1672.13,2498.49 1670.5,2498C 1661.62,2493.12 1653.29,2487.45 1645.5,2481C 1619.42,2456.94 1597.92,2429.44 1581,2398.5C 1538.59,2315.03 1502.26,2229.03 1472,2140.5C 1464.24,2115.75 1458.07,2090.75 1453.5,2065.5C 1453.5,2064.17 1453.5,2062.83 1453.5,2061.5C 1453.33,2054.16 1453.5,2046.83 1454,2039.5C 1455.2,2033.32 1458.36,2028.48 1463.5,2025C 1519.87,2009.04 1576.2,1993.21 1632.5,1977.5 Z"/></g>
<g><path style="opacity:1" fill="#3c8e7c" d="M 2401.5,2061.5 C 2689.5,2061.33 2977.5,2061.5 3265.5,2062C 3361.02,2067.36 3441.86,2104.19 3508,2172.5C 3514.71,2181.04 3521.88,2189.04 3529.5,2196.5C 3490.57,2221.97 3466.4,2257.64 3457,2303.5C 3455.52,2384.14 3455.02,2464.81 3455.5,2545.5C 3441.94,2556.13 3431.6,2569.29 3424.5,2585C 3423.9,2588.72 3423.24,2592.38 3422.5,2596C 3408.88,2602.48 3395.55,2609.48 3382.5,2617C 3376.69,2620.33 3371.53,2624.49 3367,2629.5C 3362.61,2639.72 3360.44,2650.39 3360.5,2661.5C 3359.83,2664.36 3359.17,2667.36 3358.5,2670.5C 3352.53,2668.29 3346.53,2666.29 3340.5,2664.5C 3317.38,2655.11 3296.72,2641.95 3278.5,2625C 3264.31,2607.8 3247.97,2593.13 3229.5,2581C 3184.78,2555.09 3136.78,2538.09 3085.5,2530C 3047.05,2523.46 3008.38,2521.46 2969.5,2524C 2891.43,2533.45 2825.6,2566.62 2772,2623.5C 2745.01,2653.47 2726.34,2688.13 2716,2727.5C 2702.22,2775.52 2695.39,2824.52 2695.5,2874.5C 2694.53,2872.39 2694.2,2870.06 2694.5,2867.5C 2557.17,2867.5 2419.83,2867.5 2282.5,2867.5C 2336.87,2818.91 2360.04,2758.24 2352,2685.5C 2348.42,2668.36 2342.09,2652.36 2333,2637.5C 2327.64,2629.32 2322.14,2621.32 2316.5,2613.5C 2290.67,2569.83 2264.83,2526.17 2239,2482.5C 2223.74,2481.84 2208.57,2481.17 2193.5,2480.5C 2208.18,2480.83 2222.85,2480.5 2237.5,2479.5C 2233.77,2470.04 2230.61,2460.37 2228,2450.5C 2218.91,2409.99 2215.58,2368.99 2218,2327.5C 2222.74,2270.14 2227.74,2212.81 2233,2155.5C 2243.19,2140.09 2248.69,2123.09 2249.5,2104.5C 2249.8,2102.89 2250.47,2101.55 2251.5,2100.5C 2301.42,2087.19 2351.42,2074.19 2401.5,2061.5 Z"/></g>
<g><path style="opacity:1" fill="#13375b" d="M 1453.5,2061.5 C 1453.5,2062.83 1453.5,2064.17 1453.5,2065.5C 1362.87,2079.66 1288.37,2122 1230,2192.5C 1210.72,2216.7 1194.72,2243.03 1182,2271.5C 1181.62,2270.94 1181.12,2270.61 1180.5,2270.5C 1168.67,2234.15 1146,2206.82 1112.5,2188.5C 1163.4,2119.02 1231.73,2077.52 1317.5,2064C 1326.82,2063.17 1336.15,2062.5 1345.5,2062C 1381.5,2061.5 1417.5,2061.33 1453.5,2061.5 Z"/></g>
<g><path style="opacity:1" fill="#f6a491" d="M 4456.5,2443.5 C 4444.7,2484.51 4432.04,2525.18 4418.5,2565.5C 4384.84,2554.65 4351.84,2542.15 4319.5,2528C 4303.36,2520.43 4287.69,2512.1 4272.5,2503C 4267.29,2499.45 4263.12,2494.95 4260,2489.5C 4256.86,2471.48 4257.19,2453.48 4261,2435.5C 4277.79,2357.94 4301.46,2282.61 4332,2209.5C 4333.37,2201.88 4333.71,2194.21 4333,2186.5C 4330.98,2166.75 4328.32,2147.08 4325,2127.5C 4324.5,2120.51 4324.33,2113.51 4324.5,2106.5C 4327.65,2105.96 4330.15,2106.96 4332,2109.5C 4338.55,2120.63 4344.05,2132.29 4348.5,2144.5C 4349,2145.52 4349.67,2145.69 4350.5,2145C 4352.92,2125.24 4355.09,2105.41 4357,2085.5C 4358.02,2079.45 4360.02,2073.78 4363,2068.5C 4366.88,2066.75 4369.88,2067.75 4372,2071.5C 4372.67,2074.17 4373.33,2076.83 4374,2079.5C 4374.27,2096.51 4374.27,2113.51 4374,2130.5C 4374.21,2133.62 4374.87,2136.62 4376,2139.5C 4377.05,2140.52 4378.22,2140.68 4379.5,2140C 4382.64,2136.22 4385.14,2132.05 4387,2127.5C 4393.55,2109.84 4400.89,2092.51 4409,2075.5C 4411.75,2070.75 4415.25,2066.58 4419.5,2063C 4423.89,2061.94 4427.05,2063.44 4429,2067.5C 4428.9,2079.24 4426.57,2090.57 4422,2101.5C 4416.5,2114 4412,2126.83 4408.5,2140C 4408.83,2141.17 4409.17,2142.33 4409.5,2143.5C 4411.15,2142.35 4412.65,2141.02 4414,2139.5C 4424.08,2123 4434.42,2106.66 4445,2090.5C 4457.43,2076.76 4462.09,2078.76 4459,2096.5C 4451.73,2118.32 4444.06,2139.98 4436,2161.5C 4434.72,2165.1 4434.39,2168.76 4435,2172.5C 4436.73,2173.58 4438.56,2173.74 4440.5,2173C 4448.3,2164.86 4456.97,2157.86 4466.5,2152C 4470.32,2150.98 4473.82,2151.48 4477,2153.5C 4477.67,2155.17 4477.67,2156.83 4477,2158.5C 4468.43,2171.07 4459.1,2183.07 4449,2194.5C 4440.49,2211.02 4429.65,2225.85 4416.5,2239C 4413.34,2241.42 4410,2243.58 4406.5,2245.5C 4397.01,2298.88 4389.35,2352.55 4383.5,2406.5C 4383.67,2409.83 4383.83,2413.17 4384,2416.5C 4385.92,2417.54 4387.75,2418.71 4389.5,2420C 4411.52,2428.73 4433.86,2436.56 4456.5,2443.5 Z"/></g>
<g><path style="opacity:1" fill="#3c8f7c" d="M 1453.5,2065.5 C 1458.07,2090.75 1464.24,2115.75 1472,2140.5C 1502.26,2229.03 1538.59,2315.03 1581,2398.5C 1597.92,2429.44 1619.42,2456.94 1645.5,2481C 1653.29,2487.45 1661.62,2493.12 1670.5,2498C 1672.13,2498.49 1673.8,2498.66 1675.5,2498.5C 1675.3,2496.42 1675.13,2494.42 1675,2492.5C 1683.22,2500.03 1692.38,2506.2 1702.5,2511C 1704.58,2511.81 1706.58,2511.64 1708.5,2510.5C 1698.21,2498.71 1687.38,2487.38 1676,2476.5C 1667.05,2464.54 1657.71,2452.88 1648,2441.5C 1647.31,2440.67 1647.48,2440 1648.5,2439.5C 1663.32,2456.49 1677.99,2473.66 1692.5,2491C 1706.44,2500.37 1721.77,2505.2 1738.5,2505.5C 1738.66,2504.13 1738.49,2502.79 1738,2501.5C 1729.46,2493.81 1720.29,2486.98 1710.5,2481C 1683.53,2458.73 1666.86,2430.4 1660.5,2396C 1660.27,2393.33 1660.94,2391 1662.5,2389C 1666.7,2388.95 1670.7,2389.95 1674.5,2392C 1683.33,2397.5 1692.5,2402.33 1702,2406.5C 1703.71,2406.56 1705.04,2405.89 1706,2404.5C 1706.8,2400.09 1705.8,2396.09 1703,2392.5C 1686.29,2375.13 1667.79,2359.96 1647.5,2347C 1639.18,2343.18 1631.18,2338.84 1623.5,2334C 1619.2,2330.91 1615.7,2327.08 1613,2322.5C 1591.98,2254.74 1576.48,2185.74 1566.5,2115.5C 1566.5,2114.17 1566.5,2112.83 1566.5,2111.5C 1608.5,2111.5 1650.5,2111.5 1692.5,2111.5C 1693.39,2112.26 1694.06,2113.26 1694.5,2114.5C 1695.67,2114.83 1696.83,2115.17 1698,2115.5C 1729.2,2112.04 1760.37,2108.38 1791.5,2104.5C 1809.63,2112.99 1828.63,2119.32 1848.5,2123.5C 1850.78,2131.08 1853.95,2138.42 1858,2145.5C 1864.58,2154.75 1871.92,2163.42 1880,2171.5C 1894.66,2255.15 1912.33,2338.15 1933,2420.5C 1937.32,2440.1 1941.15,2459.77 1944.5,2479.5C 1932.37,2489.12 1920.37,2498.95 1908.5,2509C 1895.99,2509.17 1883.66,2509.67 1871.5,2510.5C 1813.29,2510.75 1756.95,2520.92 1702.5,2541C 1676.44,2551.52 1652.77,2565.86 1631.5,2584C 1603.82,2610.82 1585.82,2642.99 1577.5,2680.5C 1556.21,2690.73 1537.04,2704.07 1520,2720.5C 1493.7,2752.59 1479.7,2789.59 1478,2831.5C 1477.5,2843.5 1477.33,2855.5 1477.5,2867.5C 1380.83,2867.5 1284.17,2867.5 1187.5,2867.5C 1186.67,2676.33 1186.17,2485 1186,2293.5C 1184.93,2285.56 1183.1,2277.9 1180.5,2270.5C 1181.12,2270.61 1181.62,2270.94 1182,2271.5C 1194.72,2243.03 1210.72,2216.7 1230,2192.5C 1288.37,2122 1362.87,2079.66 1453.5,2065.5 Z"/></g>
<g><path style="opacity:1" fill="#184655" d="M 4837.5,2409.5 C 4824.83,2417.61 4811.16,2422.94 4796.5,2425.5C 4790.49,2425.33 4784.49,2425.5 4778.5,2426C 4762.28,2431.69 4745.95,2436.85 4729.5,2441.5C 4725.88,2441.32 4722.54,2441.99 4719.5,2443.5C 4716.37,2411.51 4713.37,2379.51 4710.5,2347.5C 4710.5,2347.17 4710.5,2346.83 4710.5,2346.5C 4725.36,2330.11 4735.53,2311.11 4741,2289.5C 4746.53,2287.24 4750.86,2283.57 4754,2278.5C 4763.21,2263.77 4766.55,2247.77 4764,2230.5C 4760.97,2221.62 4754.8,2217.29 4745.5,2217.5C 4744.02,2183.06 4731.02,2153.89 4706.5,2130C 4693.63,2119.9 4678.96,2114.24 4662.5,2113C 4641.09,2111.05 4620.76,2114.71 4601.5,2124C 4585.86,2133.98 4575.03,2147.81 4569,2165.5C 4554.65,2203 4549.98,2241.67 4555,2281.5C 4558.92,2308.96 4569.58,2333.29 4587,2354.5C 4597.36,2365.92 4609.86,2373.58 4624.5,2377.5C 4624.5,2388.5 4624.5,2399.5 4624.5,2410.5C 4624.59,2416.86 4624.26,2423.2 4623.5,2429.5C 4619.13,2428.48 4615.13,2426.65 4611.5,2424C 4591.79,2425.49 4573.13,2421.83 4555.5,2413C 4532.16,2401.65 4513.99,2384.82 4501,2362.5C 4492.21,2342.38 4492.37,2322.38 4501.5,2302.5C 4496.15,2299.32 4491.98,2294.98 4489,2289.5C 4483.17,2275.02 4481.17,2260.02 4483,2244.5C 4486.14,2233.69 4492.64,2225.52 4502.5,2220C 4512.3,2214.93 4521.96,2209.6 4531.5,2204C 4543.49,2193.19 4549.99,2179.69 4551,2163.5C 4559.12,2139.07 4571.96,2117.57 4589.5,2099C 4609.86,2081.94 4632.86,2077.1 4658.5,2084.5C 4667.54,2081.16 4676.88,2078.99 4686.5,2078C 4718.71,2074.02 4749.38,2079.02 4778.5,2093C 4794.46,2102.3 4805.29,2115.8 4811,2133.5C 4821.11,2161.82 4832.77,2189.49 4846,2216.5C 4856.74,2233.96 4869.41,2249.96 4884,2264.5C 4892.46,2277.77 4894.79,2292.1 4891,2307.5C 4888.05,2320.56 4882.55,2332.4 4874.5,2343C 4877.26,2360.05 4873.09,2375.22 4862,2388.5C 4854.84,2396.83 4846.68,2403.83 4837.5,2409.5 Z"/></g>
<g><path style="opacity:1" fill="#b75842" d="M 1848.5,2098.5 C 1847.37,2106.8 1847.37,2115.14 1848.5,2123.5C 1828.63,2119.32 1809.63,2112.99 1791.5,2104.5C 1810.48,2102.3 1829.48,2100.3 1848.5,2098.5 Z"/></g>
<g><path style="opacity:1" fill="#5d9380" d="M 1692.5,2110.5 C 1692.5,2110.83 1692.5,2111.17 1692.5,2111.5C 1650.5,2111.5 1608.5,2111.5 1566.5,2111.5C 1566.5,2112.83 1566.5,2114.17 1566.5,2115.5C 1565.55,2114.08 1565.22,2112.41 1565.5,2110.5C 1607.83,2110.5 1650.17,2110.5 1692.5,2110.5 Z"/></g>
<g><path style="opacity:1" fill="#f6a391" d="M 4710.5,2346.5 C 4686.13,2368.49 4657.46,2378.83 4624.5,2377.5C 4609.86,2373.58 4597.36,2365.92 4587,2354.5C 4569.58,2333.29 4558.92,2308.96 4555,2281.5C 4549.98,2241.67 4554.65,2203 4569,2165.5C 4575.03,2147.81 4585.86,2133.98 4601.5,2124C 4620.76,2114.71 4641.09,2111.05 4662.5,2113C 4678.96,2114.24 4693.63,2119.9 4706.5,2130C 4731.02,2153.89 4744.02,2183.06 4745.5,2217.5C 4754.8,2217.29 4760.97,2221.62 4764,2230.5C 4766.55,2247.77 4763.21,2263.77 4754,2278.5C 4750.86,2283.57 4746.53,2287.24 4741,2289.5C 4735.53,2311.11 4725.36,2330.11 4710.5,2346.5 Z"/></g>
<g><path style="opacity:1" fill="#51bfa6" d="M 1112.5,2188.5 C 1146,2206.82 1168.67,2234.15 1180.5,2270.5C 1183.1,2277.9 1184.93,2285.56 1186,2293.5C 1186.17,2485 1186.67,2676.33 1187.5,2867.5C 1283.67,2868.5 1380,2868.83 1476.5,2868.5C 1476.19,2872.37 1476.52,2876.04 1477.5,2879.5C 1481.16,2926.6 1490.32,2972.6 1505,3017.5C 1507.23,3023.39 1509.73,3029.06 1512.5,3034.5C 1514.19,3038.37 1516.53,3041.87 1519.5,3045C 1531.77,3052.4 1545.1,3056.4 1559.5,3057C 1586.3,3058.32 1612.96,3056.99 1639.5,3053C 1692.21,3045.62 1743.54,3033.45 1793.5,3016.5C 1911.95,3035.36 2030.61,3052.86 2149.5,3069C 2174.79,3073.55 2200.13,3077.88 2225.5,3082C 2293.44,3095.39 2361.44,3108.39 2429.5,3121C 2488.76,3125.86 2548.09,3127.2 2607.5,3125C 2610.52,3123.47 2611.85,3120.97 2611.5,3117.5C 2611.21,3112.01 2609.55,3107.01 2606.5,3102.5C 2637.58,3105.64 2641.92,3096.47 2619.5,3075C 2610.3,3067.48 2600.3,3061.15 2589.5,3056C 2575,3050.83 2560.34,3046.17 2545.5,3042C 2524.29,3031.24 2504.62,3018.24 2486.5,3003C 2465.02,2984.1 2443.35,2965.43 2421.5,2947C 2413.69,2942.74 2405.35,2941.4 2396.5,2943C 2386.61,2946.61 2377.28,2951.28 2368.5,2957C 2363.73,2957.31 2359.06,2956.65 2354.5,2955C 2309.49,2936.49 2265.82,2915.33 2223.5,2891.5C 2227.51,2891.67 2231.51,2891.5 2235.5,2891C 2252.88,2886.31 2268.55,2878.47 2282.5,2867.5C 2419.83,2867.5 2557.17,2867.5 2694.5,2867.5C 2694.2,2870.06 2694.53,2872.39 2695.5,2874.5C 2699.49,2910.98 2717.82,2937.48 2750.5,2954C 2774.01,2962.96 2798.35,2968.29 2823.5,2970C 2867.12,2973.08 2910.79,2975.41 2954.5,2977C 2981.59,2977.19 3007.26,2983.19 3031.5,2995C 3049.78,3006.37 3061.61,3022.54 3067,3043.5C 3075.96,3079.17 3073.96,3114.17 3061,3148.5C 3050.8,3173.04 3032.63,3187.54 3006.5,3192C 2989.87,3200.97 2985.7,3214.14 2994,3231.5C 3004.14,3248.41 3019.14,3257.07 3039,3257.5C 3051.23,3257.52 3062.73,3254.68 3073.5,3249C 3117.67,3222.82 3147.84,3185.32 3164,3136.5C 3174.6,3096.46 3170.27,3058.13 3151,3021.5C 3134.72,2989.54 3112.22,2962.71 3083.5,2941C 3059.39,2925.45 3033.06,2915.79 3004.5,2912C 2992.84,2910.94 2981.17,2909.94 2969.5,2909C 2925.85,2910.15 2882.18,2910.49 2838.5,2910C 2814.93,2909.3 2791.59,2906.64 2768.5,2902C 2754.81,2899.23 2742.97,2893.06 2733,2883.5C 2730.68,2880.52 2729.18,2877.19 2728.5,2873.5C 2728.5,2872.17 2728.5,2870.83 2728.5,2869.5C 2858.67,2869.83 2988.67,2869.5 3118.5,2868.5C 3141.83,2868.5 3165.17,2868.5 3188.5,2868.5C 3322.21,2868.83 3455.87,2868.5 3589.5,2867.5C 3664.83,2867.5 3740.17,2867.5 3815.5,2867.5C 3884.83,2872.7 3933.99,2906.7 3963,2969.5C 3964.8,2974.1 3966.3,2978.76 3967.5,2983.5C 3967.52,2985.93 3968.02,2988.26 3969,2990.5C 3969.38,2989.94 3969.88,2989.61 3970.5,2989.5C 3971.17,2879.21 3971.5,2767.54 3971.5,2654.5C 3971.33,2542.17 3971.17,2429.83 3971,2317.5C 3970.67,2315.5 3970.33,2313.5 3970,2311.5C 3969.51,2312.79 3969.34,2314.13 3969.5,2315.5C 3959.36,2246.85 3921.36,2201.35 3855.5,2179C 3846.25,2176.9 3836.92,2175.24 3827.5,2174C 3753.17,2173.5 3678.83,2173.33 3604.5,2173.5C 3673.5,2172.83 3742.67,2172.5 3812,2172.5C 3883.86,2172.35 3955.69,2172.85 4027.5,2174C 4099.6,2186.79 4144.76,2228.63 4163,2299.5C 4163.27,2304.23 4163.94,2308.9 4165,2313.5C 4165.67,2615.83 4165.67,2918.17 4165,3220.5C 4158.83,3282.65 4127.66,3327.15 4071.5,3354C 4062.4,3357.31 4053.4,3360.47 4044.5,3363.5C 4039.48,3364.06 4034.48,3364.72 4029.5,3365.5C 3035.51,3366.5 2041.51,3366.83 1047.5,3366.5C 1032.24,3365.22 1017.58,3361.72 1003.5,3356C 976.578,3356.85 951.244,3351.02 927.5,3338.5C 927.158,3337.66 926.492,3337.33 925.5,3337.5C 885.048,3312.49 862.215,3276.16 857,3228.5C 856.333,2917.5 856.333,2606.5 857,2295.5C 865.099,2243.44 892.932,2206.27 940.5,2184C 955.171,2177.66 970.504,2174 986.5,2173C 1010.5,2172.33 1034.5,2172.33 1058.5,2173C 1077.54,2174.85 1095.54,2180.02 1112.5,2188.5 Z"/></g>
<g><path style="opacity:1" fill="#184554" d="M 3604.5,2173.5 C 3678.83,2173.33 3753.17,2173.5 3827.5,2174C 3836.92,2175.24 3846.25,2176.9 3855.5,2179C 3921.36,2201.35 3959.36,2246.85 3969.5,2315.5C 3969.5,2316.5 3969.5,2317.5 3969.5,2318.5C 3969.67,2541.17 3969.5,2763.83 3969,2986.5C 3968.77,2985.26 3968.27,2984.26 3967.5,2983.5C 3966.3,2978.76 3964.8,2974.1 3963,2969.5C 3933.99,2906.7 3884.83,2872.7 3815.5,2867.5C 3742.43,2866.83 3669.26,2866.17 3596,2865.5C 3594.99,2866.34 3593.82,2866.67 3592.5,2866.5C 3601.11,2854.99 3600.11,2844.16 3589.5,2834C 3582.11,2829.48 3574.11,2826.48 3565.5,2825C 3556.17,2824.67 3546.83,2824.33 3537.5,2824C 3532.27,2822.72 3527.27,2820.88 3522.5,2818.5C 3521.71,2817.6 3520.71,2816.93 3519.5,2816.5C 3535.37,2813.15 3550.37,2807.32 3564.5,2799C 3566.7,2796.46 3569.2,2794.29 3572,2792.5C 3579.54,2771.55 3586.87,2750.55 3594,2729.5C 3606.83,2714.34 3618.49,2698.34 3629,2681.5C 3635.55,2670.34 3639.39,2658.34 3640.5,2645.5C 3615.14,2650.21 3589.81,2654.71 3564.5,2659C 3545.49,2640.31 3524.49,2624.31 3501.5,2611C 3496.97,2609.49 3492.47,2607.99 3488,2606.5C 3485.6,2580.38 3482.27,2554.38 3478,2528.5C 3470.34,2534 3462.84,2539.67 3455.5,2545.5C 3455.02,2464.81 3455.52,2384.14 3457,2303.5C 3466.4,2257.64 3490.57,2221.97 3529.5,2196.5C 3552.42,2182.19 3577.42,2174.53 3604.5,2173.5 Z"/></g>
<g><path style="opacity:1" fill="#f48d7f" d="M 4417.5,2176.5 C 4419.2,2176.34 4420.87,2176.51 4422.5,2177C 4404.74,2181.71 4390.07,2191.21 4378.5,2205.5C 4378.17,2205.17 4377.83,2204.83 4377.5,2204.5C 4386.42,2188.72 4399.76,2179.38 4417.5,2176.5 Z"/></g>
<g><path style="opacity:1" fill="#fefefe" d="M 5314.5,2178.5 C 5313.69,2225.35 5312.36,2272.18 5310.5,2319C 5310.83,2324.17 5311.17,2329.33 5311.5,2334.5C 5315.1,2336.8 5318.77,2338.8 5322.5,2340.5C 5251.77,2574.59 5181.1,2808.76 5110.5,3043C 5159.86,3268.68 5208.53,3494.52 5256.5,3720.5C 5258.5,3720.5 5260.5,3720.5 5262.5,3720.5C 5261.04,3736.93 5256.87,3752.59 5250,3767.5C 5238.51,3780.5 5225.67,3791.83 5211.5,3801.5C 5167.16,3819.01 5123.5,3838.17 5080.5,3859C 5076.4,3861.47 5072.57,3864.3 5069,3867.5C 5066.34,3872.97 5065.84,3878.64 5067.5,3884.5C 5033.5,3884.5 4999.5,3884.5 4965.5,3884.5C 4995.91,3878.78 5025.91,3870.94 5055.5,3861C 5060.08,3859.13 5064.25,3856.63 5068,3853.5C 5070.27,3849.07 5070.94,3844.4 5070,3839.5C 5064.58,3823.98 5056.58,3809.98 5046,3797.5C 5041,3791.83 5036,3786.17 5031,3780.5C 5029.22,3778.21 5027.06,3776.54 5024.5,3775.5C 5017.86,3761.6 5012.2,3747.26 5007.5,3732.5C 5013.86,3730.05 5020.53,3728.39 5027.5,3727.5C 5014.79,3659.58 4999.63,3592.25 4982,3525.5C 4974.67,3498.87 4966.34,3472.54 4957,3446.5C 4951.08,3430.66 4944.08,3415.33 4936,3400.5C 4929.27,3379.88 4923.94,3358.88 4920,3337.5C 4911.99,3289.02 4905.49,3240.35 4900.5,3191.5C 4900.47,3185.95 4899.81,3180.62 4898.5,3175.5C 4894.52,3133.88 4891.02,3092.22 4888,3050.5C 4887.92,3046.2 4887.09,3042.2 4885.5,3038.5C 4892.19,3035.64 4898.86,3032.48 4905.5,3029C 4906.08,3028.11 4906.41,3027.11 4906.5,3026C 4897.05,2995.82 4887.72,2965.66 4878.5,2935.5C 4894.5,2932.83 4909.84,2928 4924.5,2921C 4935.37,2915.43 4939.37,2906.59 4936.5,2894.5C 4935.97,2878.46 4934.97,2862.46 4933.5,2846.5C 4933.36,2837.31 4932.69,2828.31 4931.5,2819.5C 4928.97,2779.46 4925.97,2739.46 4922.5,2699.5C 4923.26,2698.73 4924.26,2698.23 4925.5,2698C 4934.81,2696.84 4944.14,2696 4953.5,2695.5C 4952.32,2674.75 4950.32,2654.09 4947.5,2633.5C 4950.8,2629.35 4953.97,2625.02 4957,2620.5C 4965.97,2602.85 4974.97,2585.19 4984,2567.5C 4991.07,2558.31 4992.4,2559.64 4988,2571.5C 4977.58,2592.33 4968.25,2613.67 4960,2635.5C 4959.22,2638.76 4959.38,2641.93 4960.5,2645C 4964.26,2646.18 4967.09,2645.01 4969,2641.5C 4981.25,2623.34 4993.25,2605 5005,2586.5C 5008.38,2582.24 5011.88,2578.07 5015.5,2574C 5016.79,2573.51 5018.13,2573.34 5019.5,2573.5C 5019.48,2575.93 5018.98,2578.26 5018,2580.5C 5010.92,2594.99 5003.59,2609.32 4996,2623.5C 4994.3,2627.6 4992.8,2631.77 4991.5,2636C 4991.39,2637.66 4992.05,2638.83 4993.5,2639.5C 4995.63,2638.53 4997.63,2637.37 4999.5,2636C 5004.45,2630.59 5009.28,2625.09 5014,2619.5C 5027.51,2600.49 5039.51,2580.49 5050,2559.5C 5055.8,2541.31 5061.13,2522.98 5066,2504.5C 5074.45,2484.39 5086.45,2466.72 5102,2451.5C 5133.06,2421.11 5163.39,2390.11 5193,2358.5C 5221.56,2326.95 5248.23,2293.95 5273,2259.5C 5290.02,2234.13 5303.85,2207.13 5314.5,2178.5 Z"/></g>
<g><path style="opacity:1" fill="#51bfa5" d="M 5703.5,2329.5 C 5723.54,2367.27 5740.04,2406.6 5753,2447.5C 5761.45,2475.16 5765.95,2503.49 5766.5,2532.5C 5767.35,2571.49 5767.68,2610.49 5767.5,2649.5C 5766.73,2705.5 5766.06,2761.5 5765.5,2817.5C 5765.19,2878.32 5768.03,2938.98 5774,2999.5C 5776.57,3016.25 5779.57,3032.92 5783,3049.5C 5791.2,3057.37 5799.7,3064.87 5808.5,3072C 5845.46,3101.29 5882.12,3130.95 5918.5,3161C 5938.03,3178.86 5956.53,3197.7 5974,3217.5C 6047.39,3325.22 6122.72,3431.55 6200,3536.5C 6200.69,3537.33 6200.52,3538 6199.5,3538.5C 6194.56,3541.13 6190.22,3544.46 6186.5,3548.5C 6163.32,3565.26 6140.32,3582.26 6117.5,3599.5C 6114.86,3601.36 6112.2,3602.86 6109.5,3604C 5940.67,3447.17 5771.83,3290.33 5603,3133.5C 5564.83,3018.74 5526.99,2904.08 5489.5,2789.5C 5458.34,2694.86 5427.51,2600.19 5397,2505.5C 5376.4,2451.86 5355.9,2398.19 5335.5,2344.5C 5343.38,2346.64 5351.38,2348.47 5359.5,2350C 5396.38,2354.26 5433.38,2355.59 5470.5,2354C 5548.61,2349.92 5626.28,2341.76 5703.5,2329.5 Z"/></g>
<g><path style="opacity:1" fill="#42a08e" d="M 3969.5,2318.5 C 3970.5,2542 3970.83,2765.67 3970.5,2989.5C 3969.88,2989.61 3969.38,2989.94 3969,2990.5C 3968.02,2988.26 3967.52,2985.93 3967.5,2983.5C 3968.27,2984.26 3968.77,2985.26 3969,2986.5C 3969.5,2763.83 3969.67,2541.17 3969.5,2318.5 Z"/></g>
<g><path style="opacity:1" fill="#54c9ae" d="M 3970.5,2989.5 C 3970.83,2765.67 3970.5,2542 3969.5,2318.5C 3969.5,2317.5 3969.5,2316.5 3969.5,2315.5C 3969.34,2314.13 3969.51,2312.79 3970,2311.5C 3970.33,2313.5 3970.67,2315.5 3971,2317.5C 3971.17,2429.83 3971.33,2542.17 3971.5,2654.5C 3971.5,2767.54 3971.17,2879.21 3970.5,2989.5 Z"/></g>
<g><path style="opacity:1" fill="#3c8f7d" d="M 5322.5,2340.5 C 5326.84,2341.84 5331.18,2343.17 5335.5,2344.5C 5355.9,2398.19 5376.4,2451.86 5397,2505.5C 5427.51,2600.19 5458.34,2694.86 5489.5,2789.5C 5443.8,2850.53 5400.3,2913.2 5359,2977.5C 5339.02,3009.61 5321.52,3043.11 5306.5,3078C 5309.84,3091.86 5313.34,3105.69 5317,3119.5C 5332.9,3169.33 5346.9,3219.67 5359,3270.5C 5367.3,3308.8 5369.63,3347.46 5366,3386.5C 5365.55,3496.86 5366.72,3607.19 5369.5,3717.5C 5361.65,3717.17 5353.98,3717.51 5346.5,3718.5C 5318.48,3718.38 5290.48,3719.05 5262.5,3720.5C 5260.5,3720.5 5258.5,3720.5 5256.5,3720.5C 5208.53,3494.52 5159.86,3268.68 5110.5,3043C 5181.1,2808.76 5251.77,2574.59 5322.5,2340.5 Z"/></g>
<g><path style="opacity:1" fill="#f6a391" d="M 4710.5,2347.5 C 4713.37,2379.51 4716.37,2411.51 4719.5,2443.5C 4719.79,2446.65 4719.29,2449.65 4718,2452.5C 4693.24,2479.76 4662.4,2491.93 4625.5,2489C 4614.76,2485.2 4609.42,2477.54 4609.5,2466C 4610.04,2457.09 4613.87,2449.93 4621,2444.5C 4621.77,2440.47 4622.61,2436.47 4623.5,2432.5C 4623.5,2431.5 4623.5,2430.5 4623.5,2429.5C 4624.26,2423.2 4624.59,2416.86 4624.5,2410.5C 4625.47,2408.05 4625.81,2405.39 4625.5,2402.5C 4654.66,2399.39 4679.49,2387.39 4700,2366.5C 4703,2362.5 4706,2358.5 4709,2354.5C 4710.2,2352.32 4710.7,2349.99 4710.5,2347.5 Z"/></g>
<g><path style="opacity:1" fill="#b75842" d="M 4710.5,2346.5 C 4710.5,2346.83 4710.5,2347.17 4710.5,2347.5C 4710.7,2349.99 4710.2,2352.32 4709,2354.5C 4706,2358.5 4703,2362.5 4700,2366.5C 4679.49,2387.39 4654.66,2399.39 4625.5,2402.5C 4625.81,2405.39 4625.47,2408.05 4624.5,2410.5C 4624.5,2399.5 4624.5,2388.5 4624.5,2377.5C 4657.46,2378.83 4686.13,2368.49 4710.5,2346.5 Z"/></g>
<g><path style="opacity:1" fill="#6f8ec5" d="M 4837.5,2409.5 C 4849.79,2413.01 4861.46,2418.17 4872.5,2425C 4887.79,2438.08 4899.29,2453.92 4907,2472.5C 4919.26,2502.78 4928.76,2533.78 4935.5,2565.5C 4937.4,2575.65 4939.4,2585.65 4941.5,2595.5C 4941.65,2599.39 4942.31,2603.05 4943.5,2606.5C 4944.75,2615.65 4946.08,2624.65 4947.5,2633.5C 4950.32,2654.09 4952.32,2674.75 4953.5,2695.5C 4944.14,2696 4934.81,2696.84 4925.5,2698C 4924.26,2698.23 4923.26,2698.73 4922.5,2699.5C 4917.98,2699.29 4913.32,2699.29 4908.5,2699.5C 4908.56,2674.97 4906.39,2650.64 4902,2626.5C 4892.69,2579.59 4881.35,2533.26 4868,2487.5C 4859.65,2464.66 4844.15,2448.99 4821.5,2440.5C 4821.59,2439.5 4821.25,2438.67 4820.5,2438C 4812.89,2434.19 4805.22,2430.69 4797.5,2427.5C 4797.67,2426.51 4797.34,2425.84 4796.5,2425.5C 4811.16,2422.94 4824.83,2417.61 4837.5,2409.5 Z"/></g>
<g><path style="opacity:1" fill="#466eb5" d="M 4796.5,2425.5 C 4797.34,2425.84 4797.67,2426.51 4797.5,2427.5C 4794.58,2427.46 4791.91,2428.29 4789.5,2430C 4780.97,2436.53 4773.81,2444.36 4768,2453.5C 4729.73,2530.71 4720.4,2611.37 4740,2695.5C 4746.33,2719.5 4756.33,2741.84 4770,2762.5C 4773.34,2767 4777.17,2771 4781.5,2774.5C 4781.63,2798.51 4781.29,2822.51 4780.5,2846.5C 4726.48,2815.86 4695.31,2769.52 4687,2707.5C 4673.91,2622.23 4684.57,2540.23 4719,2461.5C 4722.8,2454.91 4726.3,2448.24 4729.5,2441.5C 4745.95,2436.85 4762.28,2431.69 4778.5,2426C 4784.49,2425.5 4790.49,2425.33 4796.5,2425.5 Z"/></g>
<g><path style="opacity:1" fill="#51bfa6" d="M 4583.5,2440.5 C 4564.98,2490.79 4548.98,2541.79 4535.5,2593.5C 4496.12,2587.15 4456.78,2580.49 4417.5,2573.5C 4418.09,2570.87 4418.42,2568.21 4418.5,2565.5C 4432.04,2525.18 4444.7,2484.51 4456.5,2443.5C 4457.76,2440.23 4458.92,2436.9 4460,2433.5C 4461.06,2432.9 4462.23,2432.57 4463.5,2432.5C 4503.46,2435.9 4543.46,2438.57 4583.5,2440.5 Z"/></g>
<g><path style="opacity:1" fill="#51bea6" d="M 4821.5,2440.5 C 4844.15,2448.99 4859.65,2464.66 4868,2487.5C 4881.35,2533.26 4892.69,2579.59 4902,2626.5C 4906.39,2650.64 4908.56,2674.97 4908.5,2699.5C 4908.5,2701.83 4908.5,2704.17 4908.5,2706.5C 4902.1,2706.61 4895.77,2707.27 4889.5,2708.5C 4887.59,2708.22 4885.92,2708.55 4884.5,2709.5C 4850.25,2713.67 4815.92,2717.01 4781.5,2719.5C 4778.17,2719.5 4774.83,2719.5 4771.5,2719.5C 4763.33,2671.79 4757.16,2623.79 4753,2575.5C 4749.47,2539.76 4753.8,2505.09 4766,2471.5C 4770.89,2459.29 4778.39,2449.12 4788.5,2441C 4799.4,2435.23 4810.4,2435.07 4821.5,2440.5 Z"/></g>
<g><path style="opacity:1" fill="#476eb6" d="M 4600.5,2438.5 C 4601.5,2438.5 4602.5,2438.5 4603.5,2438.5C 4572.58,2552.78 4540.92,2666.78 4508.5,2780.5C 4511.53,2742.05 4515.7,2703.71 4521,2665.5C 4524.75,2641.27 4529.58,2617.27 4535.5,2593.5C 4548.98,2541.79 4564.98,2490.79 4583.5,2440.5C 4589.15,2439.67 4594.81,2439.01 4600.5,2438.5 Z"/></g>
<g><path style="opacity:1" fill="#96d8c8" d="M 4623.5,2432.5 C 4622.61,2436.47 4621.77,2440.47 4621,2444.5C 4613.87,2449.93 4610.04,2457.09 4609.5,2466C 4609.42,2477.54 4614.76,2485.2 4625.5,2489C 4662.4,2491.93 4693.24,2479.76 4718,2452.5C 4719.29,2449.65 4719.79,2446.65 4719.5,2443.5C 4722.54,2441.99 4725.88,2441.32 4729.5,2441.5C 4726.3,2448.24 4722.8,2454.91 4719,2461.5C 4684.57,2540.23 4673.91,2622.23 4687,2707.5C 4695.31,2769.52 4726.48,2815.86 4780.5,2846.5C 4779.33,2859.2 4777.83,2871.87 4776,2884.5C 4765.14,2914.21 4752.14,2942.88 4737,2970.5C 4720.4,3000.71 4704.06,3031.04 4688,3061.5C 4684.01,3064 4680.18,3066.66 4676.5,3069.5C 4668.36,3068.93 4660.36,3068.26 4652.5,3067.5C 4647.06,3066.12 4641.39,3065.45 4635.5,3065.5C 4597.45,3061.99 4560.45,3053.82 4524.5,3041C 4515.96,3037.24 4507.96,3032.74 4500.5,3027.5C 4497.19,3024.22 4494.36,3020.56 4492,3016.5C 4490.95,3012.59 4490.45,3008.59 4490.5,3004.5C 4495.59,2929.61 4501.59,2854.94 4508.5,2780.5C 4540.92,2666.78 4572.58,2552.78 4603.5,2438.5C 4602.5,2438.5 4601.5,2438.5 4600.5,2438.5C 4607.99,2436.38 4615.66,2434.38 4623.5,2432.5 Z"/></g>
<g><path style="opacity:1" fill="#355389" d="M 1944.5,2479.5 C 2027.5,2479.54 2110.5,2479.87 2193.5,2480.5C 2208.57,2481.17 2223.74,2481.84 2239,2482.5C 2264.83,2526.17 2290.67,2569.83 2316.5,2613.5C 2279.31,2577.23 2234.97,2554.07 2183.5,2544C 2104.47,2526.56 2024.47,2515.56 1943.5,2511C 1919.5,2510.5 1895.5,2510.33 1871.5,2510.5C 1883.66,2509.67 1895.99,2509.17 1908.5,2509C 1920.37,2498.95 1932.37,2489.12 1944.5,2479.5 Z"/></g>
<g><path style="opacity:1" fill="#466eb5" d="M 1871.5,2510.5 C 1895.5,2510.33 1919.5,2510.5 1943.5,2511C 2024.47,2515.56 2104.47,2526.56 2183.5,2544C 2234.97,2554.07 2279.31,2577.23 2316.5,2613.5C 2322.14,2621.32 2327.64,2629.32 2333,2637.5C 2342.09,2652.36 2348.42,2668.36 2352,2685.5C 2360.04,2758.24 2336.87,2818.91 2282.5,2867.5C 2268.55,2878.47 2252.88,2886.31 2235.5,2891C 2231.51,2891.5 2227.51,2891.67 2223.5,2891.5C 2144.23,2848.87 2065.23,2805.7 1986.5,2762C 1948.67,2741.59 1909.67,2723.59 1869.5,2708C 1846.76,2699.48 1823.42,2693.15 1799.5,2689C 1754.16,2679.27 1712.83,2687.93 1675.5,2715C 1641.26,2742.69 1633.93,2776.19 1653.5,2815.5C 1626.21,2799.54 1604.54,2777.88 1588.5,2750.5C 1577.65,2728.36 1573.98,2705.03 1577.5,2680.5C 1585.82,2642.99 1603.82,2610.82 1631.5,2584C 1652.77,2565.86 1676.44,2551.52 1702.5,2541C 1756.95,2520.92 1813.29,2510.75 1871.5,2510.5 Z"/></g>
<g><path style="opacity:1" fill="#95d8c8" d="M 4797.5,2427.5 C 4805.22,2430.69 4812.89,2434.19 4820.5,2438C 4821.25,2438.67 4821.59,2439.5 4821.5,2440.5C 4810.4,2435.07 4799.4,2435.23 4788.5,2441C 4778.39,2449.12 4770.89,2459.29 4766,2471.5C 4753.8,2505.09 4749.47,2539.76 4753,2575.5C 4757.16,2623.79 4763.33,2671.79 4771.5,2719.5C 4774.83,2719.5 4778.17,2719.5 4781.5,2719.5C 4781.5,2737.83 4781.5,2756.17 4781.5,2774.5C 4777.17,2771 4773.34,2767 4770,2762.5C 4756.33,2741.84 4746.33,2719.5 4740,2695.5C 4720.4,2611.37 4729.73,2530.71 4768,2453.5C 4773.81,2444.36 4780.97,2436.53 4789.5,2430C 4791.91,2428.29 4794.58,2427.46 4797.5,2427.5 Z"/></g>
<g><path style="opacity:1" fill="#f37457" d="M 3340.5,2664.5 C 3339.14,2688.6 3341.97,2712.26 3349,2735.5C 3353.43,2749.03 3358.43,2762.37 3364,2775.5C 3370.8,2788.77 3377.3,2802.11 3383.5,2815.5C 3420.44,2823.11 3457.77,2825.61 3495.5,2823C 3504.7,2822.46 3513.7,2820.96 3522.5,2818.5C 3527.27,2820.88 3532.27,2822.72 3537.5,2824C 3546.83,2824.33 3556.17,2824.67 3565.5,2825C 3574.11,2826.48 3582.11,2829.48 3589.5,2834C 3600.11,2844.16 3601.11,2854.99 3592.5,2866.5C 3591.21,2866.26 3590.21,2866.6 3589.5,2867.5C 3455.87,2868.5 3322.21,2868.83 3188.5,2868.5C 3185.61,2857.03 3184.77,2845.36 3186,2833.5C 3188.32,2824.7 3192.82,2817.2 3199.5,2811C 3232.48,2789.37 3266.48,2769.37 3301.5,2751C 3262.8,2762.52 3227.13,2780.18 3194.5,2804C 3181.15,2814.19 3173.65,2827.69 3172,2844.5C 3171.31,2852.19 3171.48,2859.86 3172.5,2867.5C 3154.5,2867.5 3136.5,2867.5 3118.5,2867.5C 3121.74,2851.26 3115.74,2840.1 3100.5,2834C 3096.29,2832.29 3091.96,2830.96 3087.5,2830C 3063.64,2826.41 3039.64,2824.41 3015.5,2824C 3036.15,2811.02 3053.99,2794.85 3069,2775.5C 3090.07,2733.23 3092.07,2689.89 3075,2645.5C 3067.49,2629.49 3055.99,2617.16 3040.5,2608.5C 3039.3,2608.85 3039.3,2609.35 3040.5,2610C 3051.78,2617.69 3059.28,2628.19 3063,2641.5C 3072.28,2682.3 3068.61,2721.97 3052,2760.5C 3045.86,2773.99 3037.36,2785.82 3026.5,2796C 3009.87,2808.81 2991.87,2819.31 2972.5,2827.5C 2994.83,2828.33 3017.16,2828.83 3039.5,2829C 3051,2829.57 3062.33,2831.24 3073.5,2834C 3089.83,2839.81 3096.49,2851.31 3093.5,2868.5C 2971.5,2868.5 2849.5,2868.5 2727.5,2868.5C 2727.22,2870.41 2727.55,2872.08 2728.5,2873.5C 2729.18,2877.19 2730.68,2880.52 2733,2883.5C 2742.97,2893.06 2754.81,2899.23 2768.5,2902C 2791.59,2906.64 2814.93,2909.3 2838.5,2910C 2882.18,2910.49 2925.85,2910.15 2969.5,2909C 2981.17,2909.94 2992.84,2910.94 3004.5,2912C 3033.06,2915.79 3059.39,2925.45 3083.5,2941C 3112.22,2962.71 3134.72,2989.54 3151,3021.5C 3170.27,3058.13 3174.6,3096.46 3164,3136.5C 3147.84,3185.32 3117.67,3222.82 3073.5,3249C 3062.73,3254.68 3051.23,3257.52 3039,3257.5C 3019.14,3257.07 3004.14,3248.41 2994,3231.5C 2985.7,3214.14 2989.87,3200.97 3006.5,3192C 3032.63,3187.54 3050.8,3173.04 3061,3148.5C 3073.96,3114.17 3075.96,3079.17 3067,3043.5C 3061.61,3022.54 3049.78,3006.37 3031.5,2995C 3007.26,2983.19 2981.59,2977.19 2954.5,2977C 2910.79,2975.41 2867.12,2973.08 2823.5,2970C 2798.35,2968.29 2774.01,2962.96 2750.5,2954C 2717.82,2937.48 2699.49,2910.98 2695.5,2874.5C 2695.39,2824.52 2702.22,2775.52 2716,2727.5C 2726.34,2688.13 2745.01,2653.47 2772,2623.5C 2825.6,2566.62 2891.43,2533.45 2969.5,2524C 3008.38,2521.46 3047.05,2523.46 3085.5,2530C 3136.78,2538.09 3184.78,2555.09 3229.5,2581C 3247.97,2593.13 3264.31,2607.8 3278.5,2625C 3296.72,2641.95 3317.38,2655.11 3340.5,2664.5 Z"/></g>
<g><path style="opacity:1" fill="#355389" d="M 6067.5,2525.5 C 6075.08,2525.75 6082.08,2527.91 6088.5,2532C 6093.97,2536.47 6099.13,2541.3 6104,2546.5C 6181.07,2646.06 6257.91,2745.73 6334.5,2845.5C 6321.32,2851.01 6307.98,2856.34 6294.5,2861.5C 6221.83,2762.84 6148.66,2664.51 6075,2566.5C 6073.44,2564.78 6072.61,2562.78 6072.5,2560.5C 6075.02,2548.18 6073.35,2536.51 6067.5,2525.5 Z"/></g>
<g><path style="opacity:1" fill="#f37357" d="M 3519.5,2816.5 C 3480.12,2820.71 3441.12,2818.54 3402.5,2810C 3381.58,2774.57 3367.74,2736.41 3361,2695.5C 3360.5,2684.17 3360.33,2672.84 3360.5,2661.5C 3360.44,2650.39 3362.61,2639.72 3367,2629.5C 3371.53,2624.49 3376.69,2620.33 3382.5,2617C 3395.55,2609.48 3408.88,2602.48 3422.5,2596C 3423.24,2592.38 3423.9,2588.72 3424.5,2585C 3431.6,2569.29 3441.94,2556.13 3455.5,2545.5C 3462.84,2539.67 3470.34,2534 3478,2528.5C 3482.27,2554.38 3485.6,2580.38 3488,2606.5C 3492.47,2607.99 3496.97,2609.49 3501.5,2611C 3524.49,2624.31 3545.49,2640.31 3564.5,2659C 3589.81,2654.71 3615.14,2650.21 3640.5,2645.5C 3639.39,2658.34 3635.55,2670.34 3629,2681.5C 3618.49,2698.34 3606.83,2714.34 3594,2729.5C 3586.87,2750.55 3579.54,2771.55 3572,2792.5C 3569.2,2794.29 3566.7,2796.46 3564.5,2799C 3550.37,2807.32 3535.37,2813.15 3519.5,2816.5 Z"/></g>
<g><path style="opacity:1" fill="#fdf8f6" d="M 4943.5,2606.5 C 4942.31,2603.05 4941.65,2599.39 4941.5,2595.5C 4948.99,2579.86 4956.49,2564.19 4964,2548.5C 4965.57,2546.08 4967.74,2544.74 4970.5,2544.5C 4970.66,2546.53 4970.5,2548.53 4970,2550.5C 4961.43,2569.31 4952.59,2587.98 4943.5,2606.5 Z"/></g>
<g><path style="opacity:1" fill="#86b1f2" d="M 6012.5,2588.5 C 6086.83,2687.17 6161.17,2785.83 6235.5,2884.5C 6228.01,2888.07 6220.35,2891.41 6212.5,2894.5C 6206.83,2896.5 6201.17,2898.5 6195.5,2900.5C 6114.2,2789.02 6033.03,2677.35 5952,2565.5C 5950.08,2561.14 5950.08,2556.81 5952,2552.5C 5957.3,2546.78 5963.47,2542.45 5970.5,2539.5C 5971.58,2539.46 5972.58,2539.13 5973.5,2538.5C 5986.99,2554.83 5999.99,2571.5 6012.5,2588.5 Z"/></g>
<g><path style="opacity:1" fill="#fefefe" d="M 6072.5,2560.5 C 6072.61,2562.78 6073.44,2564.78 6075,2566.5C 6148.66,2664.51 6221.83,2762.84 6294.5,2861.5C 6274.9,2869.47 6255.23,2877.14 6235.5,2884.5C 6161.17,2785.83 6086.83,2687.17 6012.5,2588.5C 6020.4,2586.72 6027.73,2583.55 6034.5,2579C 6050.36,2579.28 6063.03,2573.12 6072.5,2560.5 Z"/></g>
<g><path style="opacity:1" fill="#b4e3d8" d="M 5766.5,2532.5 C 5768.04,2554.98 5768.71,2577.65 5768.5,2600.5C 5768.5,2617 5768.17,2633.34 5767.5,2649.5C 5767.68,2610.49 5767.35,2571.49 5766.5,2532.5 Z"/></g>
<g><path style="opacity:1" fill="#b75741" d="M 3118.5,2867.5 C 3117.83,2867.5 3117.5,2867.83 3117.5,2868.5C 3109.5,2868.5 3101.5,2868.5 3093.5,2868.5C 3096.49,2851.31 3089.83,2839.81 3073.5,2834C 3062.33,2831.24 3051,2829.57 3039.5,2829C 3017.16,2828.83 2994.83,2828.33 2972.5,2827.5C 2991.87,2819.31 3009.87,2808.81 3026.5,2796C 3037.36,2785.82 3045.86,2773.99 3052,2760.5C 3068.61,2721.97 3072.28,2682.3 3063,2641.5C 3059.28,2628.19 3051.78,2617.69 3040.5,2610C 3039.3,2609.35 3039.3,2608.85 3040.5,2608.5C 3055.99,2617.16 3067.49,2629.49 3075,2645.5C 3092.07,2689.89 3090.07,2733.23 3069,2775.5C 3053.99,2794.85 3036.15,2811.02 3015.5,2824C 3039.64,2824.41 3063.64,2826.41 3087.5,2830C 3091.96,2830.96 3096.29,2832.29 3100.5,2834C 3115.74,2840.1 3121.74,2851.26 3118.5,2867.5 Z"/></g>
<g><path style="opacity:1" fill="#b75741" d="M 3360.5,2661.5 C 3360.33,2672.84 3360.5,2684.17 3361,2695.5C 3367.74,2736.41 3381.58,2774.57 3402.5,2810C 3441.12,2818.54 3480.12,2820.71 3519.5,2816.5C 3520.71,2816.93 3521.71,2817.6 3522.5,2818.5C 3513.7,2820.96 3504.7,2822.46 3495.5,2823C 3457.77,2825.61 3420.44,2823.11 3383.5,2815.5C 3377.3,2802.11 3370.8,2788.77 3364,2775.5C 3358.43,2762.37 3353.43,2749.03 3349,2735.5C 3341.97,2712.26 3339.14,2688.6 3340.5,2664.5C 3346.53,2666.29 3352.53,2668.29 3358.5,2670.5C 3359.17,2667.36 3359.83,2664.36 3360.5,2661.5 Z"/></g>
<g><path style="opacity:1" fill="#355389" d="M 1577.5,2680.5 C 1573.98,2705.03 1577.65,2728.36 1588.5,2750.5C 1604.54,2777.88 1626.21,2799.54 1653.5,2815.5C 1654.91,2815.97 1655.57,2816.97 1655.5,2818.5C 1636.23,2821.47 1619.23,2829.3 1604.5,2842C 1581.01,2863.8 1562.51,2889.3 1549,2918.5C 1543.97,2928.88 1539.81,2939.55 1536.5,2950.5C 1535.21,2951.06 1534.38,2952.06 1534,2953.5C 1529.53,2967.92 1524.86,2982.26 1520,2996.5C 1516.66,3009.01 1514.16,3021.68 1512.5,3034.5C 1509.73,3029.06 1507.23,3023.39 1505,3017.5C 1490.32,2972.6 1481.16,2926.6 1477.5,2879.5C 1477.5,2875.5 1477.5,2871.5 1477.5,2867.5C 1477.33,2855.5 1477.5,2843.5 1478,2831.5C 1479.7,2789.59 1493.7,2752.59 1520,2720.5C 1537.04,2704.07 1556.21,2690.73 1577.5,2680.5 Z"/></g>
<g><path style="opacity:1" fill="#f6a391" d="M 2223.5,2891.5 C 2265.82,2915.33 2309.49,2936.49 2354.5,2955C 2359.06,2956.65 2363.73,2957.31 2368.5,2957C 2377.28,2951.28 2386.61,2946.61 2396.5,2943C 2405.35,2941.4 2413.69,2942.74 2421.5,2947C 2443.35,2965.43 2465.02,2984.1 2486.5,3003C 2504.62,3018.24 2524.29,3031.24 2545.5,3042C 2560.34,3046.17 2575,3050.83 2589.5,3056C 2600.3,3061.15 2610.3,3067.48 2619.5,3075C 2641.92,3096.47 2637.58,3105.64 2606.5,3102.5C 2568.32,3098.07 2529.99,3094.9 2491.5,3093C 2442.53,3085.74 2394.53,3074.41 2347.5,3059C 2340.52,3055.34 2333.52,3051.67 2326.5,3048C 2307.9,3042.41 2289.57,3036.08 2271.5,3029C 2120.62,2980.71 1969.96,2932.04 1819.5,2883C 1778.09,2868.73 1736.76,2853.9 1695.5,2838.5C 1681.24,2833.37 1667.91,2826.7 1655.5,2818.5C 1655.57,2816.97 1654.91,2815.97 1653.5,2815.5C 1633.93,2776.19 1641.26,2742.69 1675.5,2715C 1712.83,2687.93 1754.16,2679.27 1799.5,2689C 1823.42,2693.15 1846.76,2699.48 1869.5,2708C 1909.67,2723.59 1948.67,2741.59 1986.5,2762C 2065.23,2805.7 2144.23,2848.87 2223.5,2891.5 Z"/></g>
<g><path style="opacity:1" fill="#476eb6" d="M 4922.5,2699.5 C 4925.97,2739.46 4928.97,2779.46 4931.5,2819.5C 4931.54,2825.89 4931.37,2832.23 4931,2838.5C 4931.33,2838.17 4931.67,2837.83 4932,2837.5C 4932.18,2840.69 4932.68,2843.69 4933.5,2846.5C 4934.97,2862.46 4935.97,2878.46 4936.5,2894.5C 4939.37,2906.59 4935.37,2915.43 4924.5,2921C 4909.84,2928 4894.5,2932.83 4878.5,2935.5C 4873.82,2920.15 4869.16,2904.82 4864.5,2889.5C 4876.24,2831.69 4884.24,2773.35 4888.5,2714.5C 4889.46,2712.74 4889.79,2710.74 4889.5,2708.5C 4895.77,2707.27 4902.1,2706.61 4908.5,2706.5C 4908.5,2704.17 4908.5,2701.83 4908.5,2699.5C 4913.32,2699.29 4917.98,2699.29 4922.5,2699.5 Z"/></g>
<g><path style="opacity:1" fill="#f6a391" d="M 4884.5,2709.5 C 4885.83,2709.5 4887.17,2709.5 4888.5,2709.5C 4888.5,2711.17 4888.5,2712.83 4888.5,2714.5C 4884.24,2773.35 4876.24,2831.69 4864.5,2889.5C 4857,2911.52 4847.5,2932.85 4836,2953.5C 4813.73,2992.39 4790.23,3030.39 4765.5,3067.5C 4762.82,3069.69 4760.65,3072.35 4759,3075.5C 4758.33,3085.83 4758.33,3096.17 4759,3106.5C 4761.91,3126.8 4764.58,3147.14 4767,3167.5C 4767.8,3174.88 4767.63,3182.22 4766.5,3189.5C 4763.77,3190.94 4761.61,3190.27 4760,3187.5C 4753.64,3176.58 4748.14,3165.25 4743.5,3153.5C 4741.23,3170.88 4738.73,3188.21 4736,3205.5C 4734.9,3208.86 4733.4,3212.03 4731.5,3215C 4729.5,3215.67 4727.5,3215.67 4725.5,3215C 4722.73,3211.29 4721.23,3207.13 4721,3202.5C 4720.67,3189.17 4720.33,3175.83 4720,3162.5C 4719.05,3159.8 4717.22,3158.97 4714.5,3160C 4710.97,3165.56 4707.8,3171.4 4705,3177.5C 4699.68,3192.12 4693.85,3206.46 4687.5,3220.5C 4684.53,3224.3 4681.03,3227.64 4677,3230.5C 4676.79,3232.06 4676.29,3233.39 4675.5,3234.5C 4675.5,3233.17 4675.5,3231.83 4675.5,3230.5C 4673.1,3230.61 4671.26,3229.61 4670,3227.5C 4668.06,3221.51 4668.06,3215.51 4670,3209.5C 4673.08,3200.09 4676.25,3190.76 4679.5,3181.5C 4683.35,3173.61 4686.02,3165.27 4687.5,3156.5C 4684.21,3157.79 4681.88,3160.12 4680.5,3163.5C 4671.69,3177.1 4662.86,3190.77 4654,3204.5C 4651.5,3207 4649,3209.5 4646.5,3212C 4640.36,3214.87 4638.02,3212.87 4639.5,3206C 4642.96,3188.27 4648.46,3171.11 4656,3154.5C 4657.8,3148.11 4659.8,3141.77 4662,3135.5C 4662.67,3133.17 4662.67,3130.83 4662,3128.5C 4660.13,3127.33 4658.3,3127.49 4656.5,3129C 4649.36,3136.48 4641.36,3142.81 4632.5,3148C 4620.45,3149.39 4618.28,3145.23 4626,3135.5C 4639.93,3120.57 4651.93,3104.24 4662,3086.5C 4666.29,3080.37 4671.13,3074.71 4676.5,3069.5C 4680.18,3066.66 4684.01,3064 4688,3061.5C 4704.06,3031.04 4720.4,3000.71 4737,2970.5C 4752.14,2942.88 4765.14,2914.21 4776,2884.5C 4777.83,2871.87 4779.33,2859.2 4780.5,2846.5C 4781.29,2822.51 4781.63,2798.51 4781.5,2774.5C 4781.5,2756.17 4781.5,2737.83 4781.5,2719.5C 4815.92,2717.01 4850.25,2713.67 4884.5,2709.5 Z"/></g>
<g><path style="opacity:1" fill="#a0969f" d="M 4884.5,2709.5 C 4885.92,2708.55 4887.59,2708.22 4889.5,2708.5C 4889.79,2710.74 4889.46,2712.74 4888.5,2714.5C 4888.5,2712.83 4888.5,2711.17 4888.5,2709.5C 4887.17,2709.5 4885.83,2709.5 4884.5,2709.5 Z"/></g>
<g><path style="opacity:1" fill="#fefefe" d="M 5489.5,2789.5 C 5526.99,2904.08 5564.83,3018.74 5603,3133.5C 5771.83,3290.33 5940.67,3447.17 6109.5,3604C 6112.2,3602.86 6114.86,3601.36 6117.5,3599.5C 6125.14,3611.33 6132.64,3623.33 6140,3635.5C 6144.45,3643.55 6148.12,3651.88 6151,3660.5C 6151.62,3679.51 6149.46,3698.18 6144.5,3716.5C 6122.25,3761.66 6101.09,3807.33 6081,3853.5C 6079.14,3858.5 6077.97,3863.67 6077.5,3869C 6078.55,3873.94 6080.55,3878.44 6083.5,3882.5C 5845,3883.5 5606.33,3883.83 5367.5,3883.5C 5367.18,3869.77 5366.01,3856.1 5364,3842.5C 5361.34,3827.19 5357.84,3812.19 5353.5,3797.5C 5350.55,3788.7 5348.38,3779.7 5347,3770.5C 5346.5,3753.17 5346.33,3735.84 5346.5,3718.5C 5353.98,3717.51 5361.65,3717.17 5369.5,3717.5C 5366.72,3607.19 5365.55,3496.86 5366,3386.5C 5369.63,3347.46 5367.3,3308.8 5359,3270.5C 5346.9,3219.67 5332.9,3169.33 5317,3119.5C 5313.34,3105.69 5309.84,3091.86 5306.5,3078C 5321.52,3043.11 5339.02,3009.61 5359,2977.5C 5400.3,2913.2 5443.8,2850.53 5489.5,2789.5 Z"/></g>
<g><path style="opacity:1" fill="#f37457" d="M 6910.5,3098.5 C 6824.31,3124.79 6739.31,3154.29 6655.5,3187C 6651.96,3188.62 6648.29,3189.28 6644.5,3189C 6581.82,3118.32 6515.65,3050.82 6446,2986.5C 6446.04,2988.28 6446.71,2989.95 6448,2991.5C 6456.38,3001.88 6464.38,3012.55 6472,3023.5C 6524.36,3089.52 6579.19,3153.36 6636.5,3215C 6700.93,3190.46 6764.93,3164.63 6828.5,3137.5C 6993.24,3281.39 7158.24,3425.05 7323.5,3568.5C 7286.34,3595.91 7248.67,3622.58 7210.5,3648.5C 7208.08,3644.9 7205.41,3641.4 7202.5,3638C 7167.07,3638.31 7132.74,3632.31 7099.5,3620C 7058.77,3603.99 7019.44,3585.33 6981.5,3564C 6921.46,3527.65 6863.46,3488.31 6807.5,3446C 6698.07,3360.88 6592.74,3270.54 6491.5,3175C 6396.8,3085.3 6304.3,2993.14 6214,2898.5C 6213.21,2897.26 6212.71,2895.92 6212.5,2894.5C 6220.35,2891.41 6228.01,2888.07 6235.5,2884.5C 6255.23,2877.14 6274.9,2869.47 6294.5,2861.5C 6307.98,2856.34 6321.32,2851.01 6334.5,2845.5C 6440.13,2807.76 6546.13,2806.93 6652.5,2843C 6705.04,2861.84 6750.54,2891.34 6789,2931.5C 6830.99,2986.14 6872.49,3041.14 6913.5,3096.5C 6913,3097.92 6912,3098.59 6910.5,3098.5 Z"/></g>
<g><path style="opacity:1" fill="#f38c7e" d="M 1655.5,2818.5 C 1667.91,2826.7 1681.24,2833.37 1695.5,2838.5C 1736.76,2853.9 1778.09,2868.73 1819.5,2883C 1969.96,2932.04 2120.62,2980.71 2271.5,3029C 2289.57,3036.08 2307.9,3042.41 2326.5,3048C 2333.52,3051.67 2340.52,3055.34 2347.5,3059C 2394.53,3074.41 2442.53,3085.74 2491.5,3093C 2529.99,3094.9 2568.32,3098.07 2606.5,3102.5C 2609.55,3107.01 2611.21,3112.01 2611.5,3117.5C 2611.85,3120.97 2610.52,3123.47 2607.5,3125C 2548.09,3127.2 2488.76,3125.86 2429.5,3121C 2361.44,3108.39 2293.44,3095.39 2225.5,3082C 2200.13,3077.88 2174.79,3073.55 2149.5,3069C 2030.61,3052.86 1911.95,3035.36 1793.5,3016.5C 1720.35,3005.48 1647.68,2991.98 1575.5,2976C 1558.63,2973.28 1545.63,2964.78 1536.5,2950.5C 1539.81,2939.55 1543.97,2928.88 1549,2918.5C 1562.51,2889.3 1581.01,2863.8 1604.5,2842C 1619.23,2829.3 1636.23,2821.47 1655.5,2818.5 Z"/></g>
<g><path style="opacity:1" fill="#b85943" d="M 3188.5,2868.5 C 3165.17,2868.5 3141.83,2868.5 3118.5,2868.5C 3118.17,2868.5 3117.83,2868.5 3117.5,2868.5C 3117.5,2867.83 3117.83,2867.5 3118.5,2867.5C 3136.5,2867.5 3154.5,2867.5 3172.5,2867.5C 3171.48,2859.86 3171.31,2852.19 3172,2844.5C 3173.65,2827.69 3181.15,2814.19 3194.5,2804C 3227.13,2780.18 3262.8,2762.52 3301.5,2751C 3266.48,2769.37 3232.48,2789.37 3199.5,2811C 3192.82,2817.2 3188.32,2824.7 3186,2833.5C 3184.77,2845.36 3185.61,2857.03 3188.5,2868.5 Z"/></g>
<g><path style="opacity:1" fill="#718cc6" d="M 4931.5,2819.5 C 4932.69,2828.31 4933.36,2837.31 4933.5,2846.5C 4932.68,2843.69 4932.18,2840.69 4932,2837.5C 4931.67,2837.83 4931.33,2838.17 4931,2838.5C 4931.37,2832.23 4931.54,2825.89 4931.5,2819.5 Z"/></g>
<g><path style="opacity:1" fill="#10364b" d="M 3815.5,2867.5 C 3740.17,2867.5 3664.83,2867.5 3589.5,2867.5C 3590.21,2866.6 3591.21,2866.26 3592.5,2866.5C 3593.82,2866.67 3594.99,2866.34 3596,2865.5C 3669.26,2866.17 3742.43,2866.83 3815.5,2867.5 Z"/></g>
<g><path style="opacity:1" fill="#4bae97" d="M 1187.5,2867.5 C 1284.17,2867.5 1380.83,2867.5 1477.5,2867.5C 1477.5,2871.5 1477.5,2875.5 1477.5,2879.5C 1476.52,2876.04 1476.19,2872.37 1476.5,2868.5C 1380,2868.83 1283.67,2868.5 1187.5,2867.5 Z"/></g>
<g><path style="opacity:1" fill="#66b199" d="M 3093.5,2868.5 C 3101.5,2868.5 3109.5,2868.5 3117.5,2868.5C 3117.83,2868.5 3118.17,2868.5 3118.5,2868.5C 2988.67,2869.5 2858.67,2869.83 2728.5,2869.5C 2728.5,2870.83 2728.5,2872.17 2728.5,2873.5C 2727.55,2872.08 2727.22,2870.41 2727.5,2868.5C 2849.5,2868.5 2971.5,2868.5 3093.5,2868.5 Z"/></g>
<g><path style="opacity:1" fill="#b75741" d="M 6212.5,2894.5 C 6212.71,2895.92 6213.21,2897.26 6214,2898.5C 6304.3,2993.14 6396.8,3085.3 6491.5,3175C 6592.74,3270.54 6698.07,3360.88 6807.5,3446C 6863.46,3488.31 6921.46,3527.65 6981.5,3564C 7019.44,3585.33 7058.77,3603.99 7099.5,3620C 7132.74,3632.31 7167.07,3638.31 7202.5,3638C 7205.41,3641.4 7208.08,3644.9 7210.5,3648.5C 7116.01,3687.23 7021.01,3725.23 6925.5,3762.5C 6901.85,3731.33 6870.85,3720.16 6832.5,3729C 6822.2,3732.04 6812.86,3736.87 6804.5,3743.5C 6595.86,3465.19 6387.19,3186.85 6178.5,2908.5C 6184.06,2905.43 6189.73,2902.77 6195.5,2900.5C 6201.17,2898.5 6206.83,2896.5 6212.5,2894.5 Z"/></g>
<g><path style="opacity:1" fill="#96d8c8" d="M 4864.5,2889.5 C 4869.16,2904.82 4873.82,2920.15 4878.5,2935.5C 4887.72,2965.66 4897.05,2995.82 4906.5,3026C 4906.41,3027.11 4906.08,3028.11 4905.5,3029C 4898.86,3032.48 4892.19,3035.64 4885.5,3038.5C 4846.78,3053.18 4806.78,3062.85 4765.5,3067.5C 4790.23,3030.39 4813.73,2992.39 4836,2953.5C 4847.5,2932.85 4857,2911.52 4864.5,2889.5 Z"/></g>
<g><path style="opacity:1" fill="#13375b" d="M 1536.5,2950.5 C 1545.63,2964.78 1558.63,2973.28 1575.5,2976C 1647.68,2991.98 1720.35,3005.48 1793.5,3016.5C 1743.54,3033.45 1692.21,3045.62 1639.5,3053C 1612.96,3056.99 1586.3,3058.32 1559.5,3057C 1545.1,3056.4 1531.77,3052.4 1519.5,3045C 1516.53,3041.87 1514.19,3038.37 1512.5,3034.5C 1514.16,3021.68 1516.66,3009.01 1520,2996.5C 1524.86,2982.26 1529.53,2967.92 1534,2953.5C 1534.38,2952.06 1535.21,2951.06 1536.5,2950.5 Z"/></g>
<g><path style="opacity:1" fill="#b75741" d="M 4500.5,3027.5 C 4507.96,3032.74 4515.96,3037.24 4524.5,3041C 4560.45,3053.82 4597.45,3061.99 4635.5,3065.5C 4640.94,3066.88 4646.61,3067.55 4652.5,3067.5C 4660.36,3068.26 4668.36,3068.93 4676.5,3069.5C 4671.13,3074.71 4666.29,3080.37 4662,3086.5C 4651.93,3104.24 4639.93,3120.57 4626,3135.5C 4618.28,3145.23 4620.45,3149.39 4632.5,3148C 4641.36,3142.81 4649.36,3136.48 4656.5,3129C 4658.3,3127.49 4660.13,3127.33 4662,3128.5C 4662.67,3130.83 4662.67,3133.17 4662,3135.5C 4659.8,3141.77 4657.8,3148.11 4656,3154.5C 4648.46,3171.11 4642.96,3188.27 4639.5,3206C 4638.02,3212.87 4640.36,3214.87 4646.5,3212C 4649,3209.5 4651.5,3207 4654,3204.5C 4662.86,3190.77 4671.69,3177.1 4680.5,3163.5C 4680.57,3169.53 4680.24,3175.53 4679.5,3181.5C 4676.25,3190.76 4673.08,3200.09 4670,3209.5C 4668.06,3215.51 4668.06,3221.51 4670,3227.5C 4671.26,3229.61 4673.1,3230.61 4675.5,3230.5C 4675.5,3231.83 4675.5,3233.17 4675.5,3234.5C 4673.32,3266.16 4671.32,3297.82 4669.5,3329.5C 4668.04,3337.62 4667.37,3345.96 4667.5,3354.5C 4661.83,3439.16 4656.17,3523.83 4650.5,3608.5C 4648.96,3616.62 4648.29,3624.95 4648.5,3633.5C 4645.62,3675.16 4642.96,3716.82 4640.5,3758.5C 4639.17,3758.5 4637.83,3758.5 4636.5,3758.5C 4607.5,3758.5 4578.5,3758.5 4549.5,3758.5C 4544.17,3758.5 4538.83,3758.5 4533.5,3758.5C 4533.74,3749.62 4533.07,3740.95 4531.5,3732.5C 4518.48,3533.66 4508.31,3334.66 4501,3135.5C 4500.5,3099.5 4500.33,3063.5 4500.5,3027.5 Z"/></g>
<g><path style="opacity:1" fill="#f47457" d="M 4885.5,3038.5 C 4887.09,3042.2 4887.92,3046.2 4888,3050.5C 4891.02,3092.22 4894.52,3133.88 4898.5,3175.5C 4898.25,3181.08 4898.92,3186.42 4900.5,3191.5C 4905.49,3240.35 4911.99,3289.02 4920,3337.5C 4923.94,3358.88 4929.27,3379.88 4936,3400.5C 4944.08,3415.33 4951.08,3430.66 4957,3446.5C 4966.34,3472.54 4974.67,3498.87 4982,3525.5C 4999.63,3592.25 5014.79,3659.58 5027.5,3727.5C 5020.53,3728.39 5013.86,3730.05 5007.5,3732.5C 4980.3,3738.8 4953.3,3745.47 4926.5,3752.5C 4918.63,3754.43 4910.8,3756.43 4903,3758.5C 4852.81,3642.28 4802.81,3525.95 4753,3409.5C 4731.45,3346.35 4709.62,3283.35 4687.5,3220.5C 4693.85,3206.46 4699.68,3192.12 4705,3177.5C 4707.8,3171.4 4710.97,3165.56 4714.5,3160C 4717.22,3158.97 4719.05,3159.8 4720,3162.5C 4720.33,3175.83 4720.67,3189.17 4721,3202.5C 4721.23,3207.13 4722.73,3211.29 4725.5,3215C 4727.5,3215.67 4729.5,3215.67 4731.5,3215C 4733.4,3212.03 4734.9,3208.86 4736,3205.5C 4738.73,3188.21 4741.23,3170.88 4743.5,3153.5C 4748.14,3165.25 4753.64,3176.58 4760,3187.5C 4761.61,3190.27 4763.77,3190.94 4766.5,3189.5C 4767.63,3182.22 4767.8,3174.88 4767,3167.5C 4764.58,3147.14 4761.91,3126.8 4759,3106.5C 4758.33,3096.17 4758.33,3085.83 4759,3075.5C 4760.65,3072.35 4762.82,3069.69 4765.5,3067.5C 4806.78,3062.85 4846.78,3053.18 4885.5,3038.5 Z"/></g>
<g><path style="opacity:1" fill="#a5a794" d="M 4635.5,3065.5 C 4641.39,3065.45 4647.06,3066.12 4652.5,3067.5C 4646.61,3067.55 4640.94,3066.88 4635.5,3065.5 Z"/></g>
<g><path style="opacity:1" fill="#b75741" d="M 6910.5,3098.5 C 6883.3,3111.89 6855.97,3124.89 6828.5,3137.5C 6764.93,3164.63 6700.93,3190.46 6636.5,3215C 6579.19,3153.36 6524.36,3089.52 6472,3023.5C 6464.38,3012.55 6456.38,3001.88 6448,2991.5C 6446.71,2989.95 6446.04,2988.28 6446,2986.5C 6515.65,3050.82 6581.82,3118.32 6644.5,3189C 6648.29,3189.28 6651.96,3188.62 6655.5,3187C 6739.31,3154.29 6824.31,3124.79 6910.5,3098.5 Z"/></g>
<g><path style="opacity:1" fill="#f37356" d="M 4679.5,3181.5 C 4680.24,3175.53 4680.57,3169.53 4680.5,3163.5C 4681.88,3160.12 4684.21,3157.79 4687.5,3156.5C 4686.02,3165.27 4683.35,3173.61 4679.5,3181.5 Z"/></g>
<g><path style="opacity:1" fill="#f79c85" d="M 4898.5,3175.5 C 4899.81,3180.62 4900.47,3185.95 4900.5,3191.5C 4898.92,3186.42 4898.25,3181.08 4898.5,3175.5 Z"/></g>
<g><path style="opacity:1" fill="#fefefe" d="M 4687.5,3220.5 C 4709.62,3283.35 4731.45,3346.35 4753,3409.5C 4802.81,3525.95 4852.81,3642.28 4903,3758.5C 4910.8,3756.43 4918.63,3754.43 4926.5,3752.5C 4927.12,3752.61 4927.62,3752.94 4928,3753.5C 4930.73,3766.6 4929.39,3779.27 4924,3791.5C 4916.77,3805.63 4906.93,3817.63 4894.5,3827.5C 4868.41,3841.71 4846.08,3860.37 4827.5,3883.5C 4774.66,3883.83 4722,3883.5 4669.5,3882.5C 4672.28,3873.02 4671.78,3863.69 4668,3854.5C 4660.75,3835.47 4651.25,3817.8 4639.5,3801.5C 4636.98,3787.29 4635.98,3772.95 4636.5,3758.5C 4637.83,3758.5 4639.17,3758.5 4640.5,3758.5C 4642.96,3716.82 4645.62,3675.16 4648.5,3633.5C 4649.68,3625.36 4650.34,3617.02 4650.5,3608.5C 4656.17,3523.83 4661.83,3439.16 4667.5,3354.5C 4668.77,3346.36 4669.43,3338.03 4669.5,3329.5C 4671.32,3297.82 4673.32,3266.16 4675.5,3234.5C 4676.29,3233.39 4676.79,3232.06 4677,3230.5C 4681.03,3227.64 4684.53,3224.3 4687.5,3220.5 Z"/></g>
<g><path style="opacity:1" fill="#6c8b90" d="M 925.5,3337.5 C 926.492,3337.33 927.158,3337.66 927.5,3338.5C 926.501,3414.33 926.167,3490.33 926.5,3566.5C 925.501,3490.34 925.167,3414 925.5,3337.5 Z"/></g>
<g><path style="opacity:1" fill="#184555" d="M 927.5,3338.5 C 951.244,3351.02 976.578,3356.85 1003.5,3356C 1017.58,3361.72 1032.24,3365.22 1047.5,3366.5C 1542.5,3367.17 2037.67,3367.5 2533,3367.5C 3028.17,3367.33 3523.33,3367.17 4018.5,3367C 4022.36,3366.82 4026.02,3366.32 4029.5,3365.5C 4034.48,3364.72 4039.48,3364.06 4044.5,3363.5C 4044.67,3433.17 4044.5,3502.83 4044,3572.5C 4036.37,3619.78 4009.87,3650.61 3964.5,3665C 3959.23,3666.32 3953.89,3667.32 3948.5,3668C 3847.5,3668.5 3746.5,3668.67 3645.5,3668.5C 3637.95,3740.46 3630.62,3812.46 3623.5,3884.5C 3588.5,3884.5 3553.5,3884.5 3518.5,3884.5C 3518.5,3881.83 3518.5,3879.17 3518.5,3876.5C 3518.64,3871.59 3517.97,3866.92 3516.5,3862.5C 3510.56,3800.65 3504.22,3738.99 3497.5,3677.5C 3497.5,3674.5 3497.5,3671.5 3497.5,3668.5C 2815.67,3668.17 2134,3668.5 1452.5,3669.5C 1445.62,3741.13 1439.29,3812.79 1433.5,3884.5C 1403.17,3884.5 1372.83,3884.5 1342.5,3884.5C 1337.16,3815.1 1331.16,3745.77 1324.5,3676.5C 1324.5,3673.83 1324.5,3671.17 1324.5,3668.5C 1225.5,3668.5 1126.5,3668.5 1027.5,3668.5C 978.668,3663.5 946.168,3637.84 930,3591.5C 928.039,3583.27 926.872,3574.94 926.5,3566.5C 926.167,3490.33 926.501,3414.33 927.5,3338.5 Z"/></g>
<g><path style="opacity:1" fill="#d29586" d="M 4669.5,3329.5 C 4669.43,3338.03 4668.77,3346.36 4667.5,3354.5C 4667.37,3345.96 4668.04,3337.62 4669.5,3329.5 Z"/></g>
<g><path style="opacity:1" fill="#409888" d="M 4029.5,3365.5 C 4026.02,3366.32 4022.36,3366.82 4018.5,3367C 3523.33,3367.17 3028.17,3367.33 2533,3367.5C 2037.67,3367.5 1542.5,3367.17 1047.5,3366.5C 2041.51,3366.83 3035.51,3366.5 4029.5,3365.5 Z"/></g>
<g><path style="opacity:1" fill="#f6a491" d="M 6186.5,3548.5 C 6202.53,3567.7 6219.53,3586.2 6237.5,3604C 6243.41,3608.09 6249.41,3611.92 6255.5,3615.5C 6243.37,3636.15 6228.7,3654.98 6211.5,3672C 6195.09,3686.57 6177.43,3699.41 6158.5,3710.5C 6154.03,3713.07 6149.37,3715.07 6144.5,3716.5C 6149.46,3698.18 6151.62,3679.51 6151,3660.5C 6148.12,3651.88 6144.45,3643.55 6140,3635.5C 6132.64,3623.33 6125.14,3611.33 6117.5,3599.5C 6140.32,3582.26 6163.32,3565.26 6186.5,3548.5 Z"/></g>
<g><path style="opacity:1" fill="#f6cc7e" d="M 6255.5,3615.5 C 6277.83,3626.08 6299.33,3638.08 6320,3651.5C 6321.75,3653.21 6322.42,3655.21 6322,3657.5C 6306.58,3680.01 6290.91,3702.34 6275,3724.5C 6228.88,3782.13 6177.71,3834.79 6121.5,3882.5C 6120.5,3882.83 6119.83,3883.5 6119.5,3884.5C 6113.82,3889.35 6107.99,3894.01 6102,3898.5C 6099.61,3897.72 6097.44,3896.56 6095.5,3895C 6092.3,3891.63 6088.96,3888.46 6085.5,3885.5C 6085.5,3885.17 6085.5,3884.83 6085.5,3884.5C 6085.17,3883.5 6084.5,3882.83 6083.5,3882.5C 6080.55,3878.44 6078.55,3873.94 6077.5,3869C 6077.97,3863.67 6079.14,3858.5 6081,3853.5C 6101.09,3807.33 6122.25,3761.66 6144.5,3716.5C 6149.37,3715.07 6154.03,3713.07 6158.5,3710.5C 6177.43,3699.41 6195.09,3686.57 6211.5,3672C 6228.7,3654.98 6243.37,3636.15 6255.5,3615.5 Z"/></g>
<g><path style="opacity:1" fill="#d18e80" d="M 4650.5,3608.5 C 4650.34,3617.02 4649.68,3625.36 4648.5,3633.5C 4648.29,3624.95 4648.96,3616.62 4650.5,3608.5 Z"/></g>
<g><path style="opacity:1" fill="#d1dadf" d="M 1027.5,3668.5 C 1126.5,3668.5 1225.5,3668.5 1324.5,3668.5C 1324.5,3671.17 1324.5,3673.83 1324.5,3676.5C 1323.53,3674.39 1323.2,3672.06 1323.5,3669.5C 1224.67,3669.83 1126,3669.5 1027.5,3668.5 Z"/></g>
<g><path style="opacity:1" fill="#d2dbe0" d="M 1452.5,3669.5 C 2134,3668.5 2815.67,3668.17 3497.5,3668.5C 3497.5,3671.5 3497.5,3674.5 3497.5,3677.5C 3496.53,3675.05 3496.19,3672.39 3496.5,3669.5C 2815.17,3669.5 2133.83,3669.5 1452.5,3669.5 Z"/></g>
<g><path style="opacity:1" fill="#fefefe" d="M 1452.5,3669.5 C 2133.83,3669.5 2815.17,3669.5 3496.5,3669.5C 3496.19,3672.39 3496.53,3675.05 3497.5,3677.5C 3504.22,3738.99 3510.56,3800.65 3516.5,3862.5C 3516.36,3867.41 3517.03,3872.08 3518.5,3876.5C 3518.5,3879.17 3518.5,3881.83 3518.5,3884.5C 2823.5,3884.5 2128.5,3884.5 1433.5,3884.5C 1439.29,3812.79 1445.62,3741.13 1452.5,3669.5 Z"/></g>
<g><path style="opacity:1" fill="#f6a491" d="M 5346.5,3718.5 C 5346.33,3735.84 5346.5,3753.17 5347,3770.5C 5348.38,3779.7 5350.55,3788.7 5353.5,3797.5C 5306.73,3813.36 5259.39,3814.69 5211.5,3801.5C 5225.67,3791.83 5238.51,3780.5 5250,3767.5C 5256.87,3752.59 5261.04,3736.93 5262.5,3720.5C 5290.48,3719.05 5318.48,3718.38 5346.5,3718.5 Z"/></g>
<g><path style="opacity:1" fill="#355389" d="M 6925.5,3762.5 C 6945.42,3796.81 6943.92,3830.14 6921,3862.5C 6912.95,3871.42 6903.78,3878.75 6893.5,3884.5C 6868.17,3896.38 6842.84,3896.38 6817.5,3884.5C 6817.5,3883.83 6817.17,3883.5 6816.5,3883.5C 6796.69,3872.51 6783.19,3856.18 6776,3834.5C 6766.55,3798.03 6776.05,3767.69 6804.5,3743.5C 6812.86,3736.87 6822.2,3732.04 6832.5,3729C 6870.85,3720.16 6901.85,3731.33 6925.5,3762.5 Z"/></g>
<g><path style="opacity:1" fill="#f6a391" d="M 5007.5,3732.5 C 5012.2,3747.26 5017.86,3761.6 5024.5,3775.5C 4997.88,3809.14 4962.88,3826.31 4919.5,3827C 4911.17,3827.5 4902.84,3827.67 4894.5,3827.5C 4906.93,3817.63 4916.77,3805.63 4924,3791.5C 4929.39,3779.27 4930.73,3766.6 4928,3753.5C 4927.62,3752.94 4927.12,3752.61 4926.5,3752.5C 4953.3,3745.47 4980.3,3738.8 5007.5,3732.5 Z"/></g>
<g><path style="opacity:1" fill="#d79f92" d="M 4531.5,3732.5 C 4533.07,3740.95 4533.74,3749.62 4533.5,3758.5C 4532.18,3750.03 4531.52,3741.36 4531.5,3732.5 Z"/></g>
<g><path style="opacity:1" fill="#f6a391" d="M 4549.5,3758.5 C 4578.5,3758.5 4607.5,3758.5 4636.5,3758.5C 4635.98,3772.95 4636.98,3787.29 4639.5,3801.5C 4606.8,3828.44 4569.47,3837.94 4527.5,3830C 4518.72,3828.47 4510.05,3826.64 4501.5,3824.5C 4515.92,3817.02 4528.42,3807.02 4539,3794.5C 4546.65,3783.71 4550.15,3771.71 4549.5,3758.5 Z"/></g>
<g><path style="opacity:1" fill="#9bc0f7" d="M 6846.5,3775.5 C 6862.66,3772.41 6875.49,3777.41 6885,3790.5C 6894.2,3807.9 6891.7,3823.4 6877.5,3837C 6859.81,3848.46 6843.65,3846.62 6829,3831.5C 6818.04,3814.71 6819.2,3798.88 6832.5,3784C 6836.83,3780.48 6841.5,3777.64 6846.5,3775.5 Z"/></g>
<g><path style="opacity:1" fill="#355388" d="M 5024.5,3775.5 C 5027.06,3776.54 5029.22,3778.21 5031,3780.5C 5036,3786.17 5041,3791.83 5046,3797.5C 5056.58,3809.98 5064.58,3823.98 5070,3839.5C 5070.94,3844.4 5070.27,3849.07 5068,3853.5C 5064.25,3856.63 5060.08,3859.13 5055.5,3861C 5025.91,3870.94 4995.91,3878.78 4965.5,3884.5C 4927.39,3892.24 4888.89,3896.91 4850,3898.5C 4842.55,3898.9 4835.39,3897.73 4828.5,3895C 4826.24,3891.73 4825.9,3888.23 4827.5,3884.5C 4827.5,3884.17 4827.5,3883.83 4827.5,3883.5C 4846.08,3860.37 4868.41,3841.71 4894.5,3827.5C 4902.84,3827.67 4911.17,3827.5 4919.5,3827C 4962.88,3826.31 4997.88,3809.14 5024.5,3775.5 Z"/></g>
<g><path style="opacity:1" fill="#f6cb7e" d="M 5353.5,3797.5 C 5357.84,3812.19 5361.34,3827.19 5364,3842.5C 5366.01,3856.1 5367.18,3869.77 5367.5,3883.5C 5366.83,3883.5 5366.5,3883.83 5366.5,3884.5C 5365.66,3884.84 5365.33,3885.51 5365.5,3886.5C 5266.83,3886.87 5168.17,3887.04 5069.5,3887C 5068.93,3886.01 5068.27,3885.17 5067.5,3884.5C 5065.84,3878.64 5066.34,3872.97 5069,3867.5C 5072.57,3864.3 5076.4,3861.47 5080.5,3859C 5123.5,3838.17 5167.16,3819.01 5211.5,3801.5C 5259.39,3814.69 5306.73,3813.36 5353.5,3797.5 Z"/></g>
<g><path style="opacity:1" fill="#355388" d="M 4639.5,3801.5 C 4651.25,3817.8 4660.75,3835.47 4668,3854.5C 4671.78,3863.69 4672.28,3873.02 4669.5,3882.5C 4668.66,3882.84 4668.33,3883.51 4668.5,3884.5C 4667.5,3884.83 4666.83,3885.5 4666.5,3886.5C 4658.73,3889.08 4650.73,3890.91 4642.5,3892C 4632.49,3892.83 4622.49,3893.67 4612.5,3894.5C 4599.65,3894.58 4586.98,3895.24 4574.5,3896.5C 4535.82,3896.72 4497.16,3896.22 4458.5,3895C 4444.38,3894.36 4430.38,3892.7 4416.5,3890C 4415.29,3888.96 4414.29,3887.79 4413.5,3886.5C 4413.5,3885.83 4413.5,3885.17 4413.5,3884.5C 4415.81,3879.88 4418.65,3875.55 4422,3871.5C 4444.86,3849.83 4471.36,3834.16 4501.5,3824.5C 4510.05,3826.64 4518.72,3828.47 4527.5,3830C 4569.47,3837.94 4606.8,3828.44 4639.5,3801.5 Z"/></g>
<g><path style="opacity:1" fill="#879fa5" d="M 3516.5,3862.5 C 3517.97,3866.92 3518.64,3871.59 3518.5,3876.5C 3517.03,3872.08 3516.36,3867.41 3516.5,3862.5 Z"/></g>
<g><path style="opacity:1" fill="#fee5df" d="M 4669.5,3882.5 C 4722,3883.5 4774.66,3883.83 4827.5,3883.5C 4827.5,3883.83 4827.5,3884.17 4827.5,3884.5C 4826.83,3884.5 4826.17,3884.5 4825.5,3884.5C 4773.17,3884.5 4720.83,3884.5 4668.5,3884.5C 4668.33,3883.51 4668.66,3882.84 4669.5,3882.5 Z"/></g>
<g><path style="opacity:1" fill="#fee6df" d="M 6083.5,3882.5 C 6084.5,3882.83 6085.17,3883.5 6085.5,3884.5C 5845.83,3884.5 5606.17,3884.5 5366.5,3884.5C 5366.5,3883.83 5366.83,3883.5 5367.5,3883.5C 5606.33,3883.83 5845,3883.5 6083.5,3882.5 Z"/></g>
<g><path style="opacity:1" fill="#fee6df" d="M 6121.5,3882.5 C 6353,3883.5 6584.67,3883.83 6816.5,3883.5C 6817.17,3883.5 6817.5,3883.83 6817.5,3884.5C 6584.83,3884.5 6352.17,3884.5 6119.5,3884.5C 6119.83,3883.5 6120.5,3882.83 6121.5,3882.5 Z"/></g>
<g><path style="opacity:1" fill="#f37f66" d="M 818.5,3885.5 C 992.999,3884.5 1167.67,3884.17 1342.5,3884.5C 1372.83,3884.5 1403.17,3884.5 1433.5,3884.5C 2128.5,3884.5 2823.5,3884.5 3518.5,3884.5C 3553.5,3884.5 3588.5,3884.5 3623.5,3884.5C 3886.83,3884.5 4150.17,3884.5 4413.5,3884.5C 4413.5,3885.17 4413.5,3885.83 4413.5,3886.5C 3215.24,3885.5 2016.9,3885.17 818.5,3885.5 Z"/></g>
<g><path style="opacity:1" fill="#f38066" d="M 4668.5,3884.5 C 4720.83,3884.5 4773.17,3884.5 4825.5,3884.5C 4772.63,3885.18 4719.63,3885.84 4666.5,3886.5C 4666.83,3885.5 4667.5,3884.83 4668.5,3884.5 Z"/></g>
<g><path style="opacity:1" fill="#f47457" d="M 4825.5,3884.5 C 4826.17,3884.5 4826.83,3884.5 4827.5,3884.5C 4825.9,3888.23 4826.24,3891.73 4828.5,3895C 4835.39,3897.73 4842.55,3898.9 4850,3898.5C 4888.89,3896.91 4927.39,3892.24 4965.5,3884.5C 4999.5,3884.5 5033.5,3884.5 5067.5,3884.5C 5068.27,3885.17 5068.93,3886.01 5069.5,3887C 5168.17,3887.04 5266.83,3886.87 5365.5,3886.5C 5605.43,3885.5 5845.43,3885.17 6085.5,3885.5C 6088.96,3888.46 6092.3,3891.63 6095.5,3895C 6097.44,3896.56 6099.61,3897.72 6102,3898.5C 6107.99,3894.01 6113.82,3889.35 6119.5,3884.5C 6352.17,3884.5 6584.83,3884.5 6817.5,3884.5C 6842.84,3896.38 6868.17,3896.38 6893.5,3884.5C 7040.17,3884.33 7186.83,3884.5 7333.5,3885C 7344.09,3889.36 7347.93,3897.19 7345,3908.5C 7343.09,3914.74 7338.93,3918.57 7332.5,3920C 5161.83,3920.67 2991.17,3920.67 820.5,3920C 806.092,3914.78 802.258,3905.28 809,3891.5C 811.801,3888.85 814.968,3886.85 818.5,3885.5C 2016.9,3885.17 3215.24,3885.5 4413.5,3886.5C 4414.29,3887.79 4415.29,3888.96 4416.5,3890C 4430.38,3892.7 4444.38,3894.36 4458.5,3895C 4497.16,3896.22 4535.82,3896.72 4574.5,3896.5C 4582.21,3896.48 4589.88,3896.64 4597.5,3897C 4597.17,3896.67 4596.83,3896.33 4596.5,3896C 4602.02,3895.83 4607.35,3895.33 4612.5,3894.5C 4622.49,3893.67 4632.49,3892.83 4642.5,3892C 4650.73,3890.91 4658.73,3889.08 4666.5,3886.5C 4719.63,3885.84 4772.63,3885.18 4825.5,3884.5 Z"/></g>
<g><path style="opacity:1" fill="#f38067" d="M 5366.5,3884.5 C 5606.17,3884.5 5845.83,3884.5 6085.5,3884.5C 6085.5,3884.83 6085.5,3885.17 6085.5,3885.5C 5845.43,3885.17 5605.43,3885.5 5365.5,3886.5C 5365.33,3885.51 5365.66,3884.84 5366.5,3884.5 Z"/></g>
<g><path style="opacity:1" fill="#d86e60" d="M 4612.5,3894.5 C 4607.35,3895.33 4602.02,3895.83 4596.5,3896C 4596.83,3896.33 4597.17,3896.67 4597.5,3897C 4589.88,3896.64 4582.21,3896.48 4574.5,3896.5C 4586.98,3895.24 4599.65,3894.58 4612.5,3894.5 Z"/></g>
<g><path style="opacity:1" fill="#f27657" d="M 7327.5,3916.5 C 5159.5,3917.17 2991.5,3917.83 823.5,3918.5C 822.957,3918.44 822.624,3918.11 822.5,3917.5C 2990.83,3916.5 5159.17,3916.17 7327.5,3916.5 Z"/></g>
<g><path style="opacity:1" fill="#f47455" d="M 823.5,3918.5 C 2991.5,3917.83 5159.5,3917.17 7327.5,3916.5C 7328.3,3915.52 7328.96,3915.86 7329.5,3917.5C 5160.83,3918.5 2992.17,3918.83 823.5,3918.5 Z"/></g>
</svg>
