<svg width="125" height="49" viewBox="0 0 125 49" fill="none" xmlns="http://www.w3.org/2000/svg">
<g clip-path="url(#clip0_59811_3472)">
<path d="M64.5351 16.2298L70.4821 15.8241C70.6178 16.8504 70.8665 17.6142 71.2735 18.1631C71.9293 19.0223 72.8338 19.452 74.0322 19.452C74.9141 19.452 75.615 19.2372 76.0899 18.7837C76.5421 18.4257 76.8135 17.8528 76.8135 17.2562C76.8135 16.6833 76.5648 16.1344 76.1351 15.7764C75.6829 15.3467 74.6201 14.9171 72.9468 14.5353C70.2107 13.8908 68.2435 13.0316 67.0903 11.9337C65.937 10.9074 65.2813 9.40374 65.3265 7.80462C65.3265 6.70671 65.6431 5.6088 66.231 4.70184C66.9094 3.67554 67.8365 2.86404 68.9445 2.41056C70.1429 1.86161 71.8162 1.5752 73.9191 1.5752C76.4969 1.5752 78.4642 2.07641 79.8209 3.10272C81.1776 4.10515 81.9917 5.72814 82.2404 7.94782L76.3613 8.30583C76.203 7.35113 75.8864 6.65897 75.3663 6.20549C74.8462 5.75201 74.1679 5.5372 73.286 5.5372C72.5624 5.5372 72.0197 5.70427 71.6579 6.01455C71.3187 6.30096 71.0926 6.73058 71.1152 7.20793C71.1152 7.56594 71.2961 7.90008 71.5675 8.11489C71.8614 8.4013 72.5624 8.66385 73.6704 8.90252C76.4065 9.52308 78.3511 10.1436 79.5496 10.7881C80.748 11.4325 81.6073 12.2201 82.1273 13.1509C82.67 14.1056 82.9414 15.2035 82.9188 16.3253C82.9188 17.6619 82.557 18.9985 81.8334 20.1203C81.0872 21.2898 80.047 22.1967 78.826 22.7457C77.5371 23.3424 75.909 23.6526 73.9644 23.6526C70.5273 23.6526 68.153 22.9605 66.8189 21.5523C65.4848 20.1441 64.6934 18.3779 64.5351 16.2298ZM1.42457 23.2946V1.95708H11.8488C13.7708 1.95708 15.2632 2.12415 16.2808 2.48216C17.2757 2.81631 18.1576 3.50846 18.7455 4.4393C19.4012 5.4656 19.7178 6.65897 19.6952 7.90008C19.763 10.0004 18.7455 12.0053 17.0043 13.0555C16.326 13.4612 15.5798 13.7476 14.811 13.8908C15.3763 14.0579 15.9416 14.3443 16.439 14.6785C16.8234 15.0126 17.14 15.3945 17.434 15.8002C17.7732 16.206 18.0671 16.6595 18.3158 17.1368L21.3459 23.3185H14.2457L10.8991 16.7549C10.4694 15.9196 10.1076 15.3706 9.76845 15.1081C9.31621 14.7739 8.77352 14.6069 8.23083 14.6069H7.68813V23.2708H1.42457V23.2946ZM7.68813 10.5971H10.3338C10.8991 10.5494 11.4418 10.4539 11.9844 10.3107C12.3915 10.2391 12.7533 10.0004 13.002 9.64241C13.6125 8.78318 13.5221 7.56594 12.7759 6.82605C12.3688 6.46803 11.5774 6.27709 10.4468 6.27709H7.68813V10.5971ZM0 41.5771L5.947 41.1714C6.08267 42.1977 6.3314 42.9615 6.73842 43.5104C7.37156 44.3696 8.29866 44.8231 9.49711 44.8231C10.379 44.8231 11.08 44.6083 11.5548 44.1548C12.0071 43.7729 12.2784 43.224 12.2784 42.6273C12.2784 42.0545 12.0297 41.5055 11.6 41.1475C11.1478 40.7179 10.085 40.2883 8.38911 39.9064C5.65304 39.262 3.68578 38.4028 2.53256 37.3049C1.37934 36.2786 0.723589 34.7749 0.768813 33.1758C0.768813 32.0779 1.08538 30.98 1.6733 30.073C2.35166 29.0467 3.27876 28.2352 4.38676 27.7817C5.5852 27.2328 7.2585 26.9464 9.36143 26.9464C11.9392 26.9464 13.9065 27.4476 15.2632 28.4739C16.6199 29.5002 17.4114 31.0993 17.6601 33.319L11.7809 33.677C11.6226 32.7223 11.3061 32.0301 10.786 31.5767C10.2885 31.1232 9.58755 30.9084 8.70568 30.9322C7.98209 30.9322 7.4394 31.0993 7.0776 31.4334C6.71581 31.7199 6.5123 32.1495 6.53491 32.6268C6.53491 32.9848 6.71581 33.319 6.98716 33.5338C7.28111 33.8202 7.98209 34.0827 9.09009 34.3214C11.8262 34.942 13.7708 35.5625 14.9692 36.2069C16.1677 36.8514 17.027 37.639 17.547 38.5698C18.0897 39.5245 18.3611 40.6224 18.3611 41.7203C18.3611 43.0569 17.9767 44.3696 17.2757 45.4914C16.5295 46.6609 15.4893 47.5679 14.2683 48.1168C12.9794 48.7135 11.3513 49.0238 9.40666 49.0238C5.96961 49.0238 3.59533 48.3316 2.26122 46.9235C0.927099 45.4914 0.180897 43.7252 0 41.5771Z" fill="white"/>
<path d="M30.0742 39.9066L35.5464 41.6489C35.2524 43.1048 34.6419 44.4892 33.8052 45.7064C33.0364 46.7804 32.0189 47.6158 30.8656 48.1648C29.6898 48.7137 28.1974 49.0001 26.3884 49.0001C24.1951 49.0001 22.3861 48.666 21.0067 47.9977C19.6048 47.3294 18.4063 46.136 17.3888 44.4414C16.3712 42.7468 15.8738 40.5749 15.8738 37.9256C15.8738 34.3932 16.7557 31.6723 18.542 29.7868C20.3284 27.9012 22.8383 26.9465 26.0945 26.9465C28.6496 26.9465 30.6395 27.4955 32.1093 28.5695C33.5565 29.6674 34.6419 31.3382 35.3655 33.5817L29.8481 34.8705C29.7124 34.3693 29.5089 33.8681 29.2376 33.4385C28.8984 32.9373 28.4688 32.5554 27.9487 32.269C27.4286 31.9826 26.8407 31.8632 26.2528 31.8632C24.8282 31.8632 23.7428 32.4599 22.9966 33.6772C22.4313 34.5603 22.1373 35.9685 22.1373 37.8779C22.1373 40.2407 22.4765 41.8637 23.1549 42.7468C23.8333 43.6299 24.783 44.0595 26.0266 44.0595C27.2251 44.0595 28.1296 43.7015 28.7401 43.0094C29.3506 42.2695 29.8029 41.2432 30.0742 39.9066ZM42.8501 27.3045H49.091V34.7751H55.9199V27.3045H62.2061V48.6421H55.9199V40.0021H49.091V48.6421H42.8501V27.3045Z" fill="white"/>
<path d="M61.3468 37.9733C61.3468 34.4886 62.2739 31.7677 64.1055 29.8344C65.9371 27.9012 68.5149 26.9226 71.7936 26.9226C75.1628 26.9226 77.7406 27.8773 79.5722 29.7867C81.4038 31.6961 82.3083 34.3693 82.3083 37.8062C82.3083 40.3123 81.9013 42.341 81.1098 43.9401C80.341 45.5154 79.1426 46.8042 77.6728 47.6635C76.1578 48.5466 74.281 49.0001 72.0424 49.0001C69.7585 49.0001 67.8817 48.6182 66.3893 47.8544C64.8517 47.0429 63.5854 45.7779 62.7488 44.2266C61.8217 42.5558 61.3468 40.4794 61.3468 37.9733ZM67.5878 37.9971C67.5878 40.1452 67.9722 41.6966 68.7184 42.6513C69.4646 43.5821 70.5047 44.0595 71.8162 44.0595C73.1504 44.0595 74.1905 43.606 74.9367 42.6752C75.6829 41.7443 76.0447 40.0975 76.0447 37.7107C76.0447 35.7058 75.6603 34.2261 74.8915 33.3191C74.1227 32.3883 73.0825 31.9348 71.771 31.9348C70.6178 31.887 69.5098 32.4121 68.741 33.343C67.9722 34.2738 67.5878 35.8252 67.5878 37.9971ZM88.7075 37.9733C88.7075 34.4886 89.6346 31.7677 91.4662 29.8344C93.2978 27.9012 95.8756 26.9226 99.1543 26.9226C102.524 26.9226 105.124 27.8773 106.933 29.7867C108.742 31.6961 109.669 34.3693 109.669 37.8062C109.669 40.3123 109.262 42.341 108.471 43.9401C107.702 45.5154 106.503 46.8042 105.033 47.6635C103.518 48.5466 101.642 49.0001 99.4031 49.0001C97.1192 49.0001 95.2424 48.6182 93.75 47.8544C92.2124 47.0429 90.9461 45.7779 90.1095 44.2266C89.1824 42.5558 88.7075 40.4794 88.7075 37.9733ZM94.9485 37.9971C94.9485 40.1452 95.3329 41.6966 96.0791 42.6513C96.8253 43.5821 97.8654 44.0595 99.1769 44.0595C100.511 44.0595 101.551 43.606 102.297 42.6752C103.044 41.7443 103.405 40.0975 103.405 37.7107C103.405 35.7058 103.021 34.2261 102.252 33.3191C101.483 32.3883 100.443 31.9348 99.1317 31.9348C97.9785 31.887 96.8479 32.4121 96.1017 33.343C95.3329 34.2738 94.9485 35.8252 94.9485 37.9971Z" fill="white"/>
<path d="M109.013 27.3044H115.254V43.3911H125V48.642H108.991V27.3044H109.013Z" fill="white"/>
<path d="M102.134 26.073C108.418 21.0751 110.355 12.6029 106.462 7.14986C102.569 1.69676 94.3191 1.32772 88.0358 6.32558C81.7524 11.3234 79.8149 19.7956 83.7081 25.2487C87.6013 30.7018 95.851 31.0708 102.134 26.073Z" fill="white"/>
<path d="M102.18 26.1045C108.463 21.1066 110.401 12.6344 106.508 7.18135C102.615 1.72826 94.3648 1.35922 88.0815 6.35707C81.7982 11.3549 79.8607 19.8271 83.7539 25.2802C87.6471 30.7333 95.8968 31.1023 102.18 26.1045Z" fill="#4C50E1" stroke="black" stroke-width="4" stroke-miterlimit="10"/>
<path d="M102.18 26.1045C108.463 21.1066 110.401 12.6344 106.508 7.18135C102.615 1.72826 94.3648 1.35922 88.0815 6.35707C81.7982 11.3549 79.8607 19.8271 83.7539 25.2802C87.6471 30.7333 95.8968 31.1023 102.18 26.1045Z" fill="white"/>
<path d="M102.18 26.1045C108.463 21.1066 110.401 12.6344 106.508 7.18135C102.615 1.72826 94.3648 1.35922 88.0815 6.35707C81.7982 11.3549 79.8607 19.8271 83.7539 25.2802C87.6471 30.7333 95.8968 31.1023 102.18 26.1045Z" stroke="black" stroke-width="4" stroke-miterlimit="10"/>
<path d="M88.7758 14.6622L91.037 12.9915L93.8183 17.1683C94.2932 17.8366 94.655 18.5526 94.9263 19.3402C95.0846 19.9369 95.0394 20.5814 94.8133 21.1542C94.5193 21.8702 94.0444 22.4669 93.4113 22.8965C92.6651 23.4455 92.032 23.7557 91.4893 23.8512C90.9692 23.9467 90.4265 23.8512 89.929 23.6125C89.3863 23.3261 88.9115 22.9204 88.5497 22.3953L90.4943 20.4859C90.6526 20.7484 90.8561 20.9871 91.0822 21.178C91.2405 21.2974 91.4214 21.369 91.6249 21.369C91.7832 21.369 91.9415 21.2974 92.0546 21.2019C92.2807 21.0587 92.439 20.7723 92.4164 20.4859C92.3485 20.0801 92.1902 19.6744 91.9415 19.3641L88.7758 14.6622ZM95.5595 17.3115L97.6172 15.593C97.8433 15.8795 98.1372 16.0943 98.4538 16.2136C98.9061 16.3568 99.3809 16.2613 99.7653 15.9511C100.037 15.7601 100.263 15.4976 100.353 15.1634C100.489 14.7338 100.263 14.2565 99.8558 14.1133C99.7879 14.0894 99.7201 14.0655 99.6523 14.0655C99.3809 14.0417 98.9061 14.161 98.2051 14.4713C97.0519 14.9725 96.1474 15.1634 95.469 15.0918C94.8133 15.0202 94.2027 14.6622 93.8409 14.0655C93.5696 13.6598 93.4339 13.1824 93.4113 12.7051C93.4113 12.1561 93.547 11.6072 93.8409 11.1537C94.2706 10.5093 94.7906 9.96031 95.4238 9.5307C96.3735 8.83854 97.2101 8.50439 97.9337 8.50439C98.6573 8.50439 99.3357 8.86241 99.9688 9.6023L97.9337 11.2969C97.5267 10.7479 96.7579 10.6286 96.2378 11.0582L96.17 11.1298C95.9439 11.273 95.7856 11.4878 95.6951 11.7504C95.6273 11.9413 95.6725 12.1561 95.7856 12.3232C95.876 12.4425 96.0117 12.538 96.17 12.538C96.3509 12.5619 96.6674 12.4664 97.1197 12.2516C98.2503 11.7504 99.1096 11.464 99.6975 11.3685C100.195 11.273 100.715 11.3208 101.19 11.5356C101.62 11.7265 101.981 12.0607 102.23 12.4664C102.547 12.9438 102.728 13.5166 102.75 14.1133C102.773 14.7338 102.614 15.3305 102.298 15.8556C101.891 16.5 101.371 17.049 100.76 17.4786C99.5166 18.3855 98.499 18.7674 97.685 18.6242C96.8031 18.481 96.0795 18.0037 95.5595 17.3115Z" fill="#6100FF"/>
</g>
<defs>
<clipPath id="clip0_59811_3472">
<rect width="125" height="49" fill="white"/>
</clipPath>
</defs>
</svg>
